<mxfile host="Electron" modified="2024-01-09T01:15:00.297Z" agent="Mozilla/5.0 (Windows NT 10.0; Win64; x64) AppleWebKit/537.36 (KHTML, like Gecko) draw.io/21.2.1 Chrome/112.0.5615.87 Electron/24.1.2 Safari/537.36" etag="tRaVSU3CafeWDZfvcZVD" version="21.2.1" type="device" pages="4">
  <diagram id="5uydywo4GI6q1qyqrI9f" name="TableofContents">
    <mxGraphModel dx="2284" dy="844" grid="0" gridSize="10" guides="1" tooltips="1" connect="1" arrows="1" fold="1" page="1" pageScale="1" pageWidth="850" pageHeight="1100" math="0" shadow="0">
      <root>
        <mxCell id="0" />
        <mxCell id="1" parent="0" />
        <mxCell id="l3NvyupB7OAECGm_iiC_-14" style="edgeStyle=orthogonalEdgeStyle;rounded=0;orthogonalLoop=1;jettySize=auto;html=1;" parent="1" source="P9PyIdOrvbK1mnkZUeAA-1" target="l3NvyupB7OAECGm_iiC_-9" edge="1">
          <mxGeometry relative="1" as="geometry">
            <Array as="points">
              <mxPoint x="355" y="350" />
              <mxPoint x="520" y="350" />
            </Array>
          </mxGeometry>
        </mxCell>
        <mxCell id="P9PyIdOrvbK1mnkZUeAA-1" value="Get TOC hierarchies, custom MetaData, and other information" style="html=1;align=center;verticalAlign=top;rounded=1;absoluteArcSize=1;arcSize=10;dashed=0;whiteSpace=wrap;fillColor=#fff2cc;strokeColor=#d6b656;" parent="1" vertex="1">
          <mxGeometry x="266" y="290" width="177" height="40" as="geometry" />
        </mxCell>
        <mxCell id="l3NvyupB7OAECGm_iiC_-4" style="edgeStyle=orthogonalEdgeStyle;rounded=0;orthogonalLoop=1;jettySize=auto;html=1;" parent="1" source="l3NvyupB7OAECGm_iiC_-1" target="P9PyIdOrvbK1mnkZUeAA-1" edge="1">
          <mxGeometry relative="1" as="geometry" />
        </mxCell>
        <mxCell id="l3NvyupB7OAECGm_iiC_-1" value="bookmark info in each document" style="html=1;align=center;verticalAlign=top;rounded=1;absoluteArcSize=1;arcSize=10;dashed=0;whiteSpace=wrap;fillColor=#dae8fc;strokeColor=#6c8ebf;" parent="1" vertex="1">
          <mxGeometry x="395" y="190" width="140" height="40" as="geometry" />
        </mxCell>
        <mxCell id="l3NvyupB7OAECGm_iiC_-5" style="edgeStyle=orthogonalEdgeStyle;rounded=0;orthogonalLoop=1;jettySize=auto;html=1;" parent="1" source="l3NvyupB7OAECGm_iiC_-2" target="P9PyIdOrvbK1mnkZUeAA-1" edge="1">
          <mxGeometry relative="1" as="geometry">
            <Array as="points">
              <mxPoint x="250" y="260" />
              <mxPoint x="355" y="260" />
            </Array>
          </mxGeometry>
        </mxCell>
        <mxCell id="l3NvyupB7OAECGm_iiC_-2" value="Binder Project(*.bdrt *.bdr)" style="html=1;align=center;verticalAlign=top;rounded=1;absoluteArcSize=1;arcSize=10;dashed=0;whiteSpace=wrap;fillColor=#dae8fc;strokeColor=#6c8ebf;" parent="1" vertex="1">
          <mxGeometry x="180" y="140" width="140" height="40" as="geometry" />
        </mxCell>
        <mxCell id="l3NvyupB7OAECGm_iiC_-15" style="edgeStyle=orthogonalEdgeStyle;rounded=0;orthogonalLoop=1;jettySize=auto;html=1;" parent="1" source="l3NvyupB7OAECGm_iiC_-6" target="l3NvyupB7OAECGm_iiC_-9" edge="1">
          <mxGeometry relative="1" as="geometry">
            <Array as="points">
              <mxPoint x="650" y="350" />
              <mxPoint x="520" y="350" />
            </Array>
          </mxGeometry>
        </mxCell>
        <mxCell id="rvW21gwUeiw7CncaJtD2-6" style="rounded=0;orthogonalLoop=1;jettySize=auto;html=1;dashed=1;" edge="1" parent="1" source="l3NvyupB7OAECGm_iiC_-6" target="rvW21gwUeiw7CncaJtD2-5">
          <mxGeometry relative="1" as="geometry" />
        </mxCell>
        <mxCell id="rvW21gwUeiw7CncaJtD2-8" style="rounded=0;orthogonalLoop=1;jettySize=auto;html=1;dashed=1;" edge="1" parent="1" source="l3NvyupB7OAECGm_iiC_-6" target="rvW21gwUeiw7CncaJtD2-7">
          <mxGeometry relative="1" as="geometry" />
        </mxCell>
        <mxCell id="l3NvyupB7OAECGm_iiC_-6" value="Get the styles of each level" style="html=1;align=center;verticalAlign=top;rounded=1;absoluteArcSize=1;arcSize=10;dashed=0;whiteSpace=wrap;fillColor=#fff2cc;strokeColor=#d6b656;" parent="1" vertex="1">
          <mxGeometry x="580" y="286" width="140" height="44" as="geometry" />
        </mxCell>
        <mxCell id="l3NvyupB7OAECGm_iiC_-8" style="edgeStyle=orthogonalEdgeStyle;rounded=0;orthogonalLoop=1;jettySize=auto;html=1;" parent="1" source="l3NvyupB7OAECGm_iiC_-7" target="l3NvyupB7OAECGm_iiC_-6" edge="1">
          <mxGeometry relative="1" as="geometry" />
        </mxCell>
        <mxCell id="rvW21gwUeiw7CncaJtD2-4" style="rounded=0;orthogonalLoop=1;jettySize=auto;html=1;dashed=1;" edge="1" parent="1" source="l3NvyupB7OAECGm_iiC_-7">
          <mxGeometry relative="1" as="geometry">
            <mxPoint x="775.6666666666665" y="152" as="targetPoint" />
          </mxGeometry>
        </mxCell>
        <mxCell id="l3NvyupB7OAECGm_iiC_-7" value="Word document TableOfContexts.docx" style="html=1;align=center;verticalAlign=top;rounded=1;absoluteArcSize=1;arcSize=10;dashed=0;whiteSpace=wrap;fillColor=#dae8fc;strokeColor=#6c8ebf;" parent="1" vertex="1">
          <mxGeometry x="580" y="190" width="140" height="40" as="geometry" />
        </mxCell>
        <mxCell id="l3NvyupB7OAECGm_iiC_-12" style="edgeStyle=orthogonalEdgeStyle;rounded=0;orthogonalLoop=1;jettySize=auto;html=1;" parent="1" source="l3NvyupB7OAECGm_iiC_-9" target="l3NvyupB7OAECGm_iiC_-10" edge="1">
          <mxGeometry relative="1" as="geometry" />
        </mxCell>
        <mxCell id="GQNedHkyEhU4Sw4DNVmA-15" style="rounded=0;orthogonalLoop=1;jettySize=auto;html=1;entryX=-0.026;entryY=0.412;entryDx=0;entryDy=0;entryPerimeter=0;dashed=1;" parent="1" source="l3NvyupB7OAECGm_iiC_-9" target="GQNedHkyEhU4Sw4DNVmA-14" edge="1">
          <mxGeometry relative="1" as="geometry" />
        </mxCell>
        <mxCell id="l3NvyupB7OAECGm_iiC_-9" value="create a TOC Word document based on info above" style="html=1;align=center;verticalAlign=top;rounded=1;absoluteArcSize=1;arcSize=10;dashed=0;whiteSpace=wrap;fillColor=#fff2cc;strokeColor=#d6b656;" parent="1" vertex="1">
          <mxGeometry x="421.5" y="398" width="197" height="44" as="geometry" />
        </mxCell>
        <mxCell id="l3NvyupB7OAECGm_iiC_-13" style="edgeStyle=orthogonalEdgeStyle;rounded=0;orthogonalLoop=1;jettySize=auto;html=1;" parent="1" source="l3NvyupB7OAECGm_iiC_-10" target="l3NvyupB7OAECGm_iiC_-11" edge="1">
          <mxGeometry relative="1" as="geometry" />
        </mxCell>
        <mxCell id="l3NvyupB7OAECGm_iiC_-10" value="Convert the TOC word document to PDF" style="html=1;align=center;verticalAlign=top;rounded=1;absoluteArcSize=1;arcSize=10;dashed=0;whiteSpace=wrap;fillColor=#fff2cc;strokeColor=#d6b656;" parent="1" vertex="1">
          <mxGeometry x="450" y="460" width="140" height="40" as="geometry" />
        </mxCell>
        <mxCell id="l3NvyupB7OAECGm_iiC_-35" style="edgeStyle=orthogonalEdgeStyle;rounded=0;orthogonalLoop=1;jettySize=auto;html=1;" parent="1" source="l3NvyupB7OAECGm_iiC_-11" target="l3NvyupB7OAECGm_iiC_-32" edge="1">
          <mxGeometry relative="1" as="geometry" />
        </mxCell>
        <mxCell id="rvW21gwUeiw7CncaJtD2-11" style="rounded=0;orthogonalLoop=1;jettySize=auto;html=1;entryX=0;entryY=0.25;entryDx=0;entryDy=0;dashed=1;" edge="1" parent="1" source="l3NvyupB7OAECGm_iiC_-11" target="rvW21gwUeiw7CncaJtD2-10">
          <mxGeometry relative="1" as="geometry" />
        </mxCell>
        <mxCell id="l3NvyupB7OAECGm_iiC_-11" value="add TOC.PDF&lt;br&gt;to the output file or folder,&amp;nbsp;&lt;br&gt;add bookmark hyperlinks to toc page" style="html=1;align=center;verticalAlign=top;rounded=1;absoluteArcSize=1;arcSize=10;dashed=0;whiteSpace=wrap;fillColor=#e1d5e7;strokeColor=#9673a6;" parent="1" vertex="1">
          <mxGeometry x="397.5" y="530" width="244.5" height="66" as="geometry" />
        </mxCell>
        <mxCell id="l3NvyupB7OAECGm_iiC_-18" style="edgeStyle=orthogonalEdgeStyle;rounded=0;orthogonalLoop=1;jettySize=auto;html=1;entryX=0;entryY=0.5;entryDx=0;entryDy=0;exitX=0.5;exitY=1;exitDx=0;exitDy=0;" parent="1" source="l3NvyupB7OAECGm_iiC_-26" target="l3NvyupB7OAECGm_iiC_-11" edge="1">
          <mxGeometry relative="1" as="geometry" />
        </mxCell>
        <mxCell id="l3NvyupB7OAECGm_iiC_-20" value="" style="ellipse;html=1;shape=endState;fillColor=#000000;strokeColor=#ff0000;" parent="1" vertex="1">
          <mxGeometry x="505" y="700" width="30" height="30" as="geometry" />
        </mxCell>
        <mxCell id="l3NvyupB7OAECGm_iiC_-23" value="" style="edgeStyle=orthogonalEdgeStyle;rounded=0;orthogonalLoop=1;jettySize=auto;html=1;" parent="1" source="l3NvyupB7OAECGm_iiC_-2" target="l3NvyupB7OAECGm_iiC_-17" edge="1">
          <mxGeometry relative="1" as="geometry">
            <mxPoint x="250" y="570" as="targetPoint" />
            <mxPoint x="250" y="180" as="sourcePoint" />
          </mxGeometry>
        </mxCell>
        <mxCell id="l3NvyupB7OAECGm_iiC_-25" value="" style="edgeStyle=orthogonalEdgeStyle;rounded=0;orthogonalLoop=1;jettySize=auto;html=1;" parent="1" source="l3NvyupB7OAECGm_iiC_-17" target="l3NvyupB7OAECGm_iiC_-24" edge="1">
          <mxGeometry relative="1" as="geometry" />
        </mxCell>
        <mxCell id="l3NvyupB7OAECGm_iiC_-17" value="binder documents in binder project, the behaver differs depending on the binder option&amp;nbsp;" style="html=1;align=center;verticalAlign=top;rounded=1;absoluteArcSize=1;arcSize=10;dashed=0;whiteSpace=wrap;fillColor=#fff2cc;strokeColor=#d6b656;" parent="1" vertex="1">
          <mxGeometry x="144" y="351" width="212" height="40" as="geometry" />
        </mxCell>
        <mxCell id="l3NvyupB7OAECGm_iiC_-27" value="" style="edgeStyle=orthogonalEdgeStyle;rounded=0;orthogonalLoop=1;jettySize=auto;html=1;" parent="1" source="l3NvyupB7OAECGm_iiC_-24" target="l3NvyupB7OAECGm_iiC_-26" edge="1">
          <mxGeometry relative="1" as="geometry" />
        </mxCell>
        <mxCell id="l3NvyupB7OAECGm_iiC_-24" value="apply Numbering Set" style="whiteSpace=wrap;html=1;verticalAlign=top;fillColor=#fff2cc;strokeColor=#d6b656;rounded=1;arcSize=10;dashed=0;" parent="1" vertex="1">
          <mxGeometry x="190" y="420" width="120" height="40" as="geometry" />
        </mxCell>
        <mxCell id="l3NvyupB7OAECGm_iiC_-26" value="apply Bookmarks" style="whiteSpace=wrap;html=1;verticalAlign=top;fillColor=#fff2cc;strokeColor=#d6b656;rounded=1;arcSize=10;dashed=0;" parent="1" vertex="1">
          <mxGeometry x="190" y="490" width="120" height="30" as="geometry" />
        </mxCell>
        <mxCell id="l3NvyupB7OAECGm_iiC_-29" style="edgeStyle=orthogonalEdgeStyle;rounded=0;orthogonalLoop=1;jettySize=auto;html=1;dashed=1;" parent="1" source="l3NvyupB7OAECGm_iiC_-28" target="l3NvyupB7OAECGm_iiC_-17" edge="1">
          <mxGeometry relative="1" as="geometry">
            <Array as="points">
              <mxPoint x="140" y="440" />
              <mxPoint x="140" y="370" />
            </Array>
          </mxGeometry>
        </mxCell>
        <mxCell id="l3NvyupB7OAECGm_iiC_-30" style="edgeStyle=orthogonalEdgeStyle;rounded=0;orthogonalLoop=1;jettySize=auto;html=1;entryX=0;entryY=0.5;entryDx=0;entryDy=0;dashed=1;" parent="1" source="l3NvyupB7OAECGm_iiC_-28" target="l3NvyupB7OAECGm_iiC_-24" edge="1">
          <mxGeometry relative="1" as="geometry" />
        </mxCell>
        <mxCell id="l3NvyupB7OAECGm_iiC_-31" style="edgeStyle=orthogonalEdgeStyle;rounded=0;orthogonalLoop=1;jettySize=auto;html=1;dashed=1;" parent="1" source="l3NvyupB7OAECGm_iiC_-28" target="l3NvyupB7OAECGm_iiC_-26" edge="1">
          <mxGeometry relative="1" as="geometry">
            <Array as="points">
              <mxPoint x="140" y="440" />
              <mxPoint x="140" y="505" />
            </Array>
          </mxGeometry>
        </mxCell>
        <mxCell id="l3NvyupB7OAECGm_iiC_-37" style="edgeStyle=elbowEdgeStyle;rounded=0;orthogonalLoop=1;jettySize=auto;html=1;entryX=0;entryY=0.5;entryDx=0;entryDy=0;dashed=1;" parent="1" source="l3NvyupB7OAECGm_iiC_-28" target="l3NvyupB7OAECGm_iiC_-32" edge="1">
          <mxGeometry relative="1" as="geometry">
            <Array as="points">
              <mxPoint x="140" y="440" />
            </Array>
          </mxGeometry>
        </mxCell>
        <mxCell id="l3NvyupB7OAECGm_iiC_-38" style="edgeStyle=orthogonalEdgeStyle;rounded=0;orthogonalLoop=1;jettySize=auto;html=1;dashed=1;" parent="1" source="l3NvyupB7OAECGm_iiC_-28" target="l3NvyupB7OAECGm_iiC_-11" edge="1">
          <mxGeometry relative="1" as="geometry">
            <Array as="points">
              <mxPoint x="140" y="440" />
              <mxPoint x="140" y="570" />
            </Array>
          </mxGeometry>
        </mxCell>
        <mxCell id="l3NvyupB7OAECGm_iiC_-28" value="" style="shape=image;verticalLabelPosition=bottom;labelBackgroundColor=default;verticalAlign=top;aspect=fixed;imageAspect=0;image=data:image/png,iVBORw0KGgoAAAANSUhEUgAAAWkAAAF2CAYAAACs+2kAAAAAAXNSR0IArs4c6QAAAARnQU1BAACxjwv8YQUAAAAJcEhZcwAADsMAAA7DAcdvqGQAADBmSURBVHhe7d1vUFvnnS/wrwA7JE6cQFL/SeIgTBqTVKmdOHbbXKeF2tmBUTqzOxe8L+5upltox9v1Zu6dhcWd6czO7Juai/a2N8NM2YzYzmbv7naMdnZfhKImOChdZxPixOk2sqNugi3V/7CNwTbGGAToPs85z5EOQhICY/NIfD+aAzr/nnN0EF/99OjAcYyPj8cE2IeZmZn4fSn5vs7OXbyGh9etVWO03PjzIInPg9kcDkf8e/L9goKC+H1juHHjhsjdRDDL79mEtPVdN+cvjmLjuvvUGC03/jxI4vPAJEM3+XvyfXtIG/fHxsZiMpSnp6eN4LWHtD2srVBO/q6b85fEk+ELfDLogj8Pkvg8MNkD2fqePMhgtoLa+H79+vWYDGgZyG+99ZaxYi67dn0Ca++9S43RcuPPgyQ+DxauuroahYWFcIyOjhohPTU1hbfffhv19fVqESIiWg5dXV144YUXjJAuOHP+Cs4MXsHZwavGqx0RES0vmcWnzw3j9PkRFMjO/A0P3Yv1D63h2xEiIg3ILH7wgWKsK70HBckfDBIR0fKTXdByiIe0/OCQiIj0IANa5nKBHGElTUSkF3lChxzY3UFEpCFZRccraYkhTUSkDxnQMpfjlTQREenFCGl1n0FNRKQRK5PjIZ29Uzj82mt47fApNT7byMc+vPaaDx+PqAkpyTbmWyYdtX3bEN+VkY/hW1S7t7I/RES3x6xKemFKUTryUYpQO4VjR4fV/dupFDvqv4fvfU8M9Tsw8tZhsWWh5BnUfa8Oz5QYCxER5bxFhrTIQxGEA+GklD51EgMVFahQo3dEyQMowQiusAomojy06JAufXY7So4eMytYwwg+/mgEO57drMZNpw7buiZSdpEkdZ8YXRbWOqpCzsR4Ydiuqmd7t4W6//Hh+PZ99tLfth3fx1fURCXlPpjtHT4su3MOG1OIiG63RYc0UI7NFQM4aaXoSBgDooZ2JnU1lO9W3RLfexEVA8ldJCLYfW8BL4r5u8vFuAjCLtGK1ZXxIvBRyo7iYRztUiEqVzfWTUUsN7xZtVWB4fiLitzOUZTI7Yp5u8WeDxjTpUz7MIyR0t1i+m41TkR0e91CSIsAfnYHRj76WEStiLZjIvS2P4M53cGnrEr2LVsQmgYOd4kquB7xjB25ItqyB/AAhoeTqlyDvU+6FB+l/dBPLPesarx8s3gJUd0icjulO2DNKnlme6KLJuM+lKIi+VWIiOg2uqWQRolThNsAwqc+xkcjidCLk90GRqEsA7UeO0rVdIP8gLE0RQhXqOXVkLZKVuQ+lA4jZZYv2gL3gYjoNrm1kBZ18zPbS3D0raMi15xzq+grIjxLS/GAvC+7Q2ad+CGq0t11eBFvJfqKjQ8BB9J0caRhtFuKUmMjWZLbGT6KY/Fu8I8SVf5i9oGI6Da5xZAWyp8VFXIFtqc6703Ow1F0yW6Dw8MomVVJm8p316NioAuv+WS3STl21+8Ajopxo4tErpfqo0Nbd4TRf7zQ0+7Edl4U7wHeMts4LCrnxBkp2e4DEdHt5/jN8ZOx6FQU0WgUwd98jIY/+SM1i4iIlkPnz/4fHn70MRTfVYyCh9evxcPr1hpX8uWVWYiIlp/M4vUPyitm3bsE3R1ERHTbMKSJiDTGkCYi0hhDmohIYwxpIiKNMaSJiDTGkCYi0hhDmohIYwxpIiKNMaSJiDTGkCYi0hhDmohIYwxpIiKNMaSJiDTGkCYi0hhDmohIYwXnLlzDuYvXcP7SKK5dn1CTiYhouVy7fhMXLl/HhaHrvDILEZFu1t5bzCuzEBHlAoY0EZHGGNJEtCLFYjFj0B1DmohWlKOXjuI7vd/Bd9/8Lvyf+TE2NoaZmRk1Vz8MaSJaMY5fO462X/8I0cIRXJz5HD/99Cf4VehXGB0d1TaoGdJEtCJExiL42+M/xcjkeTx4790ovPsmgjf60XW8C6dPn8bk5KRaUi8MaSLKe0MTQ/inz/8RR84dxs6NX0bw8n/i8yufoXTt3Xj30hGEQiHcuHFDLa0XhjQR5bXx6XH84uwv0BFsxx988ffw0dAHGLw5CIejCNGpacxMzSAcDjOkiYiWw3uX3sP+t7+PP9/2bXxw8T2cvhFBQawQBQUOnB0cw46xnYhGo5ienlZr6IUhTUQ5ZzB6HkeH38O18asZw/X9S+/j+4E/xfe3/TE+FPd/NxY2A7qoAIMXx/C1y1VYO7IWmzdvxpo1a9RaemFIE1HOiInbzyM/Q+snP0DXyb/DX334A5w8P4CJiYk55zwfv3ocB949gBceeQYXbp7B56OfYUos4xABfXl4HE8Nbce6ixvwdOXT+NKXvoR7771XrakXhjQR5YzA6Tfx/mAvJqev4cx4CL8Z/Xd0hDpw8sxJ4+wMK6hPXj+Jgx8dROk9xSgqmsZvr57AePQGChwOjF6bxKNDT+CxS05UPlKJ7du3Y9OmTVi9erWxrm5yPqQjnbVwiANvDc0BNeOOiqCzthadETU6S6Z5mQTQbHtcDkezmJJquhhmPeh06xHlvp+f/HusLhR3YhO4OXMVhatu4p2r3Tj0X4dw9sJZTE1NYXB8EK8dfw1nxwZQVrIOJ658gpHJKygoKMDYjSjuH9qIx4cqsXntZjz33HN4/PHHcd999xnzdZTTIR1odsAZaon/eacc2qrUzLzQhD71uMLeIKrjYZyYHouF4Q1WJwW1fX4b8uqQ0Ip2bKQf9xevxfErH+PqxDVMYwrFa8bxr8P/jF9+/ktEhiLwDfjwZqQbOx9xGQF94cYFEXSFmIzOYNXQWjx5aSseFTdZQT/55JMoKSnRNqCl3A3pSCdag16E06VyoDl1NSnWq63tRCBegct5ydWuHFfr2NuxglC10SleJBxiueZaJxr9fjQ6HaidVTLLdlLMS7dvGZTtqUNNcEC0mKwMDT19aPK0LqJaJ8ot61dvwqdXTqDIsVoUIMDU9Iy4X4Di+0fREWnHvxz34cfH/gbf+uI3cGLkE4SvnUKBowgzYuEblwqwdfgrWDe6zgjorVu34qGHHkJhoSzN9ZWzIR3p9QF1e0REpSBDtBppqlDB34hWdBjz+po8aO0ERAbC16tSLtILn8uNKtlOayXCqp0+VCe6U0QbIbeY3tOGth5RzdbUwBuOoafBvkcyQJPmzbdvacjH63dVpH68olZ2N/kROqVG4UF18gsLUR7YX9GMI2dCIngLIXufp8Xv0OTMDAoLHCgsvYwfn/kRGrftRejqCYREmBcWrIIoojF06QZ2jLyAknMlRheHHNavX4+ioiKzYY3l5ZVZjAD37o+/zS9raBGVZneiYq3xokOFaZW7CX6RbnIZl6/XqFTl+i53lRmMIoydKvCqPUBwQAW5aGP/IvoR5t23WRJh6/TVpX/XMIetuyO/+n9ohdu+fif+7KG/wKcXrhi/F/I5Lk/Bi4qKWozi2Ucq8c75XlFtB0U2F0EU2RgeuonnruxCydkSo4KWg+4BnRdXZimrcMGvQnVpiGrU5UNvJILeUF08gGu8YTPs1DC7Ur7dbGHb05CmipYC6PY0QbyuEOW1B9Y8APfjL+EPH/g2IpfHRDCL3w0RzrKill0alycu4Pz4eVFdT4sKugBXr0xgy8g2rD+3EV/e8mWjgpZnchQXFxshr6v8uDJL1X54Iapc+9v5QLPRHSH7b9HYHq9OI52t8DS55/0Arcrtgq+9HaFKsxsluZ2lsNh9S0/2e1cjaKvOifKVrH7L15ejvmIvvl5ci4sihCGCWgb09EwMo5NjIqCjxql2Y9ejeHj4cWw6X4bKjeapduXl5cYfregc0MlyN6St/l55ZoM44MbQ7TbP7ihrQE8fFt5VUOWGyxNE5R5Vs4p2OmSfsdV+2g/5yow+7bkfHEpJ8xa7b7PY+pwdToRa7nSFT7Q85HNeVsFfevRL+B/lf4wtjh24NjplBLVxk+86Rf6Oj0/hgeEN2HzhCWxes9kI6CeeeAJr167V+kyOVBxDQ0Mx+Xfr8kTw/v5+1NfXq1lERHqSYXzt2jX0fdqH//3bH2H47pMoWhXDVAzGP00qvHQftg5+BeUT5di1a5fRzbFu3bqc+KBQ6urqQkVFhfGClMOVNBGtVLKiln+A8o0t38CfPrYf05fvA6aKREFdgKnh1XCNPIcNVzYYFfS2bdtyKqCTMaSJKCfJbov7778ftU/X4i83/QCFv1uPsYHV2Hnh61h3xjwXeseOHdiwYUPOBrTEkCainGUF9YvbXsQPXT/Ed1Y14Kmip/DVr34VO3fuNAJ61apVauncxJAmopwmq+SNX9iI513P46UXvoWab9bg+eefx2OPPab9qXbZYEgTUU6TISz/g53sd96yZYvxb0dlQN9zzz05dyZHKgxpIsp5Mqhlt4b8n9DyA0XjrIg8CGiJIU1EeUOGda53byRjSBMRaYwhTUSkMYY0EZHGGNJERBpjSBMRaYwhTUSksby8MgsRUS7LiyuzEBHlq/y4MgsR0QrAkCYi0hhDmohIYwxpIlqRjOshikF3DGkiWlGOXjqK7/R+B99987vwf+bH2NgYZmZm1Fz9MKSJaMU4fu042n79I0QLR3Bx5nP89NOf4FehX2F0dFTboGZIE9GKEBmL4G+P/xQjk+fx4L13o/Dumwje6EfX8S6cPn0ak5OTakm9MKSJKO8NTQzhnz7/Rxw5dxg7N34Zwcv/ic+vfIbStXfj3UtHEAqFcOPGDbW0XhjSRJTXxqfH8Yuzv0BHsB1/8MXfw0dDH2Dw5iAcjiJEp6YxMzWDcDjMkCYiWg7vXXoP+9/+Pv5827fxwcX3cPpGBAWxQhQUOHB2cAw7xnYiGo1ienparaEXhjQR5ZzB6HkcHX4P18avZgzX9y+9j+8H/hTf3/bH+FDc/91Y2AzoogIMXhzD1y5XYe3IWmzevBlr1qxRa+mFIU1EOSMmbj+P/Aytn/wAXSf/Dn/14Q9w8vwAJiYm5pzzfPzqcRx49wBeeOQZXLh5Bp+PfoYpsYxDBPTl4XE8NbQd6y5uwNOVTxtXGJcXsdVR7od0pBO1jlp0RtT4LQmg2dEsvmZDLutAbdKGA80ONGfXQGbycdV24tYe1kIez/winbXxC3065j3mEXTWLtXPhcgUOP0m3h/sxeT0NZwZD+E3o/+OjlAHTp45aZydYQX1yesncfCjgyi9pxhFRdP47dUTGI/eQIF47o5em8SjQ0/gsUtOVD5Sie3bt2PTpk1YvXq1sa5ucj6kI70+oAZobF+qKFoIsWHfPo2DqAptsTbxdQmIF419vjqE1V9pxWI9aChT84jukJ+f/HusLhR3YhO4OXMVhatu4p2r3Tj0X4dw9sJZTE1NYXB8EK8dfw1nxwZQVrIOJ658gpHJKygoKMDYjSjuH9qIx4cqsXntZjz33HN4/PHHcd999xnzdZTjIR1Br8+Flp4WNHm6ExWjqkID8crPVtFlmheXXAWmqwrFtjvqRE6nqHiTKmFZhRpVt5reKSpuY/uy7A40p92XU+n2M76OakOyt21s21ZJz3nciQrbXiE3N4t2bfsddyoEv7o7x5x9kcfLiUa/H43Oue82iBbr2Eg/7i9ei+NXPsbViWuYxhSK14zjX4f/Gb/8/JeIDEXgG/DhzUg3dj7iMgL6wo0LIugKMRmdwaqhtXjy0lY8Km6ygn7yySdRUlKibUBLuR3SkV74XG5RKVbB3eRBt5U6kr8Rregwq74+FxrtQZppnqEMDS0u+HrVVGM7Lakrx7IGtLgasaBCXmw/5JbVaJ94camGo9tt7EvYKwpza5tSuv2UgdtaGa9q+1Cd6GKx2u5pEI8iia29PnG8WtWLxr5GF/pUW2541MJJqtrQJx6nM/nFIuW+iOPXE4a3pgbecAw9LLlpiaxfvQmfXjmBIsdq8XwDpqZnxP0CFN8/io5IO/7luA8/PvY3+NYXv4ETI58gfO0UChxFmBEL37hUgK3DX8G60XVGQG/duhUPPfQQCgtlaa6vnL4yi+zqcLnNN/NV7iZ47Cld40WHFQ5VbjT5QzhljmWeZxHTXb5eIxTt20mlqq0PqF5A36/Y/n6juXJU1gBNqu2yChf8IduepNlPuT9+EbhOVb1Wi1wNDqjkjLedgq09ebzktozuIu/+eJeInJ5OVZsM4haERHVsVdsZ94Voie2vaMaRMyERvIWQvc/TInwnZ2ZQWOBAYell/PjMj9C4bS9CV08gJMK8sGAVRBGNoUs3sGPkBZScKzG6OOSwfv16FBUVmQ1rJk+uzBJAe6Mfnmr1Nlumg73L45aJ6tzlQ2/E7FLJkNFCFWROG5XpHVLjDRuVqzXcuWpV9nOLitn27mH59oVWmu3rd+LPHvoLfHrhivF7L59v8hS8qKioxSiefaQS75zvFdV2UGRzEUSRjeGhm3juyi6UnC0xKmg56BzQUn5cmSXQDU9T36xwCHuDiaAU1Z0VIpHOVnhqKkXdqmSaZ1PldsHX3q66VOZRtR91vn1oDapxyS9DXt6RQZ+2Rze9NPtZtqdOflK6JC9IRvVuayvQnaa7I42l3Bei+Tyw5gG4H38Jf/jAtxG5PCaCWfzui3CWFbXs0rg8cQHnx8+L6npaVNAFuHplAltGtmH9uY348pYvGxW0PJOjuLjYCPlckLMhLcPE6iawGIGhuijkW/vKbrPKdso+V3sfbaZ5drLLwxNEXdr+A7syNHSI7VtZLPuqm8wPzhyOfQi5atSMBUi3n6LtDvGCVC2my3n2DwEXTPY1N3nibXWjCXBVzD0e9g8HxVCNPrTJw5J2X8pg5Dc/OKQlJKvf8vXlqK/Yi68X1+KiCGGIoJYBPT0Tw+jkmAjoqHGq3dj1KB4efhybzpehcqN5ql15ebnxRyvyuZorHENDQzH5J5HyHMP+/n7U19erWTlMfpi1D+hIFb6Z5iVbyLJ5Qp7n3VoZZpcFaUu+a5b/A/r9z9/H/w39H3zm+BB33+0wPkScEkEdK3BgYjyK+4Y24Klz2/DE6ifwwgsvGB8UPvjgg9p/UCh1dXWhoqLCqPhz++yO20aeQiaqQqcPdR15HtDyhSheBZsVMgOadCafp7Ia3lG+Aw3O76H0ZjnGb84Yf40ouz6i0SmsGlmLLZeexmMzjxldHPIvCktLS3MioJPlZyVNRHlP/pP+q1ev4o1fv4G/Dv0V7nroBqYLZnDjkgPbh/4bHrnwCHbt2oWvfe1rePjhh7X+oDAZK2kiynnyD1Duv/9+1D5di7/c9AMU/m49xgZWY+eFr2PdGfNc6B07dmDDhg05FdDJGNJElLOsoH5x24v4oeuH+M6qBjxV9BS++tWvYufOnUZAr1q1Si2dmxjSRJTTZJW88Qsb8bzrebz0wrdQ880aPP/883jsscdy6lS7dBjSRJTTZAjL/2C3bt06bNmyxfiQUAb0Pffco/X/5MgWQ5qIcp4MatmtIf8ntPyPdsYHbnkQ0BJDmojyhgzrXO/eSMaQJiLSGEOaiEhjDGkiIo0xpImINMaQJiLSWE5fmYWIKB/lyZVZiIjyU35cmYWIaAVgSBMRaYwhTUSkMYY0EZHGGNJERBpjSBMRaYwhTUSkMYY0EZHGGNJERBpjSBMRaYwhTUSkMYY0EZHGGNJERBrL/ZCOdKLWUYvOiBq/JQE0O5rF12zIZc2LXhpDbSduaRfk47jVNrJxp7ZDREsi50M60usDaoDG9uyidWk1oS8WQ0wMfa5G7FuaVwoiorgcD+kIen0utPS0oMnTnaiAVbUY6KxVla6t0s40Ly6Czlr79OTxZBEMBGtQt6fMHA00q7blkFSZZ5pnMZZR21P729ms1mkWa8TbsO/T7Mq+1pphXz+5grZvx3iM1vrZvpsgotstt6/MEumFz+VGlbi5mzzotieLvxGt6DCq3FifC437bAGVaZ6hDA0tLvh6raCT22lBg8rgBA+qjVBzotGaL0OxGvEKO+wNoloGq5RpniW+TE9ie2J/Q265Tp94MaqGo9ut1kdiH8UxaFPtxuSMxvZE0Frr9zSIR6YkbSfSuQ++urC5fqxNtEZEyyVvrswiuzpcbjNOqtxN8NhTusaLDivlqtxo8odwyhzLPM8iprt8vUZ427czW6K7I1zZalS5RveLd3885MoaElV+pnmmENr3+VAXTgpJsb/7jQnlqKwRW1X7Ulbhgj+U2POI9e7A2Qi/mmaIr2+Zu52yPXUi2J1Ifs0gojsvT67MEkB7ox+eavUWvdojClt74N0qUZ27fOiNmF0qKTPaRoZcTXBgbtgvhN8Dj98PW+5mL9AMZ6hFVcKi4laTU0q1nbIG9Ih13d3s7iDSSe6GdKAbnqY+FUqqmvUG0Wr1xYq3+NZniZHOVnhqKkUdqmSaZ1PldsHX3q66VDKTVbLfVYEqoyJNdDUY7TeZ65vVaup5BlHxhkXAojpT/3dqkYEgairVo5DHxryXWobtVLXF0JfcdUREyyZnQzrQ7Ym/7bcYIai6KGQQVRpVoQPORhf67P2xmebZyS4PTxB1s/sKbKw+adGOrw7hNrGcrEhl/iVPlzLNi6tCW7gOPqdjQV0PsuvE1eg02nV0y46Y+czeTryrRAzVweTuESJaLo6hoaFYNBrF5OQk+vv7UV9fr2blMPmh2D6gI1X4ZpqXbCHLEhEtka6uLlRUVKC4uDj3z5O+PdTpaE4f6joY0ES0fPKzkiYiymGspImIcgRDmohIYwxpIiKNMaSJiDTGkCYi0hhDmohIYwxpIiKNMaSJiDTGkCYi0hhDmohIY7l9ZRYiojyUN1dmISLKR3lyZRYiovzHkCYi0hhDmohIYwxpIiKNMaSJiDTGkCYi0hhDmohIYwxpIiKNMaSJiDTGkCYi0hhDmohIYwxpIiKNMaSJiDTGkCYi0ljuh3SkE7WOWnRG1PgtCaDZ0Sy+zieCzloHHI6koTnDmnI/azvFmqlku90sBZrT7k+ks3bWPmfa5czkMbiV436r6xOtDDkf0pFeH1ADNLYvWcRloQwNPTHEYjGEvTWo8YaN+7G2KjV/OYnwa/WgqW/u/gSaHXCGWsx9VYMWu0xEaeX4lVki6PW50NLTgiZPd6ISVVVrIF412iq2TPPikqu8hVR9sipOVKq1SSudyrhdxaqE5ZCu1LUvY6vCA81ONPoBT3XStsXjbg16EU6Xymnam3u85Dx5POR2/Gh02raTar+zXl9OU+su5bsKohyUP1dmifTC53KjStzcTR5023+z/Y1oRYdZMfa50LjP1tWQaZ5BVMotLvh61VRjOy1oKDNHM6tCm1Wphr2yxE8EzrzbFWSotVYirNroQ/XcLgm5TDXQp5YJe4OoVgtVtYUhinujku6x7bDxjqNuj3hkKWRoz2Db7z5xnFs7Id5JyO3UwBtW28m031msH+ncB1+dekcSaxNHkWjlypsrs8jgcbnNX+cqdxM89pSu8aLDCqkqN5r8IZwyxzLPs4jpLl+vEaL27WQj3u/rbIQoahOy2K7cll+EmlNVpNUeIDgwO8qNwPXujwdZWUPSO4kFmrc9237L4+wPzTlamfc7i/XL9tSJFzTnLfSRE+WnHA7pANrF+3r5tt4IRJkKtxBUc4nq3OVDb8TsUsk6o8Vb/kS/bx+a1OSFiPdxq8FeES9WWYULfvWic7vc0n6XNaBHrOPulj9PdncQWXI3pAPd8DT1zQoF+Ta91eofFVWd9VlipLMVnppKlJujmefZVLld8LW3qy6V7EQGgqipVK3JfTTvmbLYrllR2rpIUkhexmiraZ59rNoPL0Slay9VxQuKHF1Ue0my2e9sVLWZXSKzuq6IVrCcDelAtwdNSeWtERRWtSjeYlcaVZkDzkYX+noaEv2xmebZyS4PTxB1+7OPK9lV4BJv243qvhuzK+lstisqyg7ZJyzXN4YUVaWsOvsQX8bpq0v/gWCcPCMlDG+wWrUrhm63eXbHItszctn64C+b/Z5l9vr2UwOrg14s4JAT5TXH0NBQLBqNYnJyEv39/aivr1ezcpj8EGsf0JEqBDPNS7aQZYmIlkhXVxcqKipQXFyc++dJ3x7qdDCnD3UdDGgiWj75WUkTEeUwVtJERDmCIU1EpDGGNBGRxhjSREQaY0gTEWmMIU1EpDGGNBGRxhjSREQaY0gTEWksx6/MQkSUf/LnyixERHkob67MQkSU7xjSREQaY0gTEWmMIU1EpDGGNBGRxhjSREQaY0gTEWmMIU1EpDGGNBGRxhjSREQaY0gTEWmMIU1EpDGGNBGRxhjSREQaY0gTEWks50M60lkLh8MRH5oDasYdFUFnbS06I2p0lkzzMgmg2fa4HI5mMSXVdDHMetDp1jMFmm37EulErWMx+0ZEd0pOX5kl0OyAM9SCWCwWH9qq1My80IQ+9bjC3iCq42GcmB6LheENVicFtX1+G+KHRIRya7AOe8rUaK8PqAEa2+3rEtFyy48rsxiB40U4XSoHmlNXk7J6rO1EIF6By3nJ1a4cV+vY27GCULXRKV4kHGK55lonGv1+NDodqJ1Vlsp2UsxLt28ZlO2pQ01wQLSYrAwNPX1o8rTOWxHLUHa1NIg1jDH0+lxo6WkR63ZntQ9EdGfkxZVZjCqwbo8KnCQyRKuRpgoV/I1oRYcxr6/Jg9ZOQGQgfL0q5SK98LncqJLttFYirNrpQ3WiO0W0EXKL6T1taOsR1WxNDbzhGHoa7HskAzRp3nz7loZ8vH5XRerHK2pld5MfoVNqFB5UJ7+wqFB2W69p1mM01vWgmylNpKW8/ODQCHDv/vjb/LKGpGqxxosOFaZV7ib4RbrJZVy+XqNSNSpOkWZGMIowdqrAq/YAwQEV5KKN/YvoWpl332ZJhK3TV5f+XcMctu4Oa51AO3x1ie1aj1GSx8DDlCbSUs6GdFmFC34VqktDVJQuH3ojouIM1cUDuMYbNsNODbMr5dvNFrY9VjdFKgF0e5oSVXIKge6geONhtRBAe6MfnmpVbctXH3Z5EGkpdyvpqv3wQlS59q6CQLPRHSH7b9HYHg+dSGcrPE3yrX1mVW4XfO3tCFWa3SjJ7SyFxe5berLfuxpBW3U+R6QTrWhB/PUl0C222TfrxUd2u7TyNA8i7eRwd4fq75VnNqguAUe32zy7o6wBPX1YeFdBlRsuTxCVVsUp2umQfcZW+2k/5Csz+rTnfnAoJc1b7L7NYutzdjgRaslc4du7NqRAtwdNSWW38eKxpO9MiGgpOIaGhmLRaBSTk5Po7+9HfX29mkX5IYDm2gHsz9hdQkQ66erqQkVFBYqLi/Pzg0Oyq0IbA5ooZzGkiYg0xpAmItIYQ5qISGMMaSIijTGkiYg0xpAmItIYQ5qISGMMaSIijTGkiYg0ltNXZiEiykf5cWUWIqI8lRdXZiEiWgkY0kREGmNIExFpjCFNRKQxhjQRkcYY0kREGmNIExFpjCFNRKQxhjQRkcYY0kREGmNIExFpjCFNRKQxhjQRkcYY0kREGmNIExFpjCFNRKQxXpmFiEgzvDILEZHGeGUWIqIcwZAmItIYQ5qISGMMaSIijTGkiYg0xpAmItIYQ5qISGMMaSIijTGkiYg0xpAmItIYQ5qISGMMaSIijTGkM4h01sLhcMSH5oCacUsi6KytRWdEjSKAZkez+LoUkttOI9KJ2tpOsXQqS7k/QqDZPH5Lc/CSZPl407rV9ZdQpp9J/Bg22342i/g5LdXPwmgnxbaXajrNwpBOI9DsgDPUglgsFh/aqtTMJVWFtlib+JqPRAi2etDUJ47f7Tl4K4D9GLbdwnNlKX4W8kVNhHw30KSmmJZqOqXCkE5FVDWtQS/CqZ7MquLpFCHusCofq0KZVaXISkdNE0OtUa7JJ6cTjX4/Gp3WNFtFpNoOxCv4RJVhr+qbRUUV33ZcuraT9yHhVLzNDNVkyseWxL6MbZ8DzXJ/AE/13G2nbDdNO6mPS6rHK6RqN+v1VXgkb18JNCeOk/HzsLef5WOwP29m/Ux7zcWSzT6Gnemr51SP22bOz2IB+5lQhoYeGfJuNW5ZqumUCkM6hUivD6jbI55KafgbEXKLJ1lPA8rkk7q1EmFVbfehWnWLyArZnBYLe4HGdvGLIJ+cYXhrauANx9DTkGILou1WdJhtNXnQKn+hxDb2NbrQp9pzw6MWtkvVdqp9UGzbifW50LgvxVvttI/NRi5Tjfi+hb1BVKuFqtrk/ohqSVRvsx6rsU7Q2E9j+/LFMEM7hjnHBXMfb6b9zWL9SOc++OrC5j6lqFjLKwFfrxGv6PWJxAsOmGErni8ud3aPwf68mfUzDTVCtDjH7GNYoaYmyfS4lVnt7OnNfj/VJFo+vDLLYtR4sV/9BstfUL94UjtVVVIt8jM4YMZdvFJypv4FTEm03aECrcrdBH/olPmi4d0fDw05PVtp98G2HdEgmvwhnDLH4jI9NkvyvpU1tKDJ05262lPMdTowK7fnayfFcUmWcX+zWL9sT514IXOm/ezBmG+sdwohVx/6XD7IzD4VAirLs3sM9ufNYn+myTI+7hQWsp+0PHhllnmUVbjg9/XOrSzTqPFa1Zc5GFWdeDuZ6NPuW56+tyXYh5SPTWO3tL9lDegR67i7Zdil6FYo24O6oAizQDcgKucqt0tkdgDdwTrsWebDkms/J8qMV2aZT9V+eCEqE3tJJQIvVYVlVl+2bgQlMhBEjSyvJPFLnaqDIlvGi4ZtG4Hu7FrLuA+i8mpXDUY6W+GpqYRaMi7dY7NLXsZoq8kdr9JSSdXuYtpJls3+ZqOqzewS6Z7TUBkqXEG0tgaNyln2fwRbW+NdYwt5DIv9maay0Me9FMea7hyGdEqqfzdYbXYVyKHbnfrsDlF9dcg+PWs5VYHJt5Au8dbZXNf+KXYZjN8R+4dd86lqM0LD2ka3bM1VkaK/cHbb6fdBEG9pK42K0QGn7BtN1f+Y5rHNIqvPPsSXcfrqUn/gapfcrnz1W0w7yccym/2dZfb69g/yqoOp3/LL6tkPVTnLylp2IlWoI7eQx5DqZ7pYC33cizrWtFwcQ0NDsWg0isnJSfT396O+vl7NIl3J0wNbK8N8S0uUp7q6ulBRUYHi4mJW0jlBfnofr5JElYc+BjTRCsGQzgXy7antQyH+YQjRysGQJiLSGEOaiEhjDGkiIo0xpImINMaQJiLSGEOaiEhjDGkiIo0xpImINMaQJiLSGEOaiEhjDGkiIo3xyixERJrhlVmIiDTGK7MQEeUIhjQRkcYY0kREGmNIExFpjCFNRKQxhjQRkcYY0kREGnMMDQ3FotEoJicn0d/fj/r6ejUrtd7+N4GYuCMHOOL3xT3E4vcd6n4sft+aL8fNmXKKnGh+IyLKd7t371b3Muvq6kJFRQWKi4sXF9L7xv4aM7EZMQDiq/gur2I9g2ljmpm6cr5xZWtxs+bPiOnmNHNdyVqGiGixwjvfUff0deLEiUWF9IK7O6a/MImvbHwSOzY8iec2bMGz676IZ75Qga1i+LIYvvSgE5Wlm/BEySY8XvIInGs3oGztemy6bx0eXlOKDWL4wt0leOjutbj/rjVYe9c9uKfoLtxVuNoYiIgogX3SREQaW3BIF15ajf7zn+Lo4Kf4cPC3OHbxM3x8aQD/KYbfiOH45TBCw6fxXyOn8fnIWYSvDSJy7QJOj17EubFhDIrh0vgIhsav4erEGK5N3MCNqQlMTE8aAxERJbCSJiLS2MJDesphVL5yGBfDzalJMZiV8OT0FKLTUfE9anyPzkwbw7QYpowPFWfiHxqaHxfyA0MiokxYSRMRaWxRIS0rYsmohY378rs5xTS7Qk6MWcsREVE2eGUWIiLN3NqVWVQlbP3RilUYy+/mH6ZY3x1iEGPGfWspU/I4EREl8MosREQ5YlEhbfUrW/3Rxtkaqp/arJOt/8vBmpmI6FawkiYi0tiCQ9r4r3ZGfay+GqWyWS+b49Z983uCmCImJU8lIqL0WEkTEWlswSFtVcrm2R1WNW19l39RaD+rw1oivfnmExGtZKykiYg0trg+adtfGSaf1WFUxnOqaLWsGiMiouywkiYi0tiiQlpWyGZlbNbG5riqk9V3a16ydNOJiGguVtJERBpbcEgnzoM271tVdLw/Ws1LkPPVXTujAfMuERGlxkqaiEhjCw5peXaH9b86jGLYXkUb92WBbJXIiSp69nQiIsoGK2kiIo0tsk/aVilnWUUTEdHC8cosRESaubUrs8jK2aiaZaVslcpm/Wx+leQ865713bpHRESZ8MosREQ5YhFnd5jVsf2sDmPc+CqZ3+VZIOZX8yot5j11i9nu88Ybb7yluJHJMTQ0FItGo5icnER/fz/q6+vVrNQOv9OL/379f4mQTvxbUqv7QzKi2SG+iiC2JALcZP8BJM8jopUn3nUqWPeMVFHT58uJ8M531D19nThxArt371ZjmXV1daGiogLFxcWL7e6Qh8x+Voccc6DQUSAaVDd5Xw2FjsL4UOQogrjHG2+88Za42TLCyBFR6BWITJH5IYs+67YS3XKftBnO5oG1qmjrlhzW8QPOgQMHDrbByAZ7bsSzY25YrzSLOE9aXpXFvO8Q3x3GwTXD2Tio5iE17ssZ1oHnjTfeeMt0M0PZDGMrS+TNHJepYltG3FaKBfdJ9wZ64wfI+ioPosHoP1JTrWmpqJAnIkrH3k8tzTeeCxbTJ73gkCYiottrCT44JCKiO4EhTUSkMYY0EZHGGNJERBpjSBMRaYwhTUSkMYY0EZHGGNJERBrjlVmIiDRzi1dmISKi24lXZiEiyhEMaSIijTGkiYg0xpAmItIYQ5qISGMMaSIijTGkiYg0xpAmItIYQ5qISGO8xmGOOHTokLpH89m7d6+6lxqPZfZ4LJfOfMfSjheizUHyl2EhP+SVKpvjxGDJXjbHks/L+S30ODGkcxB/GbKzkJDm8Uwv22PE52V2FnqceLVwIqIcwZAmItIYQ5qISGMMaSIijfHKLEREmuGVWYiINMYrs1CSY+jYu9c4RcgcOsQUWoxIZy0cDkd8aA6oGbdNAM2OZvF15TrWYX/uHsAbg2qG8by2PZePdeTkc5shTco3ceDQIeN8zldfDuNgB2N6oQLNDjhDLYjFYvGhrUrNpNtgEG8c2IuDOGA8b43h1V048oo9qJXBN8Tz+1G8emgfnlWTcgVDmubY8NwubA6fE78CsyvsA9YzXz7hD7wh5lujB9Q885dmTjVuVDBqer6Gf6QTrUEvwilTWVa7ieq6tjNiThbr1NZ2IhCvvm0VcaA5vrzDKsdTTVvJjv0bXsfLeHWfLXY3vISDB5x4/d/szzPxPH7lDPYefAkb1JRcwpCmOQY/PIKTzofFE/pZ7ItXKC9DPPMzvlUcfOMnOLLrVVXVqIolXsGY7RwQdU8+5nSk1wfU7UGZGp+tCm1WdR32Ao3tiTD2N6IVHca8viYPWmWAy/CuDsIbVuvI4JfTWisRVu30ofoOdKXobfBcGJt3PTc3eB9+VBUZUhiHDhzCo6/mXgVtYUiT8jYOqmr3lSO74tWJrJKNCviV13HSmJKerMDx+iuzQtgI/JOv4xXV9sG3xa/NueT3ovkv3lftbIRfTTPUeNHRYEZ7lbsJ/tApM/C9HVCTDXKaXwS6U1XS1R4gOKAqcprHSRz5MHefcwxpUhJ90oest4XHOvDKmb2qMj4glpiHfKsplt35gQzkRHfH5pet6tocDr6Ui286MyurcMHv60XK2Aw02/qq+9CkJi9UjTes2jCHHnuKr0AbHnbi5JEP491ucefOqHeCkhN7D76KXUdmFw+5hCFNaRlvJx992Bw59oGotW1OHoFZnAziwyOza+xn9x3CgW++jQ/EL4VZXWfuJskLVfvhhah07X0QIpzlaGQgiJrKcjWtG6IIzqhsT93sLhEh1bQV79nfx8sQ79JmvXV7AwcOhvHy79s7NzbgpYMHADHM+UAxBzCkKa0NL+2F8/VXzO6OD2StrYiKee83T+L1V2TF/BOccW42Jse7RmS3RvhlGL8nYtn/Kc8WUdPz9/S+MjT0hOENVic+3Ot2G2d3lDW0wNXoVNMwfyVd1oAObxDVVjsy6ZOnrfDT7kwyfF/Fy+GD8efd3leOYNerBzH3zdqz2Cc/UEx15ofm+K9Kc4TsJpBPQsosm+Mkl5F4PNPL9hjxeZmdhR4n/qtSIqIcwZAmItIYQ5qISGMMaSIijTGkiYg0Jc/kiYe0HCEiIj1YmVxgnnPJgCYi0o2Rz5+cOBWbmppCdCqK3/z6IzT8yR+p2aQTno+anWyOk3UOMM2P50kvjYUep86f/QMe3VSOu4rvgmN4eNj4YxY5/Md//Af/mEVTDJbsMaSXDo/l0llISMs/ZnniiSeMP2YxQtqopEVIv/vuuwxpIqJlJkN6y5Yt5l8cWn3S7JcmItKHlcsMaSIiTTGkiYg0ZeUyQ5qISEMFBQVmNo+Ojsamp6eNDw77+vrU7Nx17foE1t57lxqj5cafB0l8Hizc1q1bcdddd8Fx/fr1+NkdMqzl/5WemJgwxuV0OU0OMzMzxorysj06u3j5OtY9eK8ao+XGnwdJfB7MZvVc2Hsy5CCr58LCQhQVFRnD6tWr8f8BjPekaFg3FWAAAAAASUVORK5CYII=;" parent="1" vertex="1">
          <mxGeometry x="-277" y="276.5" width="315.63" height="327" as="geometry" />
        </mxCell>
        <mxCell id="l3NvyupB7OAECGm_iiC_-36" value="" style="edgeStyle=orthogonalEdgeStyle;rounded=0;orthogonalLoop=1;jettySize=auto;html=1;" parent="1" source="l3NvyupB7OAECGm_iiC_-32" target="l3NvyupB7OAECGm_iiC_-20" edge="1">
          <mxGeometry relative="1" as="geometry" />
        </mxCell>
        <mxCell id="l3NvyupB7OAECGm_iiC_-32" value="if single PDF binder option, according to the parameter setting, convert to PDF/A document" style="html=1;align=center;verticalAlign=top;rounded=1;absoluteArcSize=1;arcSize=10;dashed=0;whiteSpace=wrap;fillColor=#fff2cc;strokeColor=#d6b656;" parent="1" vertex="1">
          <mxGeometry x="408.5" y="630" width="223" height="51" as="geometry" />
        </mxCell>
        <mxCell id="rvW21gwUeiw7CncaJtD2-9" style="rounded=0;orthogonalLoop=1;jettySize=auto;html=1;dashed=1;" edge="1" parent="1">
          <mxGeometry relative="1" as="geometry">
            <mxPoint x="73" y="117" as="sourcePoint" />
            <mxPoint x="191" y="351" as="targetPoint" />
          </mxGeometry>
        </mxCell>
        <mxCell id="GQNedHkyEhU4Sw4DNVmA-1" value="" style="shape=image;verticalLabelPosition=bottom;labelBackgroundColor=default;verticalAlign=top;aspect=fixed;imageAspect=0;image=data:image/png,iVBORw0KGgoAAAANSUhEUgAAAR0AAACICAYAAADatj8/AAAAAXNSR0IArs4c6QAAAARnQU1BAACxjwv8YQUAAAAJcEhZcwAADsMAAA7DAcdvqGQAABQmSURBVHhe7Z0xkiS1EoaHdxcIYh2c5RKshwfucgIwMAnMNZYTLO4SgYFDLJcAB2cNOMx79fWbf/knV6qWqntqppv/i1BUSkqlUqoqtap7KueDn3/++b83IYSwEx/8d+FWDiGEe+c/t8cQQtiFLDohhF3JohNC2JUsOiGEXcmiE0LYlSw6IYRdmVp0fvvtt5sPPvjgXfr7778P5cin4vZGcD+8bS3/6quvDuWi1v/www+3Nf9QdRi3yrdAu5mxhXDNDC863DTPnj27+euvv2740x7Shx9+eKh7qD/1kS9v3ry5+eijj25L/ykn/fnnn+8tPF7/9ddf35beRTocGTeQDyGcxvTjlRYaxz/Jkdk9cJTseDnH3g5AenXBaPHZZ5/dSu/z+++/3/z4448n7TSeP39+OLq/PgbJjspb/rfqlP/0009vS0K4ToYXHRably9fHm4OPW70ePv27WFXwA7km2++uS29OdxU2Di2Y0CPtuixUzm2YHDDP3369Db3PtS5DXZFuvF7Y5EOx1evXt2W3mVknJ9//vlt6f9ZG9uTJ08Oi2QIV81y8U9Ds+VGvs39P788hrwnw5Y6ZE/LTXood6qOQPY+AF9lo1VfcR2Osu/l1c5MnacZv0K4Bjb9erW0OxyP7XhOYbkBD/2Qeo9PrtODncQff/yx+gi2Bjs8dkrnHOvI2EK4VjYtOlvh5v31118P8tpN7HqnwuMRjzpb2bJorY3znGML4SJZPm2HYOuPutLz589vaw7bjKFHC7dB+1471yO1cH3H25Hqo1mvnVNttHx0GTzPUW3rOL2OJFwnhGvmwUJb8OXvTz/9lC9OQ/iXseuiw0Ljv/Isn+zNn+BDCNdLgniFEHZl1y+SQwghi04IYVey6IQQdiWLTghhV7LohBB2JYtOCGFXsuiEEHYli04IYVemFh1eXlQcGpJiwSCfitsbwf3wtrWc+DVOra/Bt6Dq6KVN5C3QbmZsFdoquJf7RZp5+/1UP6Bno1V+jv72ZKu/a3PiSdcaskCe7ZNr4ZLm9T34i+QR9KLifb2UOGvb9XmpU0Opdp4+fdp9ObWH63CU7a2M9LkG/p8j7s6pfkDPRqv8HP3tyVZ/Z+aksqVPrgW/pi+N6cerhCudG2fL/1ad8q1wpUQYPPaOmtpzxBfJtX/CalBOqrskldc2vfIZaD87Xyoj+fkj37LF3GlMHH0upVvtk0cPGQiF4r612kGvfATazVz3PlbgeueauFhuF58hXr58eViZ18JFIGsV9h0IUI4NkC1vJ9k/2dmptD4JXB9b6IGXC+p8p+CpjgWqjkB2f0fGqbpjY0NHbSpuG9mTQKY99pDpQ7JAXvO55dfaWJxWuZcd61t1ovar8ws9W+ir3Nsjt8ZGO+kAeR9Dr53bVv917EC5J9lyfZfX/Kx4u0vj/dEMwIDrRdCaRNhSh+xJJ8KpOgLZ+wB8bZ3wHq7DUfa9vNqZqfN0zC/KenPtePmIDLXOU8+vmhetci9bs3OsLYzYImmu6k3raXRs3oZ0jjkBL6+yJ/XHWFiQHB/fpbHp16ul3eE48yXmLMuEHvoh9R6fXKcH29iEKx3jsfo1ih5Bda78kXTr2Paek1Z/fEVA0H49Xl06u/5kzs2bcKVzY+PGof9zob75ngBfdGP2/Fobi7N8Et+8ePHiNve+/TVafWPP+x219cknn9z88ssvN1988cVtyfyci147L1+bk1nW/OT/s1Gv74LOeU3szrKiDrGswHe2fr7dI099lcHzboP2vXauR2rh+o63I2mLKnrtnGqj5aPL4HmOalvH6XUk4TqV5WJ7V+dtSfpuwduvyfLHywFZ5STh5XUsFfyULsmp7Vp5Ur2ulI61VZ7zXeuRZYckqp7GpznttfPytTkZKXfZ7ZKE8nVuLpWEK70A+CWD/591iY884fywu2I31/t/bI+dhCu9ANhS8+hyqRdZOC/8xP/69euLvXcSrjSEsCt59yqEsCtZdEIIu5JFJ4SwK1l0Qgi7kkUnhLArWXRCCLuSRSeEsCtZdEIIuzK16NTgQkJBhnqBiRzXq21G36Id7Uug78n799QL1KTEOCtVRy8AIm+BdjNjq9BWwavwxX3zcZ/SR4tz2OzZkP9KOg/IAnmmf/Rb5/sc8+J+bYHzd+7z86jgL5JHQb3VRC/6tV5uq7jeaJvKbDvX1wuBUO0wjvpS3bF+XIejbG9lpM818J8xypeWrVP7aHEOm6f4O9s/+v4iLZxjDOeA8+fX4bUx/Xi1TMadT3w+TT2MANRPjNYniD4NPDyk6yFrB0VaCyEgndYurLL20uQ1hjat7+fQFnzeFa6T5L4p36oDlVe/1+xVv3s2RqBd71yN2P3+++9vvvzyy9vcXY6NQeWSvR/ys+deOrTjGr3ocKTHuF18hkCdTwI+IQQrMmWqA5ehV3dMT6u9707A9dChHuonl3B9whbIfy8X1Mke9Z5U7lQdgTwyFsp7oS97Y0NHbSpuGx3y1W/vo+Ltkbf47VR77veMDU8aj+u73Js3R/qu6zYcygUyPqOHTFvJwu0gj8whx9qu5cs18M8MDKCJ0ImS7HVVhl7dqB6s2fCkC8ipOgLZ+4C66NT6iutwlH0vr3Zm6jwd84syLagO+l5e2+tmUPL+XW+0bos9qHkxUl5lT71rQvqaGy8bGcOsDKN1vcXyGtj069W33357iOdBlDPivDw0y8nhTj+k3uOT6/Rga3uNoU015pZflH333XdH52aUc9vbysy88fWAP/Y8ljFcK5sWHW4unjnfvn3bPKHceHqmPeUGVOhGLghstuKHUN4L8TjLvzW0KSE+YeZcrfk9am/NxinMzhuhQInzRDuxZU5mWRv/RYcjPcaykg+DurZ8bD/1PAq1jjyJxy+vc1l1slP1VO/l4HmO0iG1qO2FtyPVbXivnVNtSL8ng+c5qm2dK68jCdepLBfyoa621WMwtOZdOhxl22XwvNtvteuVu701G85Iuctul9TC9UHXrNsjrY1hVgbPcyRPavVzrTzaIF58k7+cgObuJvThV5SENr082M0rfC+7nksOR3qM/EXylaHv28LjRz+Tk3i8IwQp8H0S5/FaSbjSEMKuZKcTQtiVLDohhF3JohNC2JUsOiGEXcmiE0LYlSw6IYRdyaITQtiVLDohhF2ZWnT4y8lWUCQPQHQM16ttyI8w2pdA35P376mOrdb7m8ii6ujFPeQt0G5mbBXaKkhWy9ao/a3+n0LPN8o96TwgC+SZeUO/db5nbPRwv7bA+TuHH4+V6Z0OkfUqvDNyDu7zj6N5jwv7b968ObxNLlRO4s35eiF6PW8jt5AOx2fPnh3KyD8EL168OETEO5WH8r9H6zyc6iPn+z5u7lP94vxxHq+V6UXnecKVrsL8AP70xuLzBypv+d+qU97DfooarnQN7PT8Io//9KG55+h9qt2ab25fUKeyOhcz0L53rmS/Naci4UofiGVVHgb15RPnThQ6XsmnTHXgMvTqjulhGxR2QLgeOgpJobAOFdcnnIP893JBnexR70nlTtURyCNjoVwhJlR3bGzoeFgRx227LeFlyMfmmH6k476O+uY2W7T6rFDuSf26vss93xzpu67bcCgXyIwPPWTaShZuB1nzh67r+XxyrO1avlwD61dEQROhEyXZ66oMvbpRPViz4UkXkFN1BLL3AXXRqfUV1+Eo+15e7czUeTrmF2X4L1p6XlbrW3Uk2ayLi6eeb7TRNSLQ9ba1z8pIeZU99a4J6Wt8Xjbi46wMo3U+19fGpl+vEq60DY81y8Wy+ig4y8jY7hM9qmlM/ug24huPrE+ePDk8OgB29ggFOjNvCVe6L5sWHS68hCt9ny2Llvtf52p2bMyPh7lcdhh3vpBcm8c1CN3Jh4x/dzfjG1/8oq9r4r5Dgc7OW8KV7syykg+D+vIJcpDZftZnd68jT2Jr7XUuq052qp7qvRw8z1E6pBa1vfB2pLoN77Vzqg3p92TwPEe1rXPldSThOpXlQr5TR75lA6odz7us8+m6yJQpiaqnesYmvMz1XXZGyl3mSF6phetDHaParvk4K4PnOZIntfq5VhKu9MrgV5SEK7082IUmXGm4SBKu9HLQz+SkhCsNIYR7IjudEMKuZNEJIexKFp0Qwq5k0Qkh7EoWnRDCrmTRCSHsShadEMKuZNEJIezK1KLDX062giLpLyv1Qt8arlfbkB9htC+Bvifv31MdW61nnJWqoxf3kLdAu5mxVWirAFruF+nYy4un9i2w05rLc9iGc9jCxjm5zzGf6ivXw7nm/hxM73QSrvR9pMPxsYUrbfm2B/cVCvRc3Mf5ua8xn+rrYwt/Or3oPE+40lWYH8Cf3ljqjknlLf9bdcprR+Nw4fdekpVvrVCcyODnA6Tn/ftYeqyFAqVd7/pQXxzpR7L3D4SEoJxUrw2VexvlfRc4e36k07s+Ev50kGUVHQb15RPzXaQ14JV8ylQHLkOv7pgetkFhB4TroaOQFDWsg3B9wmjIfy8X1Mke9Z5U7lQdgTwyFsoV2kN1x8aGjocVcdw2sqcWVd/nY63/NWTH27vt2k+tY2zkkWkvWSCvzefInJH3ujV7asfR2zkq743ZcfvII+OVHeQtvrr80Pzj8QByXBMr2euqDL26UT1Ys+FJJ9ypOgLZ+4C66NT6iutwlH0vr3Zm6jwd84sy/Beux5E86GJV8v7cruuQ1D996Ly3cDvyx8tchl7diAy1zlNvzjy/tc7x8taYR+Z8VobROnzyuodk069XCVfahsea5eQe/cJ2hpGxjSDf2LbPhOJs9V9DkK5RQ4HuwbnmbCsJf7rOpkWHC5hnxIQrvcuWRcv9r3M1OzbmpxfmUr7xITEainOt/xqCtEcrFKi323p99K6NNZ+34PZGfU340yMsK+8wqC+fIgeZ7aKeH6HWkSexDfc6l1UnO1VP9V4OnucoHVKL2l54O5K24qLXzqk2pN+TwfMc1bbOldeRhOtUlgvvXZ239TbK1/7q+Vjrn4R+C+rcP10PKhu9PtZktfNyQFY5SVQ9z6/Vub3qq1PL65h7Nk6RwfMcyZNa/TwWHo8nBZ+wMA4XW108w3lgMWZRvwTcV64HrovHQhadK4M5e0wX2KXDzcu1qPSYr8mer777fQwkXGkIYVc2fZEcQghbyaITQtiVLDohhF3JohNC2JUsOiGEXcmiE0LYlSw6IYRdyaITQtiVqUWHt4o9uJDwgEHHcL3aZuStZRjtS6Dvyfv3VMdW61tvS1cdvWiHvAXazYytQlsPVLWFU304BnNEH0p+Ps7d7zls9mzIfyVdH8gCeaZ/9FvX4Tnmxf3aAtfVOfyY3ukkXOn7SIfjYwtX+tjgomWOfF5b0QMuhdb1ceq5v/awp9OLzvOEK12F+QH86Y3F5w9U3vK/Vae8djROL1wpbc7lA0e159hqc4zqI/bBr4e1EJ/kW3Wg8urXsZChPp89GyPQrncNjdi9+rCny+o3DOrLyn7nTVteLqRMdeAy9OqO6enFRYUJEK6Hjt6q7r3Y5vr+9q2XC+pkj3pPKneqjkAeGQvl+ASqOzY2dNSm4rarfG4f/DiDXkyUXeH9Vrwf5C1jcao9n88ZG540Htd3uTeXjvRd1204lAtkfEYPmbaShdtBHplDjrVdy5cZ/ulpAHWoCZHsdVWGXt2oHqzZ8KQT5VQdgex9QF10an3FdTjKvpdXOzN1no75RRn+C/REbeP5Y3We5IMuRl2cW6B99df9oC/163VVb7Ruiz2oeTFSXmVPmkvH9TU3XjYyhlkZRut6i+UMm369SrjSNjwyLCdl9VFwlpGx3TctHz7++OM7R4d51PZ87TFC56I1X5SdM8Tnue1tZeZ8XmvY002LDjdXwpW+z5ZFy/2vczU7NuZnS1jKLT7wZTAXfut/aeGHboxXr17dls6zJcTn2li2hGmd6fsYs+fzasOeLhfGMKgvK/VBZpvnW+taR57E45fXuaw62al6qvdy8DxH6ZBa1PbC25HqdrfXzqk2pN+TwfMc1bbOldeRhOtUlgvmXd1aG897PyM+oKNzxpH8KNWet1Xffj1Ih6N8chk87/Zb7Xrlbm/NhjNS7rLbJbVwfdC95PZIa2OYlcHzHMmTWv2cyqMN4sXWfBloc3cT+vA4wyPvQz2KheuCpwz+JIZfdtn18LXKKbtX2PR4FR4v+r4thK3oZ3ISj3evX78+lPN9EtfXqSRcaQhhV7LTCSHsShadEMKuZNEJIexKFp0Qwq5k0Qkh7EoWnRDCrmTRCSHsShadEMKuZNEJIezK9KLD+xf6E2mSv3p/33i/JL3Jfl/U/vTGLfIWaHffPofw2JladLjpFNJAqRc3+L7gJVD6fVNiHd8X6o/jQ8c/DuEamFp0eOGLm6+H7wr0iU5MV+0QOB6LQ6u867Xwt6h7cWPByzn6TkN1a4GmnOcPHP84hGtgeNHRTdYLNcGN8vLly3e7EAWWJvqZ3nrmqCDu6KOHfo1+/+TJk8Or9Gtwcyu4EbrYIfFWrHCfKmv9O+ymWAg49l7pJ5gZdrDX679GWDx1/CFcLMtFP8Syw7kTz7aCKXSE8t6uBpjytNyA78rdjlPbCNp6uffhtmqdJ/XvuD5H8uDlLsNMnaeR8YdwDQzvdBQKs7cj6KGdkR6xfKe03FyHT3rSaNApbwPY3Ro3dqZ//GZnpXGcgy3jD+HSmfpOh0eF+v949B0G33d4XFVuUC0wxHX1RyugfiZe7Bq9uLHex1rdCCy2Dxn/OISrYfmUnYL4tTRTcrzcHxH0+ONlyK4vqp7Tq5ONGs/V+1irI7XwepLa9mTwvPcx2r/rhHCN/GsiB7IjU6zXEMLDcdWLDguN/5q07CDufKcUQtifxEgOIezK1BfJIYRwKll0Qgg7cnPzPzZi0ByDy9yQAAAAAElFTkSuQmCC;" parent="1" vertex="1">
          <mxGeometry x="-200" y="39.54" width="265" height="126.46" as="geometry" />
        </mxCell>
        <mxCell id="GQNedHkyEhU4Sw4DNVmA-4" style="rounded=0;orthogonalLoop=1;jettySize=auto;html=1;dashed=1;exitX=1;exitY=0.5;exitDx=0;exitDy=0;entryX=0.25;entryY=0;entryDx=0;entryDy=0;" parent="1" source="GQNedHkyEhU4Sw4DNVmA-3" target="l3NvyupB7OAECGm_iiC_-17" edge="1">
          <mxGeometry relative="1" as="geometry" />
        </mxCell>
        <mxCell id="GQNedHkyEhU4Sw4DNVmA-3" value="" style="shape=image;verticalLabelPosition=bottom;labelBackgroundColor=default;verticalAlign=top;aspect=fixed;imageAspect=0;image=data:image/png,iVBORw0KGgoAAAANSUhEUgAAAPYAAABnCAYAAAAzKL8uAAAAAXNSR0IArs4c6QAAAARnQU1BAACxjwv8YQUAAAAJcEhZcwAADsMAAA7DAcdvqGQAABecSURBVHhe7Z17bFVVvsd/hwK1BcrD8hCQFhpDcToDTtExOlfahGibqpE7cH3dGCeUispNbq5tEP8ZTQymARP/MA7UEpnxauJNc70RSyvp3BZHuUraEccqVQZoRcqrCBYKllfv+v72Wvvss9nnlJa2Z599fh+y2M9zes7q+q7fY621G+pTkCAIgWKU3gqCECBE2IIQQKK64qtWrdJ7giD4lTfffFPvRRJT2NFeJAhC/ImlUXHFBSGAiLAFIYCIsAUhgIiwBSGAiLAFIYCIsAUhgIiwBSGAiLAFIYCIsAUhgIiwBSGAiLAFIYCIsAUhgMRlEciqmu/1XiRt3x2gTz75RB9FJy0tjc6fP6+PiKZNm0b33nsv3XDDDfpMbN785xl6TxASl1gajYuwn3zvEI0ZM4b3L168aO+3tbWxsG+55RaaO3cupZ87x+fdXJw4kcb89JM+so7N+2RkZNC4ceP0FQvnzwBBEPaBAweoqqpKH0WnrKyM5s2bp4+EIOG71V0Q5c8//0zU1WUJVG1RMtW1TPVvekpKVFEDp6jB6dOnqbf3AosXIu7p6eHCP0NhzgeJQ4cO0VtvvUUrlGijlbvvvpu+/vpr2rlzJ3V3d+tXCl6EQi1cgkJcLPay9U16rx+U3sNEHFBmWjp1nbfEjyuZmapbUGX06NF06dIlOnjwII0fP54tv9tFT0SLfXrv/9GXxy/Qwmlj+Xj/X7+ilpYWys/P5+MI0D716d2XL9Mdd9xh7e/eTU8//TTvC2EWL26hlSt38/6ePVZdAVW99ravz6Oe44zvXPFVSthdsNIesEitXRvcy8I16Nead8A2NzeXhY37YK0Rg8O1x/HNN98c4Z4npCuu3G4I2Yk5QpOLELm+D//nK1dcXeDwZt++ffTSSy/RG2+8QbNnz+Z7kh1Y6TfesETtrJMff+xWXmAPXVYdo2HPnhRVtVYdm19FPAXvO1ecehxuthapsbhGvjiGVebiOjaM6erVexbG3R47dixbboj9zJkzwXBDDx2xthDwtJm8iyZVhn3VyCBqFjZanGl1mrNnz3LuYc6cOfTcc8/RhQsX9BUB/R6AqFFHKGDKlAy66aab+Hx6egalqPBw0aLL9Lvf7eCyfr1VnnqqigusPopfiO9wlzG5BocVh5XuOqSz5xC9Aq43n3O9zmHLGcTUsNAQN1zxyZMn6ysJjkuwsNItxzuxZ51Q5CvvBBb625Yf9RkLeC8nT55k7+XUqVNWZ3cpMleRbECIixbtZtEaQUcjNXUc33fjjTfSpEmTuIDs7JNcjOD9QpzHsd3KVjjFrbdOMuFSQ8n6Plhtcx8sNncIqvzkSLDBYgUtecaWW23YUhuzo6g6dEj9bwn9iO4IIOLPP29hV/yjjz6izs5OKi0tpW11H9MPP/zA9yQjcHAALLOT1tbWiAKXHKU/2ttv1HvxJ37CdgiYgXvuOMdut7bU5jyLVsXP1rF17Sc6w1tjtk+dOm0XNOhz586xqPfv35/Q4oZlhkxRquq2hfdV7I3yod7i7Ifqwj46SLDlZ+fPp5kzZyqrMpu3Jo5Eg4WVOnbsGIsbmfNkwlhr44Ib2tt/oLy8PFq3bh09++yztGzZMlv4iLfh9WAUxgsTf/uBOFtsYCnSZLgNdsYb7je2Rty6/ESR8XXG6Cnsgo8fP065TWN5iyEwFAgarmgix5b5mzdTWXOzXea/+ipVKYtchvOq/AHneb+Z/qC296uyGffNn8ZhCVxwg2nI6PiQVINH8+677wYjF3ENIGGWn9/i6YJ3dn5PS5YsoRMnTqi208uuN44feeQRevzxx1nsEL5b3PAQ/6NlBVWFFtNLoZf02fgRF2HbYuXSRW1KtFzUMQpE/L0Sojl/Th9jy0XdA0uN4uwOMCMN4k5PtxJsELcROIbAggYsdpsS7Yk5c+wtOP1Pv+Tt0Vnp6ntP4GE/A6w2jlFHF88f4IaNc5jI8s477+i7gg1ccMTFbhccHRsstBsIHAXXsUXG3IvHNk/hZNxNtE2fiR9xEfbFnBzKzM21C7LXKHC92d1W98z57W/t89iPLLmUru6dg+v6votjrOEsJMxQIHADLLhz2CJIQKTI/MOy8AiAssAY7zZAuKmpqbyPJCKsMyw4Rg6yTqexG47GOn36dB7vhqUKMrDWSHKhvtzWGscITZCDQJ1EA1bdCaz1vFOn9BE63Pi75HERNnrKiUrcphiBm+w3thkzpnAZlzWDtzzcZRerEzBb3HPlyhV2rdwYC+51LShApAB1gQY5/ttvObY+/MFf+TyEbe6BgDHODzrV7+Evf9lJ27fv4C0adHV1Ncfb7jHzoBAtYQZgkVGQZER9fPbZZ/TNN99wXA0Qj5t9N3Dt8eaotaQVNoDgxqT0RVjWlJTRbK3REHtT0ujKDRmqoaoKvzSKflaWqUe52tgC3HdhxhU+Hj06PPnEKWDne8NiQ/xBA3XlzB18/71lTZboevriiy/oyuGvabayRFN6j/E5A1zwvLxcLhi3BQ0NDSx+JOKCllCLZa3d+QXUB1zub1Un+fHHH1NNTQ396U/v8L4XtpS5Q0xiYXOGepRlRdzZamNdMNcb00En6kUe49LGsHAvjLYE2n30R+rrs+aD4z4IedSoUXyPcT8NOIdrQcTUF8C0UQyB7VQuN4DF+a/XttIf1XlMQ+1RDROuOPIR2KIANHTT2E3M7YzNg0BZmeWFeMXWbkwcjfFrgPZz7ly3Z0iHeQEtT7WoYi3K8YOvE1eLbTD7ly9bCS5jgXAeFYmC/YuXQ7zPgla97om+PkrpDVsrp7V2gpgbBNFiw/VGJzZVWWpY5ztUHZxOt+aUQ+BPq7j5X/79ST4PMHd869atPOUWwjWdAvZRIHS4omZSj1ejT0QwvIWEmdNaG9c7Fv2NXyO+hgPeslkJWhnqKirzxbxy35owWNdocTMSbAumTqWpquw/ctLuRbF1WmYjaGTEsR9Ei41GOqbrH2yhYZ3nLFtGf/yfJvoxdTqfg/U4GppMO1RsOO6ee+jWW2+lFStWsMXGayFsuN4GeD6ItTGRpbW1zTNLnIhwDKyAte5P0MZaO0Vt2ph7mAvWGp4AsuH54XlCcceXLR2NzQjavR31czcniQD+nxoKceX29YSzkl6dAcQdVIv9v1/t5oTZowWL+BziQizXxNg0xNnY2MjWHPHhrl27WLgGE7IYlxyYiSyIM7/77jt9NnFxWutYQNBeQ1lG1FExBlr1HX5InAFfCtu44rCwqFQTR0O8B1ojGxoy5sePH2fLfba9nQuEjmEdM3ZtLHcQwRDXmfOqi1Nu96hZv+DkGcT64Ycfsiu+a9fHbGVuu+02znS3q/rBEBdccXQKcOG9cMbciYyZjAK8MuEGp6CdU0idovaacWbe2+CX2We+9k2N5Q2FbuAKRmwNjMWGS45zs1RDTku9bI2Bq4JfAB7GgGmlIIiTUwx4OsqyZQ/wyi0IFdb4rrvu4RgZT1nJzs5mMaOYuBmrlVBHGNqqqmqhY9u320k1g4m5Ex0Ib/LkA7yPabRHjuhVchq3lfZyv4GXqK34WgNrrUTtl3XbvhW2sdIGuOBIlmHcG1lxDHeZce7xqvFOv2k2zVq4kK/DPQeXLl3kueJ46AIafRDBkBQK4muMu6KRwoVesOCXXLAKCUJftGgRZWVlsdCR3cX53//+IRUXWg0RdgeTM9D4nTG3M+OeiEDY8OCMG47ODt7Mp59+yt8VdeFFf6IGeF9M6616CqJG8U+Q7Vthw0oDCBoFlhmCnTQpjce1kfzBODeA2w3gunP2fOJEnuQCC4TjRG+csSgoKKAHH3zQ3j755L/yyi1sUV588UXePvPMM1xeeOEF3oKUlEy28EiqzZ8/n88Zd9VpvYMAkoAoxcXF9Nhjj3GnBzo6OjhcQcGMMkxAcYq6P6pmEj2lymLlCFTJIpD+gRvOglYiNi44LDQmo8ACm4kYPT3WY5CuXLGeawb3++zZHo6rzZxxPMXUPa6d6GBhAh5+41WQc/jggw+oubmZ3e3mzZv5HJ6csn79etq69T/pHiVmzDiDa4qkGrLEsPoQNDpKMzstCA9lgLeGCSbwSLAYBuU3v8lnoWOEAEK///777TXWe/bs4QLRR7PWvCxY6bjs/nwu1OkfNxz4UtiwsOg1T55XPaeKmc+OvcRWeKwSORoaGiEaH8rhw4f5Nehpjx49yu736dOn6MSJLhY5GjQEj/cL4nBXLGCN4ZpjCMy53BBxJNxIgCw5JmG8/fbb3PghaAjdZM4T3duBe4xOHULFKMF7773Hs+sgcoCwI0eFb0gu3nfffSx2TM6B0BG6AIwymDwFC1rB9YfEmX+0HIEvWzrEi1lnbIFTRlNqGp5akcbXcA7WGA0OCxZwL3pkVDQyxGYuL8R97NhRTqYhzk42kNF+4IEHOLGG+sEQlrFIpo7ges6YMYP27v2KE2vLly/n83DLYckxVGbCnESluTmfqqrKWOBIbkGYGB2oq6uj999/n7Zt28ZDgRD6hAkTOBZHIvLOO+/k+nv44Yfp+eefZ6uOUQbMgoTQDfnqH+fFfeSGA18JG3PFAUSLiRJwpSdPnsTxNGLuM6rnNRMLIGg0OvS4JjFmLD2yuRAzzqOB4329xraDDB4YYNYUo64wm8xYJBRYpLvuuosfUYx4Ewk2ZMvhisNVRSPGHPJEt9gALjIE3txcRpWVK1jkDQ3zVB3dyO42Emk7duzgsAXhCUIS1BvG8jHqgE4RFh31hvzFyy+/rHRcZQka+GR+uJP4PKX0v4/qvUjMHwy4/fbbaeHChURXLtjTSAHEiSehAHxspzVBA0QDBvilwP3CFr1wevo4+vLLPZw4QcMN+l8CCYVChLwCwpDBgDjcgLgczzAPKtY4N/ZaaOlSa1gMVhnAesN7QUfn/qMLi6sWU8sRW9pELzaPeIztv8cPRxH2vn3/oJ07m2xhw+02QNwomFgBC45r0aYFwlob64/557D8WBwBiwWhJ9uf+IHQ4YJiWAweDKaVIvmIFVxwwWG1MQQEq43sMIbGPv/8c+4ct2/fHmhhuzFCN+PfRuQIY2DB8cQZCB5Di5jo88wzd3Cs3ae8gZEm4YSNSoQYzRxvYPadk03MsZkqiuSYe9+8Dkmhhx56KCksthsI2/ya0RnCk0GcjQccYhwX7qiJHRFzm8QaBA7rnUzCduK05thiWiqAsJFw3LWrhzZvjt/YdcIJuz9gsZ1/lA94nXPz6KOPJq2wMfxlJq9gi8w4GqfZIpGGDtVkzmHhIfbXXnvNziAnO25r3tCwgmP3eJEwwoZ7bf7elhmagtV17gOva27clhtbiBoko7D7I1ZMHqWJJDUQOYjn2HUsjfoqK45ZYoiBUSBCFPd+tGvu4rzXbJMVCLO/AqvsdR5FuBoI2k8TUtzExWILgnD9JIzFFgRhaBBhC0IAuS5XPLQOj/dPHvpeydV7ghB/xBUXhCRDhC0IAUSELQgBRIQtCAFEhC0IAWRIhV1UNI8zx1aZR9UzcTaDGl+ZReV8x2AY6Otxv/kMKOa17vOqPOF8vG6018WDJqoIhah4S4c+DtOxpZhCoQp1RyzwenNPB20pLqbwWzmvxeJa7xt5rDoI2aVixD6k9XsJ/2x/1g8YOmHPzKRNv+im4nVtPAwWWneASvnpOt1UuO4wbeSbRoozVKE/R/HOVNpgCzh8PrTuIG2ZOtMlbuf1kf7MV1Nf+rqr4XRQQ0293h8sBbShb4P6PzFpqghRdtvaiCmvG0b0y5RTo/657dWtVDhyvcqAGDphz0gl6wlRbhwWV4m//blMKrcte9gqOq194xOzqE/dV6SvRfBrdc1Y1QhRelP/927qmDrW4716qfTVTmpakKk9C79RTtWq4dQ6203T61SzvDrsSXRsoeLiLUru5rDYZeVhrbOptL6eSrONB+CwxPr1TbYFdFp2F00VYUsVr8asPm9lazW1R1Oy8zNG9VhwrK95fSddJ1tUBxJy1K0XWUuXU1HrfnVPpCV3/g6c3kVFhfp5zvccxjodOmH/7TBVnMikOtsFj0JmJq2hw2wVK/ZOoDVFqZa1X9JrW8tamqBvdoGOobDX9goqaCY1/lpfi0LRrzIo68QF8rZz3VS7dyzl2Iu9JtCGAXQaw02OajitleGG0FTbSsuX5uijayGLVta1U3VREVW391HdSo+ut76UKmmTZf0a86h0tUdjRmOvzKV2bakaqXAE3d8wHQ01pCrA24DgMxaShzXNIlWNVNOgv1VHA9XklVBBrO+k6qStRJ2vWxnFWFng89Tn5ah74AVZ79PXXk1kPC31M1aX5tmfqcTpAw5znQ5pjL3xzxBcF+X8mxJGNIvb1UWr661nlG1sPUNZ01JZfLSzy/7aOO8Fi1R1DHVafBsWEM1Vr7+asEDrEB782ftJK1fjcMWv+TXDSNZKWptXQ9wmVUOopLXkpc3roqiaNpk3LSih8vo2Omgd2XADVo09W1uXQvWLat1/lfzjCou+eo0dYmStXEvlG2tZYNjPq2ngDgv35ZUUxP5Oqk7WRHXvN1Khfk12zXLbe7Atc3apbUTcn6mgJJy1Ge46HVJhWyCmVtZUWe+1/VjTwdCx86AlPF2ydScRiUOgr3ZFsdYgg0oWnKHav+lDH1JQoqzo603KCy/lBhkviqrbLYuki6f1H2aycvKoXgt0YBRQCXeQHdTQttwW7eC+UzjGti26cqnDcX9jOFTqh+Gs02EQ9sCpP95LWUtU7K2Py/O8XXHEy+S47/pIpernZtJch6fgSwrWUHVrIRWq2NLTitRri66a+6ASa8pqqH6D6dhSSRuLcmmudWiDWNJ2L+MJ6oKUlXP6rEpUOHR/Rv4u5crl1sfoIGtef53aci1Xfii/U8f+VirK1bXWVGu3J+6IHD+jqTbc0oa7TodO2M6kFtxk6qTCa7WEiM9VvG3c5xJlcckrLu5Ubjyy3PbPGeiQlCOGfmUu5TRGs/h+QsXJa8upyCu2hKtebiXGQqHV1JbnFfxYMWY4eeZCuZ25tdq1RDzoFVeqn7MJMat2G+M3zKNzBqqjsz6HKrUlVlZcfca6RvJ0kxkVZuRtbKXcpfrbDeF3Yle/NFt/Hth0TcEGaiwPu+61uMIxuWKY69SXq7vKn8ilNccP+k506BACBRI4q4k29ZMkEoYGDNVV5rYPmcvt/9VdyHbbltSy9v63pILQD+g4bYscokJqHLHchD+ErVzsbJPsQvFDRjoZgPsq1nr4QP06kmN9IziTxh/CFgRhSBFhC0IAEWELQgCJk7BdK6nsWWqOeeXXip5/7jnLzfdEWy3kPq9KxHzD/lYZua7b85NxfoDDKkgA9TNn2r8kbz3E0WKHZ4dhltomzBmPy0qweBNttZBjhlOfHruNELfzutdqrfD1xrxSWs1j2Im9smtwJGc9+MAVT6XcqReo4e8Y3hrESrBf6ZMGr9Vf+r2qn3B6B/4jvFrIDSZmNFL5xsroq6+i0kH7W4toOU/McFgqbYHCK7vCFixiRVKDPmm4zhVR8SO56iGOwjazwObSyhNdeu22i2tZCTYtMzxcAwFHW/2l3iunVZ2POXc8vvDCADMz6SoKqKS8ntrsFRrhGU3eS/7M9WwqzYuyeKQ+vLILM6Qq0WuoxhmxIqktvKiBG+51rogaeZKzHnzhihcfz/ReJjnAlWAxV3+p96r05WIP79VC/eNwxT1fE77enlvpLX7Hyi6sPKpXvcagVyTFXBEVT5KzHnzgiqtOLurDEAbOta3+8hMOgcbs5ZuodmM5DWaBV3QXf+D4YZXXYEmmevCFsGM/DCGSWCvBhnb1l5/AUz8KqdVhQQZCbBc/kniuSBpukqkefBBjD/BhCF4rwQzXvfrLTzhiaBUftq0dqFUYpIvvtSLJMMwrkoaH5KwH+dtdAwCdhSD4BfnbXYKQZIiwBSGAiLAFIYCIsAUhgIiwBSGAXFdWXBCE+CFZcUFIMkTYghBARNiCEEBE2IIQQETYghBARNiCEEBE2IIQQETYghBARNiCEEBE2IIQQETYghBAYs4VFwTB30SbKx5V2IIgJC7iigtCABFhC0IAEWELQuAg+n/kehfeDe/WvAAAAABJRU5ErkJggg==;" parent="1" vertex="1">
          <mxGeometry x="-130" y="177.55" width="155" height="64.9" as="geometry" />
        </mxCell>
        <mxCell id="GQNedHkyEhU4Sw4DNVmA-17" style="rounded=0;orthogonalLoop=1;jettySize=auto;html=1;dashed=1;" parent="1" source="GQNedHkyEhU4Sw4DNVmA-14" target="l3NvyupB7OAECGm_iiC_-11" edge="1">
          <mxGeometry relative="1" as="geometry" />
        </mxCell>
        <mxCell id="GQNedHkyEhU4Sw4DNVmA-14" value="gather location info of each toc item in word document" style="shape=document;whiteSpace=wrap;html=1;boundedLbl=1;verticalAlign=top;fillColor=#e1d5e7;strokeColor=#9673a6;rounded=1;arcSize=10;dashed=0;" parent="1" vertex="1">
          <mxGeometry x="713" y="432" width="100" height="77" as="geometry" />
        </mxCell>
        <mxCell id="rvW21gwUeiw7CncaJtD2-2" value="&lt;h1 style=&quot;border-color: var(--border-color); text-align: left;&quot;&gt;&lt;font style=&quot;font-size: 14px;&quot;&gt;TOC Templates&lt;/font&gt;&lt;/h1&gt;" style="text;html=1;strokeColor=none;fillColor=none;align=center;verticalAlign=middle;whiteSpace=wrap;rounded=0;" vertex="1" parent="1">
          <mxGeometry x="784" y="126" width="113" height="30" as="geometry" />
        </mxCell>
        <mxCell id="rvW21gwUeiw7CncaJtD2-5" value="&lt;div style=&quot;text-align: left;&quot;&gt;&lt;span style=&quot;background-color: initial;&quot;&gt;&amp;lt;Folder level=xx&amp;gt;&lt;/span&gt;&lt;/div&gt;&lt;div style=&quot;text-align: left;&quot;&gt;... ...&lt;/div&gt;&lt;div style=&quot;text-align: left;&quot;&gt;&lt;div style=&quot;border-color: var(--border-color);&quot;&gt;&amp;lt;Document level=xx&amp;gt;&lt;/div&gt;&lt;div style=&quot;border-color: var(--border-color);&quot;&gt;&lt;span style=&quot;border-color: var(--border-color); background-color: initial;&quot;&gt;... ...&lt;/span&gt;&lt;/div&gt;&lt;div style=&quot;border-color: var(--border-color);&quot;&gt;&lt;span style=&quot;border-color: var(--border-color); background-color: initial;&quot;&gt;&amp;lt;/Document&amp;gt;&lt;/span&gt;&lt;/div&gt;&lt;div style=&quot;border-color: var(--border-color);&quot;&gt;&lt;span style=&quot;border-color: var(--border-color); background-color: initial;&quot;&gt;... ...&lt;/span&gt;&lt;/div&gt;&lt;/div&gt;&lt;div style=&quot;text-align: left;&quot;&gt;&lt;span style=&quot;background-color: initial;&quot;&gt;&amp;lt;/Folder&amp;gt;&lt;/span&gt;&lt;/div&gt;&lt;div style=&quot;text-align: left;&quot;&gt;&lt;br&gt;&lt;/div&gt;" style="text;html=1;strokeColor=none;fillColor=none;align=center;verticalAlign=middle;whiteSpace=wrap;rounded=0;" vertex="1" parent="1">
          <mxGeometry x="764" y="169" width="176" height="117" as="geometry" />
        </mxCell>
        <mxCell id="rvW21gwUeiw7CncaJtD2-7" value="" style="shape=image;verticalLabelPosition=bottom;labelBackgroundColor=default;verticalAlign=top;aspect=fixed;imageAspect=0;image=data:image/png,iVBORw0KGgoAAAANSUhEUgAAAvwAAAFhCAYAAAAMSH6PAAAgAElEQVR4nOzdd5AcZ3rn+W+W99Xlq7uqvUPDe0/PIUWN4VCaGc1ImlvNrMxKWq1iQ7cXitvbXc1ody902o1Y6XRamZG0Gs3IjaUfehIgCUf4hmnvTVWXry5v8v5oAASIhiNBNgg+nwgwAlX5Zr6dVWD/8s33fVJRVVVFCCGEEEIIcVfSrHQHhBBCCCGEEB8eCfxCCCGEEELcxSTwCyGEEEIIcReTwC+EEEIIIcRdTAK/EEIIIYQQd7G7LvAXkiMceOvv+N6Z2LLvV7NznDz8Iv98YILibTpmJT3F0YMv86PDU5Ru0z6vLcfcsVd5+wc/YTQlBZaEEEIIIcT16Va6A+8qkZo8w1vfeZ6TqnLVu1Z/M1s/9QX2tJmvu5dCYpA3X/9rDrZt4YtrvFe9X83OcOytZ3myZOCRXa2YbkPPK+kJDu5/jjf1Jh7c3ozxNuzzWlRyzBx+gddfWmTrpkfpaLj5ttnZIxzYd46iZy/3faoD54fXTSGEEEIIcYdY2RH+coaJo2/xN397kgVKpMYO8dqf/CXvTOYpFAvv+VOiWpMR7fenQmz4Td74wZ/wp3/yI374zDCpy95bGNrPvtd/Qv/8h39/QgghhBBCfLRWYIS/THqqnze//RwnNHqqOj8NDRuoX3jX3dTB1t/6Jl9ee61rkRrZ6ACHX/gxByeWLgDc4Q7u/8yX6fNefWegkBzm+P7v8dqpOtiDNIac5N+zv/TcGQ699AxHJlXARqhzGw89vptmC+Tj5zl6/hiT9RZaYicYK2/lwc/tJHzdGw0FoqePsP+pfZxXFRTVT/f6e3no8WYqp44wfC5D4FOfoct9sb9VEhPHODsyh6X3UTa70hw7tJ/n3xpYeruxhy33PsxPdbtu8hxfqZyYZWZ8iLQ2iKPBf9X7ar1KPnKWY+eGeDKupXfLXu55YD2B23H7QwghhBBCrKiPLPCXMtOcfvPbPH+sAMUUSqyBcpuD1s338PMPdWEiw8QN91IjGz3LK0//LT/uz9Ni96IWk5x9c4ihWIjf/o17sV+2dXVxnlMvPcnffO8o+lWr8WrjTA9OMX5iCjaDSo303EleePq7/OR8kbDNA/kMp15/gck8fO0ruzEtnOG1F/6IV5Qn+OVGHWVbjfp1bjSoFIj0v8FLf/M0J5IWLM1mqslh3noyTYwH2Wo6zkvP7cPasJF/8+jS9B81H+H4Kz/hHw/n+cyvb4Bj+/j28ydZtFpoNFdJDO5nMpuET3+RR7svP1qO2XcOsv8nBxhaZhpUePU27nvoEUJ1Hd7ue3mgaw2R8y9y6oqt9Ph7H+BBTyO6119h32yC0X3PMvnWkxSaeth2z33cvy6I4YafjRBCCCGEuBN9NIG/nGHy/AG+9fI57NZ2Gps28tBvfZ0NgXdD6sUMnZwf54d//l8Y9l8ZYF1N7dz/6U9jOHuEfc/M0/3v/jv/fncASjGOPv8d/vgf/o43x7by2GWj0oXEIAMDh9Gs+3d88z/uwFvNMPTGt/kv+6aXNqhmmDl2gnfeUNj6u7/Hb6zzoRbmOfDkt/nLZ/+Bg3s2cT+gFMuYHa3s/MKX6V7mLsIVClFOHTvJ/sV2fuEbv8m9LWbKqbM8//99ixe+/RLd/2k74Y5+jr18mJl7m+kwQy7Sz9HJcRZDX6JXd543Th+A7q/wjX91LyFzhdjpp/gf33qV7z+1ge2/037ZwVTUeo1KuUyZq/tVrS5dnBi8IUJeUOcT1+y2wbuKh7+wioe+kGXqzTd4/cVDnJ0/w7HTNry+h9kc/DBXJgghhBBCiA/LRzbCr6oqdXTo9Hr0Oh2aa+RmVVWpVStUqlduUK1WqRezRMfizMS285UNgaU3jC6ae9tZ1/k0B0cWeGzNhf0oNfKLMXK1LF33deEF0DkIdK5ly54WXgEoppgdG+PwO5OUfvRn/P6PQFWqpKdPMZMpcmQ0xv0dgNGNK9hD843CPlBJLTA+PcLBaRXv//pvvAGoSo7IieNE001EK19hU28fE68cpn/603R015kfOEMuWmT7Vzdiyf6ImbEjjCku/voP31j6WfJznH4nijY1wmyp7bKj2Qhtf5Rf3P7ozX8QN6SgaLRo9Xr09RoKKqosnRBCCCGE+Nj6aAK/wUFr305++YHzPPNOjvjYYZ765gQ/bvPSsvWn+NL9HZeq5bgb29n6m7+37Bx+NT3GS7kKC5pGbNaLr2rRGU1grTGdyV22dZVKqUjuPaUrDQYbNlsISkClQja/yLRaZ021ysVrDFtwPbvWtbG2ZWmivmrSo3PabqqiT7VcoJhLUq/bqF7apxHv2nvpal1Dl99FWBvGfm6Qw/3TPBLSMjhTYtG4hy/0OiidLJFP16jba1Rr1aWdGn1sfKibrvXdNKgwf+loi8y+c4h9z7+97JSe5jXbue+hR2hvuPGFSjk+yFv7XuPN00nMxTpqrYo21Mv6NVtY1yij+0IIIYQQH1cf2Qi/0dHC9s/+R7Z/tkRq8jT7/uopjuYTjBzex1+PZfni19pvvBOdHqtFj7eeZDEPWABqVMtFyGkJ2a032AGUy4ssLs6Afml/dnOQnR2r+OXf/TU2Wa7efuH8rf2cOoMZk6WH1evv47e/+QhNy/XBvo5u33H27X+WQ/42BuNpzPd8gW63nojZiHnVKrbf/9v8hwevbq0SvSzwg1qvUatWqS43padWv4nR+QoLQwc4fuIYZyIqtaqZ0K77eOBTGwnKol0hhBBCiI+9FajSY6ShZSuf+8ZWPldKM37qJC+dqt+4GaCY7PjbPYS9r/HyySjbdvmhlGR6YIz+0XY+9Qu+y7bWYbF5sWrtnHxrhNgDHrzVLJHRMxx7exLuA8wNNLY78BoP8NJbj9L3qTZM1QxTpw5yoj9N96e/gOcWfzp9g482u4nqa/t44fwWvrbKA/koJw6d4NSCk4c+u4NQQxvrugOMn/0JTz25A0satj0RxoQet78Nq/Iyh/a/xPCm/40ul8Li/DEOnDpLwfMAj2zRX3a0pSk9v/ABp/Soah29p4eH9j7EehnNF0IIIYS4q6zsg7eMTtq23cuvbAP1Zqr0aG0E121l70/38+T3f59vvuSDYolsQkNo7y+yp81yab6LompxBNexaft2jn7/v/GNb6zFZ7Zi0lSw+teQBNDZCW/ezq4Hz/DsP/0+33i7FVM1TSmToqHlEbrfz9x1s4/1D2zh/nM/5OVvfIOpPi/kCiQzZnw7HrmwONlCcM0mQif38dxzY6x5+CtsvVDn0x7YxMNb7mXs6Zf4xjfG6XYrZAtx8vYg9z3yfjpUYWH4IPtffZ3Tw9McODxMhEH+6BsH6ezewj0PPMz6nvvx97yPXQshhBBCiDue9vd+7/d+b6U7ASxNSFG0mBpCtGzZSMC63LxzDUarl3C4BXdmgqmUCloHrWvu4UtfvZ82K6Ao6Mxuwq0bWd8cwNPkI+BcIBJRweSmbeM9PPrIJgKBMOtb3NjsfppbwrjKESJpFTRGmvp28lNf/BKrvAoKoLf6aGldz2rfMnN+LvbM5CTU3MXqsJeGQIi2Fg+mWIQFAJ2bVdsf4Imfebd+v8HsxKz3YvY3s/7T97E1ePENG03hNpoajMQWYksvefvY8+Dn+czWMEZAQY891EHrmm7c5hvNz6+TT0wxOTpOtGynubuVVd1uTIDZ3UhreycB+x30wGUhhBBCCHFbKaoqNViEEEIIIYS4W13rcbZCCCGEEEKIu4AEfiGEEEIIIe5iEviFEEIIIYS4i90RqzVrdZVSubbS3RBCCCGEELdJXVVRFFCWeVaQuD6NomAwaNAot+fc3RGBv1qrk1ws3cRDooQQQgghxMeBoiDZ7n2yGHXodQbQ3p793RGBX1WhUq1Rq8m3QgghhBDibqDTaajXVep1yXe3ymS4TUn/ApnDL4QQQgghxF1MAr8QQgghhBB3sTtiSo8QQgghhPhkys5OcGIsQSS3/NQfjU6Dy2mjOewn5LFh1sl49a2SwC+EEEIIIVbM4vwkbx8c4dzC8oFf0Wlw2q2EQl5Wr+5iW28An9WAgqwNuFkS+IUQQgghxB1BUU2s2tBMR6MDI6BWc0SnZumfzHKmP8t0NE9Vu4X7+vw0GKTc582SwC+EEEIIIe4ICiZ613Ty0IYm7KiotQKxSTO65wc4MpknHY3y9rlZOpucOH1mGeW/SRL4hRBCCCHEHUnRmvG2NbOmaZbB+Tz5sspCJEkyV6TmM6NDpVrMshCNMTW/SCRTpVhTQaPBatDhDbppb/bhthiWKWmvUsrMMzQSYzxeoaAq2B12VnWH8VYjHBlKEltcejBsuKebtWEHdv1lbdNzDAzHmUhWKKoKDqedVT3NeEpzHBpMksjXAWhe1cu6kA3rCqZuCfxCCCGEEOLOpTFhteox6IAyUK5Sq9WoA2olzrljQxw6N8doNEd8sUappoKiYDbocfsbaGtvZu+2Tjq9Vi7OAlKVGtmpcQ6cHOLIuRjTiSpFFWx2G2cnEqxzxnn95AIziaXAv9UYpD2wFPhVpUZmcoy3Tw5x5GycmVSVkgo2h51zE0nWOqK8fDzOfGqp7Q5LmM6ABH4hhBBCCCGWVyuQXSxTrlz4u0GHTqtFA6iVDHOxHBp7gE2tNow6BYUaheQc/efjzE5FmZvPUrFYcW5vpcmyFH3rqRneOnyGl04lSBRVLB4Pu3obCdj1FGOznBhJkcjVl+1OPTnN/oP9vNyfIlVSsXi87OlrxG/VUViY4dhImlR++bYrRQK/EEIIIYS4I6nVPPOj45yeyZKqACgEGt24bCa0qKD30LfZzFqzA0+DBYNWAeqUMm6cxeO8cDZJolLg3HCEnb0BAhY7GqVCfHScY6NpEkUVRWdl/eZefnpHO002PaW4gxd/coKp+RKF9/ZHqRIbGePoaIZUSUXR2di0bRWf3tZG0KqlELPzk+eOM6mWPvqTdR0S+IUQQgghxB1BpciZk4Mszs9iAKgWiE7NMhAtUAAagkH29DURdhpRAPQOAg0VpmemOHSuQLxQp1IHKLOQrHDxpkAunSdfqlAHNCwyOZYlm6kCoLi9bOgOErQtzfM3e1vY1j3OieksmfJ7R+qzTIxkWbwwt1/x+NjYHcRv1aMBLL4WdnSPcnwmx2L6zhnll8AvhBBCCCHuCKpSZOjsKENn331N0WlwOR1sbA6wenUHmzvdOPRLk/EX5yc4cHKYU8Nx5uJFUsU61eVytvpuNR9VKbKYrVItX3ihwYLFqOPielxF1eFwGNHrNcCVO1OVItlslerFKwmXBatBeylQK6oep3P5titJAr8QQgghhLgjKKqJvo0tdDY5lkb4AY1Wg9NuIdzkJei2YdIuhX21lmTo5ABvHJ5jOqeisdlZuzFEm9eKXlsmMjDB6akM6cq1j7e0ow/Q4Y9JVVAJ/EIIIYQQ4o6gYKJndcelOvzXo1aSzMznyOaWtnM1hbhn11o2huzoNEmOp6KMTmdIv/cYqhmHU4fewFLVn2SOxWKVCqAHVKVCKlWkfNV0nqW2zsvbJnIslq5sm0wu33YlaVa6A0IIIYQQQrwflz9rt15X0WgUFE2ZxMQU/XOLpKvLtbLR0tWAp0GPFlCTMU4PR4gsVqirdXKRcQ4OJokvW6XHTmtPA267bqlKUGKBE8NRYrkLbedHeWtQqvQIIYQQQgjxgSkGN+GgFftkhnROJT07y6v7apx3asllUiQLlaWh7fdkb0XV4mrvYHt3kmg2RrSQp//4ALVkHLdFSzEZJZ6vUNdquLACGK0CirLU1t3ZwY6uJLFcglgxx6l3zlGLL9Bg1lJIRIgXK9S1ClSX7jxolCsvTFaCBH4hhBBCCPGxo2iddG7o5b5anbf7Y0ynspw5vcicz8vajU30qRVSmQS5ZUb5NbYAm7ato24a5NDpKOPxOEcScewOB6tWtbE1GCWVjZIvAugxGzVoNRfbNrJ1x3pUywCH+mNMxOMcSsRxOB2sWtXOjuA8icwChVIN0GMxKZfarhQJ/EIIIYQQYsXYQ+08cJ+LtXlQMNLd5MB4Mw1VBWuwmd27TDSGk8xlapRRcLlddLc6qUfduNoWyVRAMdtpc1suzWVXVA32YCu7bWYam5LMpCoUVQWrzUpHu4fqmSTa2sURejMuuw6j/rK2TW3stVtoCi21LaFgs9vobPdQOrWA5rK2bocO/Qonbgn8QgghhBBixdgCYbYHwu959ebK3yhosbqCrHUFWfveN9utBNrf++K7+03PjDNb1uNuaaFztQmdoqDWSySnR3lx4N05/PaQn3CDGdNlo/TpqTFmqkZ8ba10W41oFQW1XiQxNcLrA6lLc/gd4SDNTuMVbVeCBP6PCVUpEZucpb8/RgQFDGba2xvZ3OFBf6NV7LVFpkdnOD2cJQNgd9DbFWJT0PqR9F0IIYQQ4k6zODvBvvOLVE1OGiwGtBoNar1EZn6Os1OLLFbA5vWxe2cH7R7zpTr9ANmZMV4fLIDFidP8btv03CxnpvLkqmD3+dmzq4OWBvOKB+6VPv7HVjWfZnRkjKNTNyruqsEb9LNhbTN+ww02va4SybkZDr0xxHlAsbnYo7ewrsNzxRdwWbUc8xOj7HtjnnlAaQyhNrg+ssCvKgXmBmfoH0oSv/CayeVhXU8TXR7TZdvlmT0/Q/9IigRAg5uNPU30ec0fST+FEEII8cnhCDXSEhnhxPAk5xNlchWVugp6ow63y0l3c4CezhY2dvtpMGmvaOtsbqI1OsrJkUnOJa9s63E3sOpC2009PhzGlS+KKYH/faoXskwMnueFI4UbbKmja22N5t4PGvg/zgosTExwYN8kYxdeMTo8FNHj2daM69K3sEh0fIID+6YYB5SWNpw+twR+IYQQQtx2tsY29u520NGRIZKpkK+o1AG9QUuDw0ow6CHgtGDQXF1jx9bUwb0mJx2dWRYyFfLVK9s2Br0EnGb0y7RdCXdt4FfrVfLZOFORRQoWP5vC9vezFyqlRWLzC8QLBgIdYXzLhnYNnoCP9etb8Bve+8FqaPC6PsFhf3mlTIqTg9O0t7jZHrKh+bg8qu42UJVFps9GSKlG/C0+PDbj+/qHqGbnODG1iM7upi3QgM2gXfGyX0IIIcTHhaIYsLuD9LqD9L6ftp5G+jyN9H0ovbu97qrAr1KjUsgwPxVlYDLBVDxNJK/iXW2+pcBfrxbJxBcYmYgxNJcmupBG52zkweZrB/4Gj4ftO9fSJ9Pib1KN6OQsZ4aDdHis+E03bnG3UJUc0+eGOThTQR904fM76Wrx0dXoxm7S3/zT8HJRDh8bJ1Ky0OR1EG5y090SIOyxYdSt/O1DIYQQQtwZ7oLAr1It54hF5hkajzMZzRKJJJiM5EiVFUw+L03GG/+Yar1KPhNjYiLC0EyW+ViC6bk0c6kqda2RnnU6DLcxQ9VrRdILUUYmEkynl24jKRoNZquRJr+b9rAPn+3WbguotQLxuTnODieYy9XBoKcpFGBV6OZGzyuFNPMz84zNLLKQr1Gqg9Goxxdw09niJ+g0c/kMtko6yumhac5HlgrcekMh1rTaITHHucks8byGxvYQa3qWX2VQz2U5d36KzmY3ro6GG34ZVWoUF1PMzy4wFcmxkKtRqoGi1WCxmgg1+ugOe3CartxTOTHL0cF5xuJL/Qy2tbG6SUd+bo7z03nSNWhwNdDb2UTYa0VXSjE5Mcv56RypoorWZKS5pZFVzZ6r5vABqJVForMRhqbTzGerlGug1evweJx0tTXS6LJw+fQ9RdVhNiuk43EmZhbQWkycCTQQDjQQDrjpbAvS4rNjvlFo1xux1MvMjiUYHVZwuGyEgx6CXgetzR66W4L47Cb0kv2FEEKIT7SPbeCv10pk4wuMTiwwOJchuhBjai5LLAdao4HGUBMbW72E/W7aWhzL7kOlRiWfZm4qysBUkqlYivm5BNPxMsW6FqfLzvotfpr9HlpC3muM7t8iRaWUjjN4foSD5yJMzmWILlYoVQGNgslkwONx0tYaYsu6Vta0um6qFm29mGJscJg33pni3FSaeEFF0enwBGYZ7XFgSFauOWlGVcskZ2c40T/OybEYs9E8qUKdigp6g44Gt4Pm1ia2b+hgQ5sH84UAWV1MMHDmPC+eKwHQ1pMmOWslMTXDwFyOTEHPBtVES2fwyuM5THg1KvVsidjsLKcGvLT7rFzjY7qkkpzjnRODHDwXIxovLPWxvhT4jSYDPp+L3lUd7FnfQqvbfGmaUDUT5fSpc7w9WgagJ1VgYUxhbmyW4UiRxTrY7TbOTKTYu8FJPRbhnZOzDEcKZMsqWoMef2OUhV1r2d0XwHMhvatKjcLCLMf6Jzg5HGUyskg8V6NaB41Oi9NpIxyeZ/PmXja1e2i4NN3LRsv6Pn7aHWA6EmNiaoHRmQiT4xHsDitNjTMEPQ7CYQ+r2gIErzUH0N7Inp06GtsSzM1FGBtPMXJ+nHOKDq/PQXNwCq/XQXdrkM6wB6dZx9WXK0IIIYS42328Ar9ao5hNMDE+x+BMlrlYgpm5FDPJKuh1+AJe9mz0E/I30OhrIBxswGU2XDVFolbOE5ufYWA8weRClsh8gslojnRFg9VhoWN1mI6gl6DPTrjJTcBpxaS73uzoOrFIhFdeOszx9w5mW220dzWz68KUolo+yfDZfp7cP8VovIrJ6WDVxh66Axbq+STjo9OcnYgSWcgQzVXAsIbNjZbrnxa1QHRyjH37Bjk4XaKsN9Lc1ciGLh8WNUcqFmV0anGpJOd72yo1snPTHH77NC+fTRAraHAFvOzY0kTIVicxM0v/cIzjx3LEshVU7Rq2tjYsWwo0NrfAYLVOuKmdT602o1G0BJp8uHSQvmw7xe6kN6SlOr3AkdkCQ+en6A978a67/texupglk6/R0NxG71rLUgiul0nPznByJM7U+BwLyTIGi4WGTWFc1yhfFJmKYNU20bJmLZ0dEY6dn2N8IUv/6WEycT02qwN/azePrCkydWaas9M5ZidmecNgxe+x4Wx2oEOlmpzh4JF+XjwWI5KtYXK52bKjiWa3gUJkmmODcfpPLRJNl1A0G9nW4caqBUU14g41s62pkXXZNPORJFPxDNFIjNHxOBPDkwwOanB6HPQ3uQl4HbSGfPS0+XBbDJdCu2Jw0tHjpK2zSCaRYGY2w2w8zfR8hNHJFKdPJajrDZwdmiUcaKAp4KS9tYnOgAOLDPsLIYQQnxgfq8BfKy4yeb6fH7w9y3SsTFHR4vY3sKMnSFPASdBrpyXoxm03XXMkU1XKpBamePvF07w9t0g8r2C0mWnvbmVvk4+Ax0ZT0EWT24lFf7NLIOuk43Heicevekfx+tlld7MrbF869vwsx49OMxKvopostPR08NkH+mh3G1GLWcY8Our5QU4sFBkfnOKo10Wbv+uySjbLHD2XZGhkmpMzJcooeIMB9uzeyH29LoxqgejQOZ6OnWPo6u5BOcPEyASHziWIFcDsdrNpy2oe3dKM31wnM2vGUC3y2tlFpkamOO530+J3ElqmcE5ZayPc08FjW1rw2Y2XPgNVSVx5TjQmfO0BfKY6k/F55hdinBqcpT0UuO5ZNriCbNriZqvVubTQVVFQ1QqLcwaUYoH0+UXy6STD00nWdwdxXeOkVY1OOtd0c3+fH9OiiXIyRWShQr5aZGpGw/b7WnhwdychS5lBtUgslSObrZOYjBFJLFJqdqBVikSGJjjaH2M+W0Mx2Vm3qYfHdnTQ7NRRStixVE/x8pkkkYlp3jrjI+S10u16936NougwOzy0Ozy0dVUoZFLMzKWZXUgxF40yOpZg4HSSfp0Bn9fLQ49uYWeXF/t7vtwarYkGXxMNvib6KgWSiThT81nmFxLMTEcZmlrgyOQ8RpuZxq4CX3qojy6vFe0naKG0EEII8Un2sQr89XKJWGSBwfmlqRl6iw5fwMXmjR2sbvFemmpyfVXymTQTw1kWuDD/22GmszvM3tXtBOw3rGq/jKUqPRs2tF5djcdsIdR8Ya5KNU9sIc7E7NL0GrPDQUdnmHa3eSl8mRy0tjXRPTrFiYUcldwi8/MJ5hbB1XDtoxfSOeYX0qRUUFQ9wYCX3nYXZi2AGV/YT3d4ilMTCbLvPRvZNFPzCWbzSz+Hv9HH2t4QAevSV8PR6KO9ycnJs4tMlwpMzCYYjxUINV+d+N1BH33dzQTtN56EpLV6WN1TZXgyRXy8yOTwNGfaNASq12ljs+GoxJgYHeZ4rEi6WKeqglrLMJ2qsvRMuzq5QolCqca1vt6+UJC2oBubTkG1W/GbTdjJkAcUl4v2Zi9Bmx4tehoaTJjNCmRVKFYpV+rUAMpJxqfSxFI1AKx+P+t7mgg5ly50zJ4wfc0THB9LkUzXmByOML02RIvLhHGZoK0oeixOH91OH12daWaG6yjpLNFMhWK5TGQmwVyqRKnOVYH/chq9GU8gjCdYp5ya46yxSDaeI1Wokc8WGJtOkixUqINM7xFCCCE+IT5WgV9jNNPYHGJTyyTDc0Xy5SrRmTj7D5xhcNBOuMlDZ3OAoNN0nUoneuwuL6vWu1gYTxNZrJPL5OjvHyc5lyLgc9DV5qfV33AL0x6WqvRs27Hm+lV66lXK5RL5pYyIyWTAYTNfMdKqN+owWw1ADqhRrlTJl65/9Gq5Rql4MSnrMRkMWMwKFx8frTHqsZoNWOGqwF8rVcgXyywdQiUbi3HgreOcvTTfvEh8OnuhnUoiXyCWKwBXB36r2YTVdHPldhQMNDSHWN8TZWxhmolUklODOtpL5WXHnVUKRIbGOXxijFPTKSKpMrny0kMultkY1GuPXltMRoyGpQs7VafHqNW++w/BZsJk1nPxuk3RgLLMjR61WiRbqFC68FnWcmneOdTPeP+7F4z5aIp4eakflUSOTL5MBZZdk6GqJRYTccbGY4xGM0QXkszGyhRqoDUZCTcFaPOaWWbN8BVqpUWikQjDk0lmFjLML6SYzS1dGNldNqgsNYwAACAASURBVNq6fPisBgn7QgghxCfIxyrwa41WQt2r+bwtwEQky3wkyuhEjDOnk/Rrdbi9DkJBN0GPnVCTl64WL37bleFfUfXYvU1sf1BPYC7FbCzF9GSUoekZ3hyZw2IzExp00eRpIOBz0tkeoNnjuIXpPbdAvfSf97x223Z+y20SkQUSkYVrblEtlCgUSlRuQ8V3xeSiuyfE6okk0YEcc6NxcqrKcs8urmWinDg9yKsnE6Sq4PB52dETotllQlNNMnR2mnOTefIfuFPv7+cqxGOciMeu+b5aK5ErVinX1EtD6ypV8ukEU5MRhmbTzMfSzM6lmEtWKKlaPI0utvUFCPmdhPwumhsdy97FUqt5krEow6MJxqMZ5uIJZuYWSeRqqCYj7S1hNjV7CPkchBq9hBymT9RzD4QQQohPuo9V4EfRYLC6aO1y0dxRIZ9OMjufZDySZm5ujqHxFKeOJzht0OPxOgk1NhAMeFnV28r6wLsLX7U6E+5gM65giLWlRWKRJJPzKWaiMSYmooyMTDM8NIvVbiU06CLgdtHeFmRTXxMNH+SMafWYTGbsOqAK+UKJRDpHlaVFoAClYoVctnixASaDHtsNHjRrMOkwW/RAGVUpky+WyOYgcOFuQ61QIp0rLrtoV2fUYzEb0FOkgoZAuJF1fWF81xqoN5hobbTflgc8KaoWWzDM+t4FRiJjDKbKJK6xbTWTZS6VI1UF0BFqb+a+PavpcRtQsmPUIlEGJz9w3L/5vhtM2E36pXKbdbAGg2ztbaTJca1STlrCzU5MCqhKkYXhKU6OxpmMp4jML1WGytfA5XKwZmM7LUEXjQEnrY1uPDYTy60ZV4txzp6f4fxUkkgiycxMlmi2Sk2rJxjysHdTkKDPQUujh7Dfic2ovfka/0IIIYS4a3y8Av9lNBo9NpefHpePzu4iqXgTUxdG7GcmIwxMxTg2G8fgS5G1ua8I/BcpaNAbHTS2OAg2hykuppmfTzAVyTAXiTAyEWd0YJIhZZ7IYp3mzg8a+K34/F46WicZGClTyqQZGZzkXNhOn9+CWkgyPDzJmfGlwG9wOAiFfYSuX6QHY4ONJr8LrxIhplaZnY3QPxQluHapSs/sxDwDE4vLjn5r7Q20NnpptWUYXlSp1FWsbidb+wK4TDo0qNRqZQrZDPOzSYomKwGPDR3Lj8TfKkVvp7U7xNqJGPPpDJlrDTwrlw++q9TqKiqgVDJMDs8zPHcbRvdvhc5FR7sL33iS6EKVermG2elk3foQfpsBHVCvVykWUsRm40RowO+0YNGASo6ps6PsPzLPVLmOzmahvbuFrrCXkM9Jc6OHgMuKUXuDy6rFCIePn+fAcI6yquD2NrCpN0hLsIFQ0ElzwEOD1bDsxYIQQgghPjk+toH/XQpa3YWFioEm1pQWiUeTrJ9LM7sQYzJVQanWb7wXRYvZ7qbd7qa1o0wuHWJmPsVEJMncbIyqYWke9AfqqarDEQixaWuS6dwoZ+aLTA+P81S5wDGXEbWUZW4mylhKxWCx0LO6je2rgzi015+gozG76O5uZst4hjdGC6RiMQ68eYyF8QaMapFiPk26qsNGlcX3NjY4aOvpYG98kfzJKLORKG/tP8HcqAu7QYuCSq1epZxfJBEr4O/pwdYYuGbJy1umKpg9jazrjjI0k+N0rLbsZjpnA2GXHbeuRKJaY2Z0guerOd4xlSnmsmRKCgagcJu6dSOKasLf08k9qTyZw/NMJ+IcPtRPZHqWhgv17uv1GpXSIql4GiXch8PtwmfRoipVKlUNwXCQrlb/0ih80EXY68Bi0N38KHy1Qs1kpmdtkPZGF03+BpqDbvxOC4YbXSwIIYQQ4hPjLgj8l1sasQ82OwiEa5RyaSKJAiWT89b2ojVgdwdY5fbT1V0gFU+SKelx3YYHb2lMdlp71/A5vY3m8zMMjieYHh5lqLJUMchsMdLcHaanq5mNvSHavTdeBKtgxB1q594HFPSOMY4Px5mfniMWjREM+dnU14jPGCEdLV4V+BVVg8UTZPNOLVbPBKeH5xmfjXPqeJTixYeBGfV4PDbCTUF6W324b1fYv9gHjZWm7hY2TMeZS8WILVOpR2v1sWFjL6WKwoGhBHPJJGcyizS2BNm2xo+tOkcyWfrIAj+A1u5nw+b1mBwuTg/PMTKV5vypOMXq0t0Hs1FHg8tGIBRkdYcXn2Xpn5ui2mnftBqvqscddOE069/fIlpHmHt2utFaHDS57Zj1mtsy1UoIIYT4qKlUyScXGB2PMbFQIFNWqaFgs5toCTfSE3ZjN0rJifdLUdXrlDP5iBTLNeYTOWq1Fe/KTasVF5mZnuN8tAooON0uursCuG/yEkqtlVlMJZmZzxDNVSlWQdEoGE16vC4HjX4XLvO7O1uq4R9jZCS9NM9db6Qp5GVVk/PS/H+1XiITizM2kyFWUFF0Wtw+F21+E+VEguGpPDkAq5XWsI9ez5WLA6qlHMl4nLlYgWShvlSBRgGDQUeDw4zP48TrsGLULY1BV3NJRqYWmEgsjco3+Lx0NvvwvOcaRVVKxCcXGJnKLj2Ay2anq8VHR8O79WpUyiRmooxMZ0ldHOS32+lp9tF2YTu1XiIdizM+myVeqKNqtHj9btr8OrLzScYjRQqAzeOhu9mDz7L0P4ZKNsbARJzZzNKdHk9jkM6QiwYDqEqByEiU0fn80sWQw8nqVi9h+9LVXT42x/npFLE8gIGOriAtfhuGy+65qNUCyUSSuWiOeK5KqbZ0R8ao12C3m3F7nfidNsx6rQRyIYQQnxg6nYZ6XaW+bEm9d6mVNGPnxnnn3AznZ1JEkmUKVZU6CiaLAb/PTU93G7s3tdLiNt9to9XLctqMuGxGtLfpjr0EfiGEEEIIcdvdTOBXyTN14gwv7B/h+HyBfF1Hx6oW1rR5sJNh+MwUZ2fyVMx21m1fx2d3tNPiNKLc5dXmbnfg/yRcJAkhhBBCiDtQPTXH4f4pTswVyNehsaON+/esYWubCzM5VtlqpF+fYGAhS/+xETrDbjx2HzYpO3dL5HQJIYQQQogVkZ2PMZnIkasvFcTo7A3TE3Zh0SkoOhuhDi+tLiNmoJiKMzSTIVm4cTEWcSUZ4RdCCCGEECuikC9TqSwt3lOpMzk0ytOpCMYLM1nUapqJWJmlLaqkskWKpRpYZcz6VkjgF0IIIYQQK08pMzk8yeTwtTeJ5QrkKhXgNpcMvMtJ4BdCCCGEECvCYjNgMGiBKopqpG9TO6taXFiuNYDvbKDRJmH/VkngF0IIIYQQK8LaGKDbN8fEfJJUrU5eVWgMB1jX1IBJp6BSo1oukInHmZwq4vDacFoNXP+RpOK9JPALIYQQQogVobU3sn1Lhkx2gAMTi0wMjvFcLstJtxW9VkFV69SrZXLZDLGojt22Bvw+Ozd+LKm4nAR+IYQQQgixIhSM+Do6eUBrwT80zdmxKNOzsxwaqVNRQdFpsNpMhPwNdK8P0e6zSdh/HyTwCyGEEEKIFaNorQQ72nH5PfT0pImlymQrdaoqKFoNJpMer9OG1+3AYTGik+k8t0wCvxBCCCGEWFEKWkw2Fy02Fy0r3Zm7kBQxFUIIIYQQ4i4mgV8IIYQQQoi7mAR+IYQQQggh7mIS+IUQQgghhLiLSeAXQgghhBDiLiaBXwghhBBCiLvYHVGWU1FAr9eiuyN6I4QQQgghPigFQItUzX8fNIpyW/enqKq64p9Dva5SqtZWuhtCCCGEEOI2UdULof/2ZtdPBI2iYNBpuV25/44I/EIIIYQQQogPh8zhF0IIIYQQ4i4mgf9jJD25j39+9s/4+1MLH/qx1NIcx37wJD/+zgGmCx/64YQQQgghxIfkDlomWyQ2eJBn//C7vHn5y6qN5q77+bnffJxe+0r17aNRXjjH6bFpct493Nthuer9fHyAQydepcKn+Pn1vg+3M5UUE+8c5Viqm47P7iRsvvlJZPGhZ3jmyQG03Z/h04/34voQuymEEEIIIa5vZUf4iwkGXn+W//p/v8UMZRbnznHu5TfRtOxg586dS3+29dCQf4f/+R/+M390YGZFu/thyy6c5tTJ5xmIlle6K+9Tiamj3+e5v/9L/va7xzhwbJ7chXdUkgz8+G949ttPM5KUZSNCCCGEEB+VFRjhLxIfOsQzf/B37DfasYW3sXNdDxYgDTg8jWx84ut8ee2Fa5FagfjIQb73l9/m9T//M3a3fpNtTQoUYpx++2n+6B/eWtrOEWbNgz/Hr32mj6Wx8SrJyaO8+A9/xUtDdZR6gFUbHucXfns7ntQ4h44c4Hh1M//ysV4sQCU5xsEjBzlZ38LXH/Ix9/YhjhxO4Fyt4diPXmZcbaBz/cM8+tMeJl/9Fk8fqUFoNTs/9/P88pYgAOX4EPtf+B7/8OooAJ6uLfzUF/4FD3RZKMcG2HfkJKPlAO3qWf7pmaMoqptV2x7lZ756D5apffzwW3/Kdw7MouvzoC1+ha/c34H5OmdSJcPEay/w1Hdf4BSgqbez7cHP8flfbGXxlec5O1Sn4wtfps97cXS+zOypF3hnJI1v88+ys2GeF557iu+/choApWsHj33uCX5mtff9fbKzo8wnyzi6d9PalL7iPQUDjpYuzCdf5Z/++CnGx3u5/2c+x2Of7ZE7AEIIIYQQH6KPLPAXksMcePoP+c4bBcwGLR2te9nT6SKwagcPbQ5hIEN6uYZaM57OnXz6SzPMfOtbfPfELNtcRvpfe4Y//sezeLbsptdRJbUwTv8r/5M/9f4u//tOP4nJw7z+1N9zTr+e3bstVFNJJqdf5C+ec/CbG7IM9R/k1XIjX70Q+Kv5BQb6D/FarYlfuN9CZGA/f/83J2n8pS/x4J7tGIZPcvzJ/8TA9P3cs3Unu7fFGeqf4MR39zHS+yWaS0O8/v0f8oODFbru2Y1fWSQ1ep59f/oXqL/xq+zUzdP/2nf504EmPve5+9i9ZxvR8+9w5ND3YVMfv9LqJRBsIuAq4+xZRXfQdt0PRyXD+Gs/5tm/P0C8aRO728yUI/MMvv40f6c8zC7XGPuPn6S/dSftj7VjAtTMBPt/sp8Xprz8YvcEL7z8Aj98J0Hzpt00W8rMzp3j+WdywC/yRMvlx0ox9NyzPPWD1zi7TF/69nyGxz//edrMblrXP0RnfogTL79O9IqtrDRuvgd7kw3d8ZM0eitE3vw23/jxHIt99/Gzj3+Wx7ol+gshhBBC3G4fTeAvJhntP8jfnLKzfc8Ogp4gm+99jE7Xu/PCrzvJQ2vG3dRDe08T3z8/QXSjlsP9zzDR8jV+/9c+TdBUJzd9hH/8y7/lB98+xc9v2U7q5CCn9vvZ/T9+hUcajdTyMUbHhhmvOdGRvYlOFzBYavRs/hRPPOxnceAF/iIzzGvVTnb/1C/Ra4ty7Dt/xZP/+CYjic9jTRxjdOw8PY/+J37ly204KDJ/6En++juv8czhMTbsBmVRT0O1nd0P/zQ/02oldtrLH//TC5w9F0G/YxXrtm1nc1xH4P6HuGdVw/W7l53jyMAsZ327+Ff/5sus9xqoZM/y7H//c95+4XUKv7ODDu8Mg28cZ/q+droskJo+yolMHMOaz9NSOcbTkWFa7vkVfuML63EbqiRPP8kf/NlBXntxlHt/+fIFEwYc4U7W7ikvOxrf1N2Kw6igtwbwA+rM0DW7bQtu4t7HNnFvJcnI0WOcODvBaPY0k+ctjHh/9orvhBBCCCGE+OA+msCvNWC12/FVznHorSSh5m6atz5G5y0M6Op0Zix6N7VkhkS6RCqeYO09GwiaADRY3E2sam7Hu2+AqdgqcpMJBhJdfLnRuNQFi5fuNV66geLM9E0c0UnQvY6NfUEMKJgtLlxtq3HSR9CpADqMxhqmWoxiKUdqapLzL77JmeFvcvalpdBaXZxnaEQlrJ0ivtsMnia6vFvZ0+oAwGJz02B3MJkvcquz9suJeSbHT/Dqm2+TjbyBAVApEDt7mpp3D1vrX2bjqgDTx45ybvoxOnvKzJw4gzZhZPcXe1Bj+xg/+RonD6UYe8UAgJqPcuZ4jU7NDqL5NZeOpWAhsH4Xj67fdYu9vDa1lmNh9BzH3jrOsMvO3j4fdoOEfSGEEEKI2+2jCfx6K03du/iVn0txcDBPKTbOs//66/xFcyM9D/wCv/XEGq6uSXOlcjlDqjiF1mfHWMlAQYPPctkMd60Os1FHQz1DIVclXywQ/yB9Vi0YNGZMxpvZuEplsYiu4mXN1r1sCLwbXB/ATXNnHw7Gwa5HZzFh+iD9unjESomKoifYvZHde9vf3efeT+EI9bC+2Yej3oZu5BhHz07xcLDKibiZcuh+9naaKU6X0ZqC9PTtYlfru+fx3kcctKzaQEBXYeDiqSDF0LPP8OS1pvTs/SyPf/7z9LhvHNhjg0/y4x8/zYETPlo6WunYu5fupl62bNiA3/pBz4oQQgghhHivj2wOv8Hqp2/3v6Bvd4XFyCgnPW8zSI3k6Fv8wX9N8mv/5/prN66miQyeYOhIlr2/1YvNlAJHlZFkGvAsbVMpk14sM6v143Ab0doNBGsLZLLATZTzLJdSZNJjYHs/P50Ro8eOZ0crjZ/6OX5py9XJNT8+/n52fE0Gsw2zpoO2pvt4/GsP0rTMNhXDJtbZT/DO/qd5Xe9iMpMluGMXzTYj03YzSkcLnQ98nq/de3VrdfHcZX8z4mjuYv091Ytn+wpN3a04jdcP+ypJBn70I04MTqNp2cu93iC9WzaxfkPghhd7QgghhBDi/VuBKj16bIFe9nytlz2VHPOjIxwdsVyq0nOVQoz+/f/Mv//Ll9B3f5V/vd6Doxwm5Orgqef2c/6RdlbZa6QiQxwfOU75vn9Nh9PJQpcbr/8lnjr6Rbbf30QlNc6hF17lwOwavvJVG5aanuyZEaaz99NgSjJ99gQHX5uHz976T6SoZrzNXZitb/HGD1/lnt7P0mmrEB3cz/MHTlFd+2W+slxS/gB0nkZWOavsf+1Fnjm1jl9d70PNjPPKc2/TvxjiiZ+/j1ZHB2v7PIzOv8GzP+7FZfSxqzeAHh3+UB/2/AHeefl5zq3+On1ehcTIT3jm0CC6tsd54rLrLwUzgfW7eOQDTOlRMNLQ1svqwBaCMpovhBBCCPGRWdkHb+mtBHvX8+nepaozaSA6cY4X/q+v88LFxZtlBa3Gw+pP/zIP3bOX9gYFyp3sfeBLDM8+x7/91dcImurk9Xr0vQ/z20+spUFrQ7/xHn7q8Um+9/e/xdf+1kE9p8Oo62PP1/3YHR7WbVpF16E/5//41f0EfH4aG320b9nB8Pv6QbQ4Wrbz4COzTP3wu/ybX/0BPmOdRYORhvX38zWfBeo32ocBlyeMPv8sf/fN/4fyz36JL/3LjVzr8VqKqZGtjz/E9Pw/8+rv/DoHwnbIK+gb+tjxs1ux6QDMNG3YRdPRozx5aIHdP/8EGwJL8/WtTTv5wsOzJL7/Cv/21/fTaFPIa7T41+3miztsaMnf4jkoMXX0KX78o+c5OjTPyWPzFK1vsTD5v+jZ+hiff/xzbN20h+At7lUIIYQQQnwwiqqqd8hTkJam+pz6yUEur/GiYMLl72XbAxsvLNC9uPkiM8OnePnw0taKw0d4w24e7LhY3aZOLjHO2cNvcTZSR8FJMLyBHQ+14wRKmSkGTr3O8ZE6isVLqLObloYa0wU3e1bZSI+MMz6p0nrPWvxGqOUWGBkfZ1ZpYffqAAZKpMYGmBpO0bDjHpodCtVclOEz73Do3MJSn9whOjdsZ0+Lg+pihKHxKWK6Fnas8mNgaVHv4Pg0CX0rO3p9KItzDJw+xtEBlZaeDWzZ3XzFbKRCYpAz03PU3JvZEbYDRWID/Zw6eIYpQMFOqGstG7f14DFcaFTNMHXmFCdm6jRu3MzWpsvmLBVi9J8+ydFz0xfOYZhV6zeyqdODvppm8tQY8bKdts2duAzcQJXk5ClOnOhn8j0P1nK1rmXDhvW0uvQ32okQQgghhLjN7qDAL4QQQgghhLjdNCvdASGEEEIIIcSHRwK/EEIIIYQQdzEJ/EIIIYQQQtzFVrZKzwWqqlKr1Va6Gyvu4nIKRZEnzgohhBAfF/L7W3wYtFrtbftO3RmBv65SLpf5pK8fvvihftLPgxBCCPFxIr+/xe2m0+nQarW3b3+3bU8fgIpKvV7/xP9DURQFRVGo129YtF8IIYQQdwj5/S3udDKHXwghhBBCiLuYBH4hhBBCCPGxkxt5if/3H3/CW6MJKivdmTvcHTGl56OXZ/7Efp7+k+9x6MIrTb2b+fxXf53NwU/Cgps8k8cHeXXfFIOXvapgYNW6Lh7e3Umj6ZqNb016jpcODvD6tJF7d/XywGo3lx7aW0pw4sAYcZ2Xddta8Rtv0zGFEEKIu5SqJBn4wY946rm3r/gdDqAJbeezT3yGRzY28VH8SlWVGKf/9h95+vU4rV/8Ao8+uAbfpQMXGHnj/2fvPuPjqO79j39mq6TV7molrbpWvVdXufcK2AabGiAECJBLCek3yb1JIPfm/m86SbgpJEDovdhg44J771WWLEtWsXqvK22d/wMZsHEnxhbm93699oF3z5w5MyvvfOfMmTMvsduZSMHISWTYDeeq6jNxt5Wxaa8HW0ouI5NDL1GtTko++CuvfVhCbdfpQ8113rHc8oP5jMm2E3iJ1ng5fAkDv5OG/av54G9LaUgcz6x0EzibKC85yrN/W47lu3NJDb7SbbxYTmoPlFNeoyF2XA5poWc4aelpZtPOGup0kcycbKaztp6WhgFixmWTbDtR3t1Na+0Rnn69nVHjM5idYvmXW6YOdFNWVsGqrf10+rREhRVQEDn4a6D6nNSX11Jj1JI0PIGIf3ltF8tF7Z5iDvaYSMtNJjVMf1oJVenmyIeHadTHkDncQdQX7m9DCCHEUKYqHRxdvISjHTYy5s0j9QzHcLWjjHffLqM/MoM584JoPrid5mYvqdfO/eQYzgA1pbt4/+0evNzGNZcl9PfRsHszK9/czEB/AMFxdq7Ji8AAqIqHtort7OvyEJM57nMJ/J8HVXHTXLKBY55UCouGEWc9NRto/AnEhwWdJ0D3Ufzek+wJmsWM0XlEm6983L7yLbjsdATb0xm5KITxBUWDf4CeDg6sfpUX3nuPnZWTSM0zXelGXpCeumo2bD3Ipjo/kVYrw/PTsQWc/EPh5Pi+o6xeX0OZVk9EZCTjRpj5qPM+NDyMvJHZjI45sYyvn8ZjR3l3RRkHtuhICyskOURBVfqo2VnG6s21lAOoBrIL05gxNpkoI4CbxsNlrN5aSXEvKGowI8ekM21MLBYANZjCVD36nma2HmoiMdKB9Yxb5Kb+QCkf7qimtG/wncjkZGYVpZEVYQBXG3s2VdKhaPH0Oykub6dNNTCsKJsCaze79lZyqFWF6HjmjUtjbNzg9zhQV877WyvYU+cGICYtjdmjk0kL12KOiCS6t4qV75XzTKeeUeNzmVQQQ9iJ3yVFNRDqiKa7vJI3Xt1PY6+FKbNyGJcdzhfjr0QIIcRQ1Hb0fZYsXsLmw8EkxKYybtZIQk46hqtKB2XvvMvi9zZRZksgIWUsM1NsBOACIColj8nzbmbUR8dwvHTs0/P4H4rZt7uRSYUxGNpLeO3NxazafhQArS+XGV+Zz+xZKVgBtb+GTa+9zbKNB2kGCmctJNfcgj8ogdRhU0iwKqhtxbz42rus230MAE3+HO5cMItJiZ8cyYddO47OvsNUbdpFfcJcEi2nn7Q4K9fy/E4n6QWjmZhhRw/0Va7h+R0DZA0bzbgMleKnXqAuKhWOHmVn8WFqgaLrH2Cao4tlS1eyv6IdbdJ07rxtNmNSwj6uu6tiBb9bWUL5sQ50vlHc8M0FTBwejQlQlSZ2/emfLN5bRgOg8xax6NvzmVAYRaDSxM4nnqE5awTs2sU2JZV5d4zGC9gzi5g1bz65UaefNqlKI9t//TuW2MZy14LxZIQP9vWrvaUs/uNLNGRfy5jo4ThatvLEz5+lvTWG+Q9/lSkFMVyp7P8lDPwGzDEZ5MdkfPyOatBh0kNUZyeaob5LelvYuruU9/Z14tLpiIwMZ9IIG+ERoaQn27HqoKe2kvXbitlc5yIk0ExCUjITI4OIj7eTGROMls4z160NJCo5jWn5bbxZXM/22hSSQrRU7zzEhi1t+KPjmBhjxNVUx+G9xSzXGLh+UgQDh0vYsq8Zrz2OiRlGXI0NlJWUgTmAa8JBwYgjLYlCew+7ao+xpcrG3ETzaat3NVazZv9x6vWhFI2woXe1UV5SxlafjuBp6cRp+6gtr2B5lZ7coiTyR5io3lvG1mXrqclOIT0umQlRrezeW80Rq4W0iGSCW8p5d3kJ1YYQCkfEE0w3jQePsr7PB1PTSIuLJddsRAlpo667B+fhQzyzcTedtijmTk6nKNlKRFoCwSEGNJEdNLd3U799J79f5cUZl8iN41IYHh30OX/pQgghrgZqZznvLVnM4vWHcYaFkpo6kjlzHMSl55CdE49FD21lS3h38XtsKe3DHpZGatFs5iTEk5mTTWacFS11Z6ndS3dHEz0WiI20EKS0U/Le21QU95AxZjZJIQqtxetZu+kttFF3cl2BgaNvvMy6be3YCqcyPEploGUjb7y6Av3of+OerCk4vMW89PRSdnaaGD5lDhEBAxwr38xrH7hg7jwmJg2uOS5jInNTNKxbf5R1KTksmpXApy+Iu9sr2La/C010DuNOBH5PWwVb9/dgiMthdIafuu0beWn/MYbfNI6COQ7C9z7Nyhd+QunoRRSkjWN2ej17X1vK/vhYkiMnEwT4j61mu2kmU7LGk5rupWHX+7yxTEuAbRHjkj3sf/JJlpcZiS+aToFNT1/ZId79v6V4Hr6OyYU9HN+0hh37fGRNymJEQhrR5gAqzvtNmogenYTuyedZbDBxx4JRRFtb2PbEk2xsimH81GhSCkdj7IrBq4ujyOGIkQAAIABJREFUvaeHxn/+hv/s7aI/cx4P3TWd3Cgzl27SzfMb4un28uhrOMyOg9s4Fj+L+YlD+ZKTk7rSaqqL+0jOSSEuNBhHfATZ9pMG3Pc2s/NwDQf6zBSNSCEqzEZaYhRhJw00O+fkp9pAoqJsBB7por65G1ePnz0HG6k2xnDj3DyyzDq8fRYC39hJ2eE66jONdBa30OULZezUPDLNOry90ZQ3OlHMgZ/8MQdYyC2y41t6kPrtVVTbcnF8agSN1hTG8DGFFFltJEcEofF1sKtrI5ubm6ntTCQuDMCH2RJBVl4Gk1KMtAX0cGx5Dao1gjFjUgjXNRJYuZmKhi7anC56j1bSrZoZVVTI+HQzRlwc92/i6b11HKyLIjE8DL01nIL8cAoYoCWqmdjGPhpb66msqifCGkR6mJ4gezQj7dHg7aW6vIXK1gFqG6o5XmUixpwsQ32EEEKck6p0Ur5yB7X7feRNnkOsI5GcnByy7Z90GqkdR1m+s4YyTQ5T58TiSM4hJzv7jMfwQ+veZlPT4ZM+89IZHE7OxGtZMDaWQFUlbNgMFubbiMxMJzQQenN9/OR3xRTvbWJyWgClu1ogbCSzb72JAju0lSyheu0GmnsGa2ypWEWF183ImbewcGICwToPbTu9/PAv1eyKaqQgaTB/KJiImTibib1/4N2SD3Fk3sTUhM+2n/RR0WTOmMms4XZcaR1s+/4mNMGZTLl2PA5TO/aS9axrr6W1x40DUFpCiI4ZwcxrxxAfpKUrpZn7/7uRI2M6GWY6zlsVOmKnXcMNswuICNTiaoug7Wt/5eieDPLTIwFwGsNJmzKT0UkWdEonlUDZB3/nsc3LsAacOr+NduytfHvBeDInL+Deni7+/vJTrAjTktK3mH80mpl9403MGB6PxaiBiBymz8lBVbqpCY8gprWT5rZi1h9MI8KUcVmH+nzJA7+XtqrtvP/GS2xTx7Dw7mtJNA/lm3b1BIcEouj62Lu3nIqoCMaarKcGfn0QdrMBzeFqNu/qIiUlmfDISMICL3y7dHotehScbh/9nX00ukEXHUrMiT9MbXAIjmgTVeU9NB1vob59gA5rICEnPtcF28hMtQGgNn1Sb6AtltHpdby+7hhr94dxw8hPrdccTEjlcVat38MzvSoqPnoamlGizAzzfvQkZgOOWBtx9kC0KAQFGwm0WbFaAwk2AoqWAK2K4vHh9fbRXddLRUk3+9u6WXXiqpynu5WjDYFE5PfhJOzj4UWq4qatuo7dB1uoVnXkjwrAEnjqf3TV66Su4jjbj3ZSbzQyPS0Q01A+RxRCCDEkKKoRW1wIrm3b2bSqFFvuBIxRKacEfiXARrzVzc4dW1lZbKZgcgAxyVlnPIbbHelkTZ1Diu2Tz5SIFPJyMkk/cRYQEWdh7ZtvsfJPg0N6cDZTvCuaWQUePF1OjvaEoiY7CLcNHr9D0/LJj03gEKAyQFNNFdX7d7NjXxnrXjgRGZ1N7N8VTGjhJDpdjk8aFBTFxNmj2P3HJexa5SDt5qLPtJ/SRiSQGGvDCBiscQTqc4gOs2MO0gJGjOF6Bjwe3N7BZx5oUnJIT48lNGiwi9ESm0uGeyWe5m5aq8opr93HzudK2b0kcHBqSqWX2rJdxNbeyIzewWFB9pRYIiwm9HxyQhWaXEBh3nDiQ07tnVQciYQF6VHUIBwzb2be8VKeeOFXNCvRzPzq3UwfnTgY9k/RS932TawrO06jLZnZw4MINFzeiTK/vIHf00HFtuU8+8oGWjIn8NXZsxh94hLT0KXH6khk7IwgrPUD9HS2cGTNSn70QTBpWSnMnpxObEAw6dmZ6IJDqOruo7emjsV/O0ZbWCijR2Uwd5id8+XTgX43TkXFEGxA5+3Cq4DOqPt43yiqFr1Ri0/rxdXvos/jpfeC2m/Anp1G3rEOVhWXsSU88uNPVFzUHyjm7TXV9NoiGDsyFL3ion7/ANUnX5JQdej1WnS685/AqHjxuHyEhISTnp9E7Mcnc2nMwEhSaigBwEBtGYu3HGNfvZvEyAgSC1JJNZvJTLZjP/ED0nZkP+9tr+FIk4aUlAhyR9opCLGRlxCGWQK/EEKI8wokfFgRswPMxB9roq3zEBuefZglzUmMnLWAedePJjYwnJFj5hBoSaCqpZ3OfRt46sF3aE8ZxTU3zOfaEbEfH8Mjk3OZfO2NJ43hP5XaXsJrL/ydFceMZI+bS1KIgtp2mN7GE0dsj5surw693ojuozSoNxCk0w/e7Kt4cA94CbKnMzprGjmRn4xlv3aRlaS8dEK1A6es0xw/jevHFvO393ayOiGauM+wl4KMevS6Cx/sooYHYAzUfRJoDUbCtAMobg/9fb34zbEUZOYzKin0k4w392bC00cSYxngCGAyGtBpTw3g4RmjmXndmcfwf0Qx2EnNjaP12WVUHHNwz6MRmIM+SZI9pYv5wwtrqKo3UZCTwchZeeiisxiXFXOGk4LP15cz8Hs6qNiyhHde2YRt7O1cN20EY+JPH1M+JBlMOJKTcCSDqzuKypoIqroGGGg4zq5lLpxTckkLtZGVZyMLD13JrZQf66TF1UP1oWLe6E7mminnmH3H3UFlZRO+/iAyo20EBnRh9Kt09QzgBIIYvPO+v9eN3hOA2WbBHqihz+1mwAXnmxJAFxzOyHEpVC0tpnRrPwEdKkoUQD9NR+tweS2MGj+MKalBaJRO9tbX0F772XaVgpEgix6LaiM/P5VRsZ9O5i6O797NntoBdPZ4psQaiEuIJCnawomcj6p0U7qqmIouDfakVKJTAkhOiyAhwnTeEychhBDiFIFhZA+fSPZwcLblcvjwYaqbPfQWL2f9iw2MWjSftPBsRk3KZhT9tGQdpqSkimZfL8XvraWnfjTz5l/YlBH9LWXsqleJHDaHO2+ZTFQgOEvfYdvq3WdfyNlHu6ufHgOgBhIcYsTtiCJz0hxuzAs7rbiqVJ/6ht5GxqwbGV/6fyzbtYLsgU7OMksHAD3d1QwMnP3zC6GUddHT4eLjCNLXzTGXhdTgIGzhEQR0e8gcPoPrpifz6aTnV8r/pXWrDdv5yytNZM/7HpNb1rFqzVrS4hYwPFbLkSV/ZEtfPEnDppI9LISsscNJjrZwmXP+x76Egd9LW80etm1Zj2v4bXxt4eSTen5P8LRTvnk7u/aojLz/miE7TafRYiMz10YmHroaWmnrVLCcctlPjzU6mhHR0eDqpaq2i26NibNOsd/dyLqt+3h+Xz95hQWMjglAqwkhzaqlraaJ8oZEwqONuJuaOFjVQ0dwFNGJ4ZiqjOwvb2ZvdTeJ6RZcTVV8uLUOV1Qi05I+vRItlthEphY08/q6o2yo0DAiKhGUwd54jaIjwKBFi5v6fVWUHGumVGMgeeCzPFLDRExCCJ1ratldGkuSPYFwg4va3cUsb9SSW5hIVlQUmTYD4VGhhAWd3qOgqAbCEmMxaC3YY0OkN18IIcQlERSWyciJmYykn5bsw7Q5gwg95RgeiD17BPbsEdDfSnFSCx5z6Mez9JyP192PvzWIAL8FfSCo7Yd5Y08xR2sbGePsYSA4mjxbHfurD1HTmEdklErlthWsLzmAa/RMFHTEJg9Hu3wJ2zdvZ6xjLg6rQtPBF3ltj4eMkdcwJff09Rpsacy6cTIlT77Nh1v3EHrN1MHtNYdhqC+nsbqVrtGJGH3H2LWmlLqK+H9pP/o6N7Jj/wimjnRgCdXTULGRmuwQxiWGEp6cwRj/B6xZH8+wnEhGRZlQm3bxp3/sJ2byNKaN+ezrVZUGtv3l71T4h/OVG24mPziMv3/vDVZGJxOzcBjhaWMZqU8nNT4K85VK+Sf50gV+1dlCyY61/PmNTRAzwNEtL338mRKTyejr7+Ib+X7ajpWxf6NK0l1zSQ0eyuP64aNgb40+RxFjMIkpg2cu6olZeiqPVrD9nz289dENPwNuAkNDmDSjiHFpdkIDAUIZNikT96oyPnxqKe9YtPh6vITGxDFpegoxJhP2UdmMGShm27sr2KY34OvxEhYbzeQRZgLONNhHG0R8fhajjrdx8Eg9fQCqmZTcGDY2VPD0c0tZYjKSEh9JSnYc1gP1vLWhhPDJF/dcAEXVEpqRy+z2AZbs38bje/YRpPPRTQA5+RnEmgOxWqzn6nwAArCnOrBf1JqFEEKICxWIPWvEuY8zgeHkjAoHQD3rLD2fWsQxnElZu3hn2WM8tMFGYEoB2SMzmZ5+lF2vv8zipHuYsnACra+v4smHV6M1xZI1Mozw0Di8J+oITpzBfXPbeWrJG3xz/euEGMEZYCZ7wjXE2U1oOFP3vJ6w9JncNKWE/bt30t43OC7XEDuWBaNW8+oHj/PIijCCHQWMtmUS7jj9ysFFSc0ijP088+tVNDd00XdcJfPu6QzPCMMQbGbh96+j58ll/PnhxajBBpSeAGyF0xkeGUKAtu2s1R5Z9jd+suG9027aBZh0x4OktC/m6Y4IZt86k6JUG+aAudx5dwtPvfAULxkf4s5rJzDMMnRitqKq6jknbbkcfD4f/f39XJameHqprypl28Ga0z8zhxOXNYzR0Traao5TVw+xo9I/npP986YoCoqi4Pf7P+c1eeisb6WiqpPWU97XEhEZRmpC2KfmiXXTWddKeXUXbQz2esfE20l1WE5cLfDR29xKeU0HTW4VRTUS6wgnJd5CwEAP5ce7cQeYSY63nHR1wUdPUwvlx3vQhttJjgsh2NtNWU0rla0uQEd0rJ0Eq5+6ujaO+01kxARh6OyjXx9MVKwVkxa83e0caR4gMMRGQnggWly0VbbQpQYRHhuKxQje7jZKa9qp6z7xE2YJIdsRRrxFuuuFEEL86y7f8Rugn5biYtrdZuyZGSc6587ES8fxQxwuPUZTDxCRQn52PObackqPdhOclUN6UiBtJcUcqWrCqVqIz7VQ+5c/URE0kRmP3kdBpALOJvYeLKGyrn1wW60J5OZlkBwRjJY+GvceoEsfRVRaEtaThvV6Oo6x91AZfcGp5KYnYTdp6Wncw4HD1TR1qighSeSnmGnt02KPiCAhHJp27qMn2EFMcjxmI6h9Deza04klMZakeAsGPLSW76ZOjSQ+1kHwQCW7jvsJC+qnqbae1o5+FH8cOeOySIwxn3gAWC91W3ZT0tBGD6CooaSNKCA13oZR10vd5l302TOJS4zCpAfw0HxkOwcqmuk+y3CjhILRhPUfo1yNpSDZgX1wQVR3CyVb9tETkU12SvS/1LNvMBgwGAwoyqXpdP7yBf4h7Hw/GEdrWlizvYz2zr7L3DJxLrPGZ1GQEXvaDT9CCCG+HC5v4L9UBqjc/CpvVRkYNuYapqeE4KxewRM/Xop/xHzufHAGCWcdAyw+b5c68A+daw3ivAw6LeEhwZgCpWd6KDEadPj9Kpf1CRpCCCHEv0SH1RGHecmbvPDaYp63BeDr8GPLmMX1s0cQKWH/qiI9/EPI+XoI3B4vzs9086r4PBn1OowGHRrNUL/XQwghxOfhi9nDD+Ck6cAhSivqaAcU1YIjO4f01CiCpUv4ipIhPVexL+4PhhBCCPHlJcdvcald6sAvg46FEEIIIYS4ikngF0IIIYQQ4iomgV8IIYQQQoirmAR+IYQQQgghrmIS+IUQQgghhLiKSeAXQgghhBDiElGVPg6+8188u3IX9d3eK90cQKblHFJkWi8hhBDii0eO3+JUHlrKdnDk6D7eXnmA1uY4bvj2PcwYHov5Ap9vIPPwX8XkB0MIIYT44pHjtzgTd+sRth+soqO3i+ZlG9nd2Y4z5wa+de8s8qMtaM+x7KUO/PIcNSGEEEIIIS4xQ3gGE6dmoCq91IVFkdTWRXPTAdYfzCAyOIuYC+3uvwQk8AshhBBCCPG56aLyww9YfKSGRnsW1xdYMBkv7220EviFEEIIIYS4xHoOv8mvnlnFsVoLRWOGM+2m8egj0xiVFY3ZcHkDv4zhH0JkDKAQQgjxxSPHb3EyVenj0Fu/YdNAKmHBNkxKCOkj80iINHOhOV/G8AshhBBCCDFEKaqBqLyZTNAnkxQTQfBl7s0/c5uGQLe69PAPkh4CIYQQ4otHjt/iUrvUPfxX/pRDCCGEEEII8bmRwC+EEEIIIcRVTAK/EEIIIYQQVzEJ/EIIIYQQQlzFJPALIYQQQghxFZPAL4QQQgghxFVsSMzDr9FoMBqNV7oZQgghhBBCXHGXajrOj+sbCvPwA1/6OfiFEEIIIYT4yKUM/UOihx8u/ZmMEEIIIYQQYiiO4Xc2s3/Tu/z4pb30XOm2CCGEEEII8QU3ZHr4P9LXWcXu3S+w1/ADnDWbeesvv+SNA75TysSkD+er3/45Ex1X91UB1dXA3h1HqO2NZsbcDIKudIOEEEIIIcQXzpUN/P0tHFizhufWhvHob2bgwElHbSktq1qZ/uMU/D0baGqoIXz8D7ml0DK4jOKk+9h+3nv4IVbcdj8/vK2Q4Cu6EZ+jvjYOlZey1xXIZDop/+Addu9xknbvgwyPurpPdoQQQgghxKVxBQJ/P83F63j1B0+yIiiM6MJ53LQok1BA9TrpqXfT1Tab+fkWqAaD2UbG6JlcMyPsxPJe+tqysfU/y7v//D8WZ/+W2wssqPTRsHsVr/z076wBFDWEtPx53PujW8i1KoCHlvKNvPvU73m32I/ij6Ow6Ha+8dgkItrKWLdhLdt94/jOjXmYAHdrKWs2bGA343h0YQLtm5ax9YMDkJdL5QsvshFIGjaZm2+8lq5tz/DX90pRwrOYsPAeHlmQjQlQu6tZ/d7L/P7lTQAoSSOZdfsDfHNsDKqrkf1L17O7zEN0uo89T7/OViAqbwo33f0gU6xHef/FP/Lr57bT488goOdOFl07luTe91jxhwX8bG8yE669nbseGUXU5f8ShRBCCCHEF4T2sccee+xyrMjZepgVT3+dbz3+Amt2leGYcR9zZ49l/LhRjCuIIhDwdtWx++Bm1kZO474Zsbhbyji0awfezJuZmPzRgBYNhiAbdruR1ro9fNiZzKyiENp2L+PtX71J25hbWTRvIsPSbHSX7WT1DhMFM2Nxl69nxTuvUBu7iOtnTGBYqoW25n1saAtjZHQvOzatYUNbIvPGJxIAuNvL2bhpLVs6Erl2XDht21fxys/eo1g3gul3TyMzykXl9mdYvGeAyGFzmTMxg4jeSpo2lWItmkY8Nax5622eW93H+JsWcs2kQuKNDezevYnKwGyKIlwcXvUWT/1mDU2mfKbcPpVCh5H6fWWU1EUxYnoKVk8H1W29GDNmcfdNk8jJTCE2wUFUdCJpqVF4Ktby3K9/y1M7q+gNS2NkrPlyfJVCCCGEEOIL5PL08Pe3UnZgG/88XsTXHhlGpCWUtPwiYk7Jp1662yqpPrKHuLH3EQznuGlXR3B4HDGxDprXV9F8TxS1eyr4sKGQb3/9BiaH6fG56olWG3nlH69QXJFNzL4aju7IYvrfrmdSqB7/QBfDG+tp8kdipPyCNsMYEUrUtAlMmZuKriGMnooGjpQkMWL6FMba3JTrGnizaQtH6nvJCdlPVfsBkmd9l7tvyCVE76evKoTuv7zPtrdKuakgGVXpJzTRzMjrZjN1diSGDgf+6ldZV1ZGq28CacnppKdXga2QYQUOLAD6eDKHx5NZ4KQlP4PssROpatlFT8Wr7I3/FsNkqI8QQgghhDjJ5Qn8hmDCI6PI6P87T/1xI3HJudwVO5oY8yfhVPX00FpexbFd8Yy/x37eKjUaHXoC8Le66e3rorGvFdfI6WSE6QHQGm1EpMYTlbSNsvIGlLp2SnriuC108HNNgJW4RCtxQH/dhW1GeLSVzELH4HAdYzDBwamYjTHYbXoUfGgDjRCs4vQ46WprpGzzat6vP86OFwfXqbp7aKiEmBHpNPQkoagRRMc7yC6MIAhQjYFYTAEE+gfweM79XALV00nVrg95+Z8rKYlyMOn6W3FYJewLIYQQQohTXZ7Arw0gKmUcD3zjcSbW9tFTs5/ld8zl17Hx5F77b/zkq8MJdvfR0uukLGUyD8cbAPc5q/S4nfTQjr6wEKvfi0dxoQk18snzejVojUY0VpX+/gFcHhfd/+Jm6LVaAg0Xssv8+DxejKHJTJ34Da7L+uS2YoVAQqMSSQnws5sAdBoLev2Ft6G9fBlvvfRn3t0YTWbuWKY/+ijzrVE4UtMJC7z4bRJCCCGEEFe3y3bTri4gBEfOLBw5Xvo7RpHtGEut10nN0S386Ntt/Nv3rTS3bCVlyv8SYzhfbX00V+ylbOUR8u95mGiDG7Maimd/Ox2ADVBx42rvwHtUS8wt4YQ2G4jzNtDVpcIF9IQP9LfR2XEUQi5+WxXVQECwCSUuBEP6SObMSTytjOqsvKg6VTo5uvQttqwrI2jaIzw6xkpkfArp2XYk5wshhBBCiLO5ArP06Ai0xZEzO44c7wDt+fXkNfjQ1m6jelkzuY/FcM4Ob08H5Zvf4re/eIvW9IX8ZGosBksnifEWkqqXsH7/LJILLHjaayneWcYe1zSm50Zgc4dhjlrK69sXUTTLgbutjHVvLWVd7XAe+GY4wT49XXtLqO6ehDWglep9u9m4oo2AWz7LNmoIi0wnSqNnw+Ln2FH4U0bHKnRUrebdVStpibyLB2dcbEwPIjJ/IhNjx2JJzyZcJuUXQgghhBAX4MrOw68LIDQ+maLwBra/0ci6lpn8OMN4SpGuqhJe/tFNbPjNiW5/vwtzSDhFd/wH907IIitUj4KN1Clzua2ujdfvu57XQg2o/WYi7JO47Zc3km02oR02nUU3NvPic3cy53eBqP0WIqMms/DfMwi3mhk+Jpe8nb/m/uvfJTTSQUZ2JsPnTuHwZ9w0oz2P+fPuoOX5V/m3W+dgNym4A0NJHjebe2fHYKTj/HXYokjR9LLsT4/yH823c/d9DzOiUMbpCyGEEEKIC6eoqnruu0MvB+8A7Q0NHG00kjMq5sSDtPy4eluoKT1AZfupTTRZw0jJGUHUKU/c8uJsrePYniPUAwombOHJZA2PxnSivoHuJqqPHKK6Q0XBRKg9hcxhUZgAj7OZ4xUHKG/wowRYsUfHEh7sp9VlJicxGFdTLS21PZgy84kwAZ4+Go830dBrIiM/kiD89HfW0djcjjYiG0eIHjy91Ncc41BFIwBKoI2ohDSyHCHofP20H2+ktVtLZJYDqx7w9dN2vJH2bh0RWfFYNU5aj1dRXlaLEhFPakaWjNMXQgghhBAXZWgEfiGEEEIIIcTnQnOlGyCEEEIIIYT4/EjgF0IIIYQQ4iomgV8IIYQQQoirmAR+IYQQQgghrmIS+IUQQgghhLiKSeAXQgghhBDiKiaBXwghhBBCiKvY0Av8zib2bHiT7/5zNz2XoDp3Wxkr33qSH7+8j94zfK66WylZ9jp//sErHOqSRxIIIYQQQoiri+5KN+DTejur2Lv7RQ4H/ghn1UZe+9N/8co+32nllJhMir76fX4xM/Gc9fldPTQcL+NQfw6eMxegq76Go3u95J+xgBBCCCGEEF9cVzbwO5vZ9+Eq/rEqjO/9aQ6JOOmoKaV1ZQezfpaGv28d7R2tJF3zM24fbjl12UALYUn2K9PuU7hpOLSCtZt2Ezjhu9yQa77SDRJCCCGEEOJjVyDwO2k6uJoXH/09S00ROIpu4mt3F2IHVI+TnkYPnZ3XcENeMFSB3mQluWACU6eGnaU+D60Vm3jzT//D6wcGrwTE5xRxz/f+h8kJymml1d5aNi99gZ/+bRWKGkpG7miGJZ48sslNU+lqXv/zb3nnkB9FDSOnaBH3//gWci0KruZilq9dz+ZWG9nqZjZXR3Db1+5hZH4fK979HtMf6aRgwk18/fuLyLacvn4hhBBCCCEup8sW+PtaDrHq+e/yh/f7CQmPZMadP+Fn6SYsMankJYWiAzw97VR211A+fy45Jug+b60eWis28PILT7E57g5+en0C9NVzYPMWnvzFi4T86g4yTi7ubqV03RsseW0XU7/2EyY6NPQ3HWTdyy9RygLAQ1PpKp5/5WUOJt3FTxfGQ08Tezbt5zePw/d+egspri7qareyvjabwkk38cAkO0nJcdiUuZjs6eRNbKFt707+fs1U9sfmMe2WB/j2wlxMn9N+FUIIIYQQ4lwuT+Dvb6Fs/zaeb57Jt382kojgEJKyCok8JQV76WqrpLpkL4kTvoGJwcDfWVnMC99bwCqb/pQqQ5MLuOH+b1LYcISKbdHM+8ONTMkwgbebKFMftS++x9ayBWTEnbTQQDdVnR6Opd7Ar2+cSlKQn4F6E427d7F5L6judur2NNBxeBS3/3kRU+xB4O0kTN9Mw+Ll7Ci/lpQIUJp0hDTHkTNtPAXWj3ahldi04cSmeejLzCCzcAK1ndVU92xh+aEEFslQHyGEEEIIcQVcnsBvsBAZG0du31/51eNLiU/J597/eILIpE+GvKiebtqOVnNsVyIT7gv/+H1TRDzTpv2AOz41ht8QHEJspJ+K3d0cG8jl3uQTZw+6YMJjorDHtbGtppmvnRT43c5u2rra8IaOJiQIQIMxJIKUpAwy9gL9PdQ27OPltWtZffNi/hcAPwPdTbSYEuirbeG2CMBixhIUS4z19N2n4qTp4Hre+MU/WWuJp3DubTwUH3iJdqQQQgghhBAX5/IEfq2RiORxPPDo75ne0EfXsZ2suHkKv4hJIH/+I/zXvaMwu5y0OJ2UZU7mm/EGwA2A3mQhOX88U6acPoZf7TpGicdPvxKI/uMLABo0Wh2qXqXH5T6lvN/vxeseOLUSjRaDXo8FL/h9uN1WojNu5qHHphB/UjHFZMOeEAUDjRCgRaPRc/I1B1fTQZa++hf+9HY9KekTmPOdx5gWYcUel0zyGU4MhBBCCCGEuBwuWxLVGS3Epk0kNs3HQEEBmUmTuM7TS2XxNr7/UBuP/IeNpubNpE/+NTH689cHgMGIzWokwVdPZ6cKIQrgweXVtVyFAAAgAElEQVTsRdOpIys8FKg7dx2uAVq7OyjFDMYAwi1W8i0BpBdOYrT19Jtu+49/+h03DYeW8+GqNXQm3crjPzdgDY8jKT0Oy4VuhxBCCCGEEJ+TK/DgLS0B1mjSJ09m8tQZXH/zAr5xfzr646VUv99KTnLMBZ+FKMYQIjMisMWv58Ut1QCovU0c2VnK2pICxmSeelXAYAkjwazHsu0N9largIfm4wfYtX754EO+AsKIzQohwLSSF5ccoBdQ3c0cXPInfvXtx9h0/EwP5tJhc4xiyoIHWDRtHJMmj6EgR8K+EEIIIYQYGq7sWBOtkZBoB4XWera90cTa9rn8JMNw4ctrAonOn87Nd7Tw3HO3MPmXAeAJxB49hpt+8DATY/TQclLxoFhGTJnPsYq/8ciNk7EHhpKUVUjhqPlMXQ+KJoj4UXO5+SutPPfc3cz+hxmd30V4bCrX3fljssIVaD2tEQRYoom3RF+KPSKEEEIIIcQlpaiqeqZu68vL56KzuZmqFgPp+ZEEAaDidrbR0lCPLywLR8jZusxV3H2t1FUcobZLRcFAsDWapCwHVj343b20tDTR6g8nI96KzttPW2MNhyubB8vaIogKN+FvdRGcEY9F78fV00LtsaPUdw/uGlNIOAmpWYQFgt/VTVNLK51KGGmx1qH3qGIhhBBCCCFOMjQCvxBCCCGEEOJzcQXG8AshhBBCCCEuFwn8QgghhBBCXMUk8AshhBBCCHEVk8AvhBBCCCHEVUwCvxBCCCGEEFcxCfxCCCGEEEJcxSTwCyGEEEIIcRW76gJ/d902XnruIX64svKMn7tbS1n62hP84IU99FyidbqaDvDWy3/kp68foPcS1Xk2Kh2UvvNnnv/xb9hRL49QEEIIIYQQ5zaEHhTbR8PeFTz70G94/wyfhiYXctO3/h93jbSesxbvQAf1tYc5qus/4+d+dy/N9ZWUuQrxXYJWA/hc3TTWVXFU333J6jw7D71N1dQe6SVq4MKWUGnj8Gsv8MwfXmfrifcKZ97Gvd94mBHRyufWUiGEEEIIceVd2cDvbGLP8uX8dbmdHz41AU13EwMdLub855+YmXxqENUHWYhONF2hhn5xqbRz+PVneefdCuLu+zm/zTShtpew9P39/ONvSzF/bzr6/a+w+lAHjqnfYFa67GMhhBBCiKvJFQj8Thr3r+TZb/yS98xRJE/8Kg8+OooooBkIMFlJLhjD2NyzjTby0FK+gdd/9zNe3DvYn+7IHcMDP/4d05JO763uqt3Ckmd+xJ8/cKOEZZA/YSxpxpNLuGksWcWrT/w/XjvgQ1HDyRtzMw89fgf5VoXO6rW8vXYxe/0FDKtcwk7njTz406+QZz17z7hKFxXL3+CZx59mLaDxpTHxmnt56LECBpa9zpbVTaR9+z8ZF/dRHS6O73mXD7eWYpv8HRbENrL4tWf45XPrANBkTmLh1x/hu+PjLnJfg4KZhEk3cWe+j6D4BOwmLaonDTqreOfABg5VT2JuziwmqWt5/e/38fgGDxMX3c29D15DWvBFr04IIYQQQgwxly3w9zUfZPkzD/Obxf2ERsVx3cO/43eZQVgiEkmPt6Kl+wJq8dBasZ4X//kXtqQ+xO+/mgR99exdt44/PvYstj/cTcJJpd2tR9jw6ju8vXMG3/r9TBJwcnz3h/zz2f3ob7wBFTdNJSt57qUXOJD9CL+/OwG6G9i5bie//I+X+Pdf3E50fzu1R1azTxfLNVN+wsNx0ThM5wn7K17lzX9sxnzPz/l9nhlXwxE2fLCU3z7m5ZY5UD6whX3rDpF/Rx7BgNpZzdYP97H0UAgPTq1l8Qvv8NoeC/c//nuyrC6OH17L8qW/5bd8l++MN3yyLqWdkrde4enfvMTmM7Qlf/rNfP3BbzEqJoHgqJM+0Kvou/oIafZjMgYRGGIhZcR13BVVwIwbW6hduZJfTfsvDidN4Ka77+P+OekEXcC3I4QQQgghhp7LE/idzZTu28rzHYv4+RNF2IPMxKVkE35Sivzo9tO6I7t49itjeSLo1FAdlzWKB374U2JKyqja7mDhnxcwJi0IfL2EGTqpeX4pW0oXkWA/abU9NXT4y8m57bfMH5NMoN9NvKGRXXvWcATA3UH9via6Dk/gnr/PZ0xYIPi6sWgaqHt7OdvL5nO9GRSfibCQXArHDyc64Dzb2tXE/oY+SnMW8JNbp5Ji1uFzx6JpKOWD5e/TtfBrjHAcY/2anRybn0u+RaG9YR/FriosU79Hiu8AH3iPUXj9j7h5WgomnZ+CKKg+tIL9i49QNz7v41UpqhnHhPncHzeKm87QFHNYFLFhp5+ctBxewdKqGnoK76MgfvBPQBtoIz7VRnyqhx5HCrmzFtLYdIDDHTvZUBbLHBnqI4QQQgjxhXR5Ar8xhFhHIiP6vs+PHn2Z+LRCvvHYX5idcnoYDYtL564f/eG0MfwBwVZibU4ONnRT7srh3sQTZwtaE7aoKMJi29lW08xtJwK/qnhw9rTT0ebCOspKIIDGQIg9iZSMHI74gf4e6hr38PzalSy99qXBMvhx9bbRbklmdm0L12eBGmzBFBdPxPnCPuDqaaOpZA3vv1ZJ8YpfowXAg7O1icD4iaT0hzM2L4oD9dvZf+wm8gp9NB44gq7EyIwbUvB1bKHkw2W8V7OPd/73xNfj6aOlLojsGam09OaetDY9pkgH6ZGOC/wiBqjc8jJPvbaanow7efDm8diNp5ZQ6aLywzd5+v/eZJs9hxm3fo15cRew4UIIIYQQYki6PIFfa8CePI4Hvvt3Zrf00VG2lZULx/BYVCKFC7/DLx8ownyiaIDJQnLeaIrOMIZf7arE4/HTrwSg13/0roJGqwW9Sq/bc1JpP36fD4/r1KkrtVo9en0wuAC/H48nFEfO1/j2b2dwSmwOtBAWFwPN+0CrQWPQnwjv5+b3efGZYxi5aAHfvzmfk4fBG81hRDsiMNalY4qoZNu+Cq5PNHKgJ4i63IXcnWakf4sPS8Iwbr3xOyzI+WRpBSOW8BjiAlVKP9ofSjslb73M079+iU1naEv+9Fu476FvMSpGQe2vYdNLT/PEiuM4Fnyd780ZTXy46eNtclZv5Pln/sZzH/QwfNxs5vziD9webiMyNpaYoAvZciGEEEIIMRRdtjH8WkMwkUmjiUzy4crKISN9Bre4uyjbs41Hv97Cf/5j0vkDtcFIqC2AJF8t7R0q2BTAg8vZg9KhJ3dkKFB9zir6+9toazsMwTeAMQC71UK+SUd8xmiKQs4w/KX54rbTGGjB7I8luDualKIiEs9QxpeUy6iIzXSufo4l5lzqjh8lbdJXiDYaabSY8Eab8EanUFR0+tIqnzRIUc04Jl7P/fFF3HyG9ZhDB4f0qP01bHz+z3ywrY953/gx00fGE2/9qGt/gGObXmTlrkp0RY/wx2sDCYmIITY+HMn5QgghhBBffFdglh4tRnMESaMjSPK5yUzPYfhMA9HA+bK1EhCCPSOS0MQX+efGmxk/Pxm1t4kjOw6zqngYj3wzDE508isYCAlLIFQfzrLntlM99Roc7hZq9u5g7ZIO9F8BAsOIzgolwPwGz709mZx7hhPsaubgBy/z3somJvz7/5B9kVunCYskK1bh/WWv8491+fz3FAdqZwVLX3ufD45F8eB/3EyOJYak3AQiK19h9RIDkf5EZj9gR4sGe1QO0e7lvPvWs2zLe4wxcQqtZYt5edlquhMe4Fs3nHSTAnpMEfGkR8Sfo0UDVG5ayvbjHTgWPcrCCalYThnGYyA6dy7zEr0EhMYRJilfCCGEEOKqcmXn4dcasETEkB0B6oXM0qMEEp03g698rZ1n/raQ0f9tQPEGERU/hTt+9iiTYvR4PurgVxWCoocxZeFsyp/8DvNGP0ZgaDJ5Y8Yz+fa5bFEBJYj4kdfwlbvaefapO5n8VxM6v5vIxGxuvP9x8iMVvFUXu03h5N1wI1/veJZn77uO0bYAFLeFhJzZ3PLdySQGKYCOyMwxJG3ezKtrKgh64EeMihj8KgyRhdx66730PP0cd11bhNUI3pAERl57G9+ckEgAfRfVHLW9nLUfbuCJZ9ZgfGcXz/78k0CvyZvFHfc/yMNFscSGXOR2CiGEEEKILwRFVVX1vKXWrRt8fa5UfG4n/V0DaG1hBJ7jVMTv7ae3s4NeN4AGvcGENdSMQQN+nwtnfw9ubQihgbrBf/e00e0ENHqMQSYC9SoDPj22YAMK4PM46e3qpM89WL/OGIDFGkqADvzeAfoG+vBqrdjO0ijV58bZP4BbCSDEZEDBj6e/j96OHgaf96vFGBCMJcSEXvPxQrj6eunu96E3WwgJOKluvwdnbw+dvScepas1EmS2YA3SD9bd14vLpaK3WjGer0Pe76G3t4fu3jM8ltcQSLDZguW8lQghhBBCiCFlypTB1wW4sB7+devg8cf/lSZdEC1wIc960gCWE68zfRZ8hn9/ut6T55XXAtYTrzPVZz7D+ydTANOJ10f0gO3E62yMgP0snwV9qo0n0594Xagzbb8QQgghhPiCu6SB/wR1yhSUyZM/U3uEEEIIIYQQ/xp1/XqUixx5c1GBX5k8GR577KJWIIQQQgghhLg0lMceu+ih9qdPdi+EEEIIIYS4alzZWXpOUFUVn893Sev0+VXcHv8lrVMIIYQQQlwYn19Foygopz/mSJyFTqfBaNChucQ7bUgEfr/fj8vluqR1en0qvS4Vz6U9jxBCCCGEEBdAo4AKXMB8kOKEULMBo57BGWEuoSER+GGwl/9CZgi9UH4V/H4Vn0/+yoQQQgghLjuNgh9Q/ZLFLtTndXIkY/iFEEIIIYS4ikngF0IIIYQQ4io2ZIb0CCGEEEKILx91oJZNq8vYWtFDz1nKmK1BpCTHMiIvkdiQoIt6AKmQwC+EEEIIIa4gVXXT3dFJXX0XXWcpo23qpOp4G9sP1jJj6jDGptkxS4q9YLKrhBBCCCHEkBGdlcWcUUkk2vSg+uhtPcaGjcc4UNtPs7ORpetKsAYbGB4fgh65IfhCSOAXQgghhBBDhiEwiMgIGwnhBgB8EWZMA/209VdT3uqjq7aOo3XJpEZaCTNc4cZ+QUjgF0IIIYQQQ5ZWF0BsXAhmcwO0DoDPRUevl34PYABV7aO9rp7iklqOHO+loc+P2w/6AC320FCGFaaSlxhGsF57Wt1qfzMHdh5ha1knDU4/BrOJ4SNyGOPoZ9eH5eys68cJKEkp3DUxlVRbwCfLuts5sreEbYfbqe71oxgCyRyWzvR8A0eXlrChtpduQAmN5itzc0gPD0Z7ha5ISOAXQgghhBBDmk6nQaP56GlUKj7/4DOXAFqKD/HWlipKGlwMuP14fCoqoGgUaus6OVJRz77Rw5g/KoHYkwb+e1vLWLr6CFuPdtLm9OLxg0bbSUNDB0ezzPgqO6hrG6AP0FijcXn9Hy+rOqtZ/UEx64+009znxe1TQaOhobWD8sZQ7BWt1LYP0A1ofME4Pf4rOvhIAr8QQgghhBjSutqduPo9J/6lxRSgYDiRYr2qSmJaEoWT4oi0BKDTKPhcHRzdcZAPD7fT3Olh/5ZSUmKthKSHY1JA9Texa2M52w+30+TyQ2AwU6cUUpQShqG/ms3rK9jT5aL/DG1RlW5KNh1hU0kLdb1+/BojY2YUMiE9ArPawu4NpWzrddF7uXbOBZDAL4QQQgghhibVR29jOWt31XG8xQeAxhpOQkQQVuNgEXtaAZNSFfQGA3qtBgVQVQuRajv7m/pornUx0NtGdVM/BQ4wBYK7vpYd9Z00ufyoaCgcVcikgiQcITo0fhPBzh4qO/vpaPWe3qSOOnZUdtLY58cPJA7PZWphMqlhAWiwYhvXQ2VLP23Nrsu3n85DAr8QQgghhBgy6ksO84+aCow6BVDxeVz09LhwelSUgGAmjM8i3xFKgDL4uU7rpamygv2HGiltcNHpUfEDqneA9u6Prgr4GPAMDgUC6GjqpsvpxgdoVDMJDithFh1aAI2RsMRwUoIbaGz14vxU+/pbOqjvczOgAuhJdtixWwLQKoP/Dk6MItN0nGpcdH/+u+uCSOAXQgghhBBDhqe/n9b+UwfTmK1BFOTFMSI/mSyHHVugFgUV1d3ItpUHWXO4hfo+DwNuP76zDJZXT7wAfF4/6kdD8lUNAXoFrUb5uISi02LUaNCcoR6/14dPPVFO1WIwaNGcXFCvw6goZ1z2SpHAL4QQQgghhozo7GyuGZ1Eku2TOTe1Wg3GAAOmQAOGE8N2ANorqthe0cixdi8+tKQNz2XGsASi/z979x0fR3E+fvyzu9eb+unUrC7bsuTeMK5gTOjN1BASCKEFCDXkGxJaSEJCS0LgR0mCA4QSeigGQnG33Jts2Va3rN7L9TK/P04u2HLFDTLv10t5Ed3uzNzqLD07+8wzDgNK22Ze/qKKrQ0HTq0JCxCHtaxWgDjx9wKQAb8kSZIkSZJ0wjCYzCQlxpKeeOAi+wG3D3cg3J+aY2NIfhqDc5OIURUCXg2DOnAwHhNvxmDSgBARtY/W9iBeH9j6q24G27qp9QX2SucBsMTbiDXo0BEipATY3urG4w8Tq4uW/VTaOqj2D3zu8XIiPW2QJEmSJEmSpIOmaipKf7lOgZfmLi8eX4RATw3zSuppaAkOeJ45I50RCTZiNYAgK1eUsbGuE28YQn01fLm4gbrWIJEBzlWTMhmTaiXWGO21fE0pa2va6QsKhL+JpfOrKW/3EzhK7/lwyBl+SZIkSZIk6VspPjuZvPgW6tt6cRNk/aKVVK9ejybCpCeoKGYdBPYO+lVTKpNOamFbl5fV9X7cLQ2883Ynnxg0EAEcCSYSTXr8wQBeQFNUlB2JRFosoybnUNXiZck2D56uTj7+z3zmG3WoBNElmXDpNNxEcAOoKjtzkI4TOcMvSZIkSZIkfSvpYnL43hmjOHdsPCkWCLg99PpC5I4s5PTxKSQ79t5dF0BBhyOzmEsuHMf5o+NJM0dwd/fS7QuSU1zMRdMyyYnX7wyUXXYLZn10nlwRKqakAs65cAIXn5RErgP8PX109vhJysvn0tMKGJxgQr+jsxgrVp3uuO2yC3KGX5IkSZIkSTqOFFMGU89JYsysaC6+3mQmxqo/4HkAiqLHnpzJ1NOTGTUtTDAiUDUNi9WEVQvz49Rh+ILRxByT1YrDstu5OiOxKdlMOyOFsTOi5yqahsViQt+0mg+DwZ0bbyXG2DHpd4XNimrA4czgpFOTKD551067JosJu3sLS0K7ynmmxzmwGnTHdZJfBvySJEmSJEnScaMoeuwxeuyHfb4Os82G2bbnK3oS4kz7PE+0l/N5eR8JrnQKUuNJMGgoIkhvSzlzF26ntj+HX7U7GTLISox5V8guvNtYsqIdc2oK2elJuEwaigjj6aphwbxKtvbn8CuqnRF5CQd9A3O0yID/f5hQAjSVbeWLReWU9oAizIwcP5hZU3KIO4jHTl01W/h86SZWNkYfjQ0dNZRTJ+WRZjwGg5ckSZIkSfomgm42lVZSNa8Co15DVXZt9NXX58cXFOgsMZxy6ghGZ8Ri2i0RXkS8NG6tZtXickJ63c4a/pFwAE+vH08wgqJZmDRzFCdlx2EbOLPomJEB/wlEBDvZum4Tcxe00HSAY+PS0ph2cjET083fpEeCfi+d7d00dQoUEaSrL7rr3MEIB/x0dXbT1CJAGEju8xMcaDn7UdJRUcrcpeVsaI3+f8XoYMrUYUwtdrH7TX771vV8vKySja3Rkl2TZxYxZUQq9uOYSydJkiRJ0nGWkM95U2H12mo2VvdS1xMmEAbVqCM5OZYhudmMHJpBVkoMduPXN+FSLJlMOy2MY3UVKyo6qW0PEQgDOpX4RBujstMZWZxDdmocMUbdcV80KwP+E4kI4fP00drSdcCAP2iJwx04htH1CSjs99K544YDQOllZVk8g1xxFCUZv3ZcR0f0OFVE6PEGD/qmRpIkSZKk7yZFbyUjp5Ck1DymBSIEI4KIAEVR0OlUTEYDZqMeTVX2yr9XFBMJGflMScxk7PQw/rCI7r+141yDHrPJgG6Ac48HGfAfAiGCuDsaKNvcQp8hhYnjMjAf8iyxIODror6yitpOA8mFxQyNH/jI2NQ0pkwu5qQMy16vaXo9Nus3md3/DhJh6jbVsmFQImnxGcQd58dnx5q7Zh0LqnzEZmRTnJmAzXDoFyCitLD2k0raLHEMHpFFqmO3KgOSJEmS9B2j6QxYbQash3GuquoxW/WYD+fkY0wG/AcgCOPra6d6SyXLNzRR1uzHq5gYOiqW8YfQTiTopa2hltXra1hb0UuzJ0BCRhaz8vd9jqbXERPjIDXpW/BJOkEEfd2s3VJPfkY8Y9P+t66b8LvZVFZLTUktJrOZvCEpTCrOI98Vg0l3kPMLSoiu+hbmba/hk6WlOJLjOWlkNmMK0ok364/7I0lJkiRJkg6dDPgHJAj6e2iormTF6nrWN3rp8frxeMMEwgJLvIVYh/mAF0+IAH3tDWxaW0FJWRfb+oL4fAF8gQgRTUeSwYD9CC5wFSEPrXU1rFpfx8Z6L+3eCBFVweowMTgnnTGF2WQ6begP4dmSIERvcy0rV5ZTUumhO6yQlJLMlPFDyDiIhxsi0M32ykqWbWikrNlPXwB0Bh0pqYmMGVFAUVYi9t0upOiu5eNFm1mw2Q2AMzePWWOSsLRtY8HaZqq6QqQXFXPahPx9rOaP0FaxjQ1ZyWQkZZN8oF25FUGgt53aqmrWbWmlvMlPT0AQURVizSYy89IYOzKHrEQbuzclOip446ty1tREC3alDi3krJF2fNWVzN/QTr1XIS4pjokTihiZnYAt3MrmNVtZUNrGtp4wqsFEflEuM0ZnkuYwo+7xpEgEeqivLGfZhiY2NwXoDQpUo0a6K5GxYwoZlhGHdY8PoOaw4jIpVDa4ae310NXdw6Z11djjHBQPHcT44Vmkx5j3+/NXhIkElxGtrouuDh+dPR5a61r4r2UtWYOSGT+6gKKMeCx6GfpLkiRJ0reFDPh3Ewn66GjaxpoN1azZ0kOTN4DXE8QXEhgsRnKLBjGxOJuclARirUYGiiWjTwTaqNpcybINzWxp8ePxBfD6woQ1jXhXPJOKcxidnYozzoz9CE1C+zrrWbV8HV+s7aLJE8QfjBDuT/FX21QatneyfMN2Jkwo5PSxmcQcRLaHwEdj2WY+nb+ZlY1+vIEIEQFtHX3U1XeSnRDGs499o4USpq+hkq8Wb2bRll56fUH8oWhuHIpCS2s3W8ubKBpbyKwJ+WTZ+wcUDtDb20tzay8AEUs18/9bS0dTN9vdIYJhgTXLz57LFxRhITMDvH4fza0eVpXWkJkWQ0Jewv7fo6+B5fNK+XxdK82+MP5Q9D0CtKoqtU2drN7UxGkzR3LyECe2HXFu2E93dw/NrdEqu2pMBZ/Vh2ls7qHJEyIYgeb2Xuq299Ay1YnS2MGasjaavGGCYYGi9NLS3k2rJ8KFk3LJjt31afI0buHT+VtZUd1Dp+fr1621pYfN5c0UTRzO2eMySbXtSrgxOody7sVZTO9oYevWalaua6Gys4+eHg9tze2UlGwkJjmOCaPymZCfQpxZP0BeYSxDpk/lZ+N6aa6rYc2GWlZUeWhv8dLd5WZr+XZMZjP5hRlMHZlLdqINg3oiZCdKkiRJkrQv//MBvyCEp6uRsjVbWbqxk5reXbPwikFPRnY6E0flkTcogXiTHovJgEGn9gdKu2ZlQ4FeGqu2snRVPRsavfR4A3h9IQJCISbeweQJOYwanE5qvBmzyYDZoEc7QJzU2dDA+/+ey2d7zKYqmCgaWcCZM/NJQCC8LZSuLeXDpa00+yKY4hOYPGEoU4c6MfhaKF1Zxpcr22ltamF+iYbBbOSs4SkH/OH7mupZtm4rJXVe/GGF5OxBzJg0lGKXkd7tVSxcXs6m1oGn+UOttcxfUsqn63twBwTWJCenTxrKxLwYfNvL+e+SSlbX9bBqSSkGvZ4zJuaSPMDTjo76LtS0VCbNGsFVmbEYFTCaTNgs0F2/+zXRkZmfiK23i5L2Dtob6lm/1UV2cuz+8/IiEbRYB5OmZ5OZmYTdpKGIEO7mcr5cWMXqWh9tjU0s3lhPutPBsMSB6/m21naTOHoYF5w2CFekjs8/30JJlZuerg4+/7ybmOQUZpw7g6EpgooF6/hsfStNXh9bVlSyJTsRZ2wSVkB0V/DpV2XML+uiOyjQ4p2cMa2IsVkxRJo38fGX1Wxo6mHlgjUYjSbOGJWGs78usKoZsDsM2Gw2El3pjBwfoLejiYqyKpaWtlHT2UtXt4eWula+MBvJHORk3NghFGfEYdVFP2OKUDFaLBgtZuJiY8nMH8YsXzdNNbUsX1PHujoPrT0eurp62Li6HFu8gxGF2UwamYXLZuB/bNmEJEmSJH0r/M8H/Hi7Kd+4iX8uaMbrCxPR63Glp3D6iBwKs5OIMxuwmAzR+qz7aEIoQTobtrPwy80saAjij4A9xsa40dmMHppBWpwFq8mI2ahDdwizoZFgkN7uIL17fF8RQbr7y2cKJUR7fQubNrXQ7IsgNCuDh+Qyc0I2aSYdirARq4To7nPzySYf7uZmtpQ3UpjlIj9m330LxU1jXTPV5R78YVAc8RQW5XLyUBc2nUo4VuDr6KZxex1V4T3P9dBQ00zF1l7cAYFiiWXkmMHMGJ1JolEjEqfi7/bQ1V5LhaePdeUN5GYmkZzl2Psa2BIYNWYIM0akYdOr+80hN1jTGZ5uobGxh/b6IGUbt5E7KIHi/aUemVIYNdaJUDUMeh2qAgoQjh/MhMZeGlrrqPGEadzeTmOnm/xEM4YBFmpHEpMpHpbOsEHxGJQgubHb2aS48YgIPreB0UOyKS5IJcUEliHbWFnXQVNTmKC3j9YeP94gWAxh6ssb2FzfTXdQgGJjypQipozIwGlSIWEEM9t7afU0sq3HTcn6GqFTIVIAACAASURBVIoyY0hIc3xtu25F1TCazBhNZmIcVpwpGYw8yU97ex1b11azdGs3jW1eurr6qIhYiHNYGJyw5wJwBU1vxKY3YrNbiI9NJHvwcM7tbaO2ppqVKxtY39JHd4+H9kY3psREpufHY5cRvyRJkiSdcGTALyIE/H56vdGoVacqWM0GkhIcOBNicBxUACMIh0J4+tN/UBU0g44Yu4XkeAfJsabDKskUm5bG1MnDmTRozyo9KiaToT+H3UtnRzfNDSEigBJrJS4tnlRTf81XRcOaGMsgp4P4TT46IiE6uvpo6fKSH7Of8NnfR3tnD22eaCAZmxBDRkoCtv6nG5o+ntTUBJKTtlPVsEcA7O+msbWL5p5o3o09KZ7s9CQSjdGbJlUfS3JSDPGxCngEPfWdbG/upjcrhj03yUtKTiArJR67Xj3wNVR0JOZlMLqqjYbmJpo6m9lQ3kRM/D7yjogGx8LbSNnGKtZVdFHbFcITAhAEvD7cvuhx4WCIcHjfZVCTk+JJibFhUAHFSkysAZMZ8IDiiCHdaSfWFH0PJoMenU4FwiAEkUi0lJegk7rqXro7IwhATU0iLzWWRFP/jY7OSqrLjtXSAj0hfHVNbGvPJ99l3+fnVFV1mMw6jCYDemy0xxgw9D9aCgVD9HqDhCIHWoyhotMbseuN2CwhfJ1mHBYFTQURjODzBPCFItFyZJIkSZIknXBkwG92kDu0gNntZZRs7GK7P0hN+XZe296CxWEmOzeVyUW55KTGYt5HfKwIA3GuFE46ORPvsgZKWwN0t/Uwb/5aSpZtxpkcy9gRWYzMSyfxELZW1nQ6HA47roR9JaUIBIJIJEJ4xyy7TkPVa19LrVA0Fb2m7lxzEIkIwgcK8kSEcCRCuP8wvU7DoNN2Bt0KKpqmoQ30CRIRwpHwznP7Gup4/82Wr6UmhQN++vpvJoQ3QNAXJDTQNdBUdJp20DdMmtHJiCIXZQ0dNFcHqNlYgzktROc+Cu93VpbywcLNrKr14vVHa/AOGLge4HLpNXVnnV6BiqopKMrOFzHoFHT9r+7zzShhQsEIkf77ikjLdt54rZX3dbuuWyTgo9vT/2ZCITz+cHSzs4ECfkXg726msqySJaVtVHV46fMG8fjChFWV9HQn40alkXqAleMi0ktrbS3LV9exts5Np9uPxxfEFwKDw8bwwhyGp1gxy9l9SZIkSToh/c8H/IpiJC45j1PPymDiNDfNO0pnbu2jqcdDe0s3G9dUYndYyC9I46Th2WQ7YzHsEbQZrPEUjDmJ9EIfXV2tVJRVsGxDCxXtfrq6e6mrbeITiwlnajxjhkcX7cZZjkKEJATsGcwLiBD9OlwRIYgc5hTuvlKTdhAiQK83iNsviD38IfbTsGZkMi6njfqm7dS4O9lUFb3J2avfUBObS+vYXO6mOyTQYhM49eRCJhU4seh9VJesZe7KerZ5vvGgDk8wSE9XkJ59vCwUH119YfxB2L1YfsjdQVVVBctXNbKlxUe3L4DPH10sbEqM5eTJ+UwsSCXJYcZiNmDS7/05FMJPZ1Mt69ZUUVLRS1tfAI8vhD8YIaIZyBuaw9TRueQ6HdjNRswmPQdb+VOSJEmSpGPrfz7gh2jag9miw2SxEBsfS2beEGb2dFFXXcnylfWUNrtp6PXQ2trNmpXlxCYlMHFCEacWu3bmcyuKit5gIsZgwm63k5yczugJHjpatlO6ppJlm7tpaPPT2dVLbWUjc80m8ofmMmtqMdl75rEcEhN2h424RAXaBHR7cbf20iWSie0PwEJ9Hlq7+miPjhS71UycwwQE992s0UKM3UqsHpqD0NXVR3NHL8FMG3oEgl462rvpHGjRrtFKrM2KQ99KSxAcGYOYefJQJmQMXEgTFIxmI1YD4P4m1yJK1cUxeFgqBds7aNziiQbEAwn56fP1p2EBzjQXQ3NSyUq2oBCiCYEy0GOHo0QRDpKcpugGHm5QUzK47NRCilPs+1y7YLSYsfWvI/a3b+XLeeUsq3bT6Qvg84YIhAV6u5VhYwYxYUQOGQlWHGYjFsOu9Qq7E0o35QvXM3dtK3W9fry+QLQ6k6qSkZHMuNEFFGcmEGszYTHpMWgHkWolSZIkSdJxJQP+3Sgo6HQGbDYDVquVxMQkhhT56Opuo6KsguXrm9naHqA3pMPZ0ss0XAOW5lRVDZPJjMlkIsbhIDU9j0kz+miqr2HVulrWV7hpc/swt/TQ7uEbBfyKMOBMS6QgP5YNbZ30BXrZvLmKRSl2ZhRGq/RsWFfByk1uwoDmiCMz00lu7P7rqCuKg9S0RNIz69hSESTU0camTTXkJtsZkWKkd9s2Vm5uoMI30MkOsnKcZOc0UbXFR19TC5vLHWSmDGWI04ZRgXA4iLevle2V26jwxJBdkMMwywEzZw72qmByZTImv5Waphq2dg/cqlBV9Kq6Mxumo62Ltj4PAaHQsbGcRRVt1O/nnuhIU4SJnKJkMivbaaz2EmhtYs2WOFKTHBQ4bRgUEOEA3t42qiu3saY3hpOLs4g1R/8ZBzs62FTfSW1bEKEZyB4yiJOL8yhIiyPGGp2F1x9gi2+heGmoaGdbQzftETAnxTJtZA5jB6eT7LBgNe9/AbskSZIkSSceGfDvw44Ze73BhM1uJ9mZxujxXjpa69m4pZWgbs+tkgZsBVWLbrtssliIi48jO7+Q03s7qK2oZHuv/oiUMdQ5Uhk51ku3ew1flnroamri4/c6+epjDUWE8fv8eLwC1Wxj1Oh8Th2ZhuVAEZtQsKcPYnxxJ41tFWzqCrFtcwUvbqvDqFMQio54i4ozQaGu7etXQhEqltQcTjnZjyewmWXVfrZu2ML2iurojLASzTwSkRDBYJC47AKSs79JwtHeFNVKTmE6hbUdNGzopm+gYwzJ5OUkkFzbSWtrGH9bE/956ws+M6hgMeBSNeJN0OI9okPb36jRO4dy1vQAwWA5a+p9lK/bzPNbK3det+gi3zDBYJBgZgFFQ3a7bgKS05LJHZ/N8Kwk4uxGzMZoGdmDD9Aj6MwWRo9LIX9kDulxVhxmPab+MrJyNl+SJEmSvn1kwH8Q1N3KHDocdlIy8okoOvYsZLg/iqKg0xuw6Q1YbVYSEpIpjijoDrQT7EE1rhGTksOsM2MpKKhk+bo6Srd76ejYsdOumeGF6YwrymNwVjyx5p3LR/dL1dnIGTmSy2OsLFxWzrIKN919IUzOJCZPHEa+sZ1FizdQN+CQzCTnFHFZvJPRW6tYWdrIlgYvHb4IEcBq1pHsiiOnIIMRgzPJdQ5c3/4bXBR0cVmMG9ZOVUsf65v3XrWrYMA1rJiLDBqxS6pYs82H2+MjJjGdU6ZkY99exafL62g5wiPb76hVPUm5w7k8IZVxW8tZtb6BsgYPHQFBBDBZdaQ44ynIT2fokCzyE3dVcLJkj+L89AiqLpqXfzj7YSkimbFnxzFS1TAa9egO8ERAkiRJko4U4W2jsqyCJRtbKG+LptzqjQYyMpOZOGYIQ1JiZIGIw6QIcRArMR94AB58EO6/P/rfR1g4HMbr9XIwQzlYoQj0+QSB0LepVmAEv8+P2xMmBGh6HRazEfNBr4YUhIJBfP7o7qzhCKCAqioY9DpMRgN6bfcAThAKBHB7g/jDAAomswGr2fC1uu7h8I7NyEQ0LUjTsJgN6Anj8Qbw9ee5G01GLGY9+t2HKyIEg0F8gRCBHWMCVBV0mobeoMOo1+2qcBMJ4fb68fij/WsGPTazAeMAu5SFg376vEH8oejYLVYjFqOe3Z+9hIMB+ryB/mMGPi4cCuD1BfEFo0G1TqfDatajhIK4faH+KjgaNosRs15DQSAiQXrdAXzBaBs6owGb2dBfllMQ8Phw76ygo2G3GDH1lxaNhPz0enaN22w1YTFqezztiRAMBPH7Q9GfZf9bUvqvm2GP6yZJkiRJJxpNVYgA4gCVAYUSortqI+/Pr2TtNjfuQLTQhOjfZV6v12GyWBk3dTSnj8ogeV9lE78DEmNM2C0G1P3N2h1GXC5n+E8oav+ThMM9f9dThINbFqCgMxiJMexZlvHr/zA1TY/Vqse6V3VQDYfewN7bZe3ehYreYES/Vx/7OlyHzarDtt/tcft71xuJ0R9g7HoDMfqBHqPsOk7rX7ex1zXTaRj2+ln0L9JW9Tjs+oHfu1AwmM0Y9vEISNUZiXEc6Hrsum7faE23JEmSJJ3gAvVlvL9gC0sqPPhDgpj0dC6cVkhxqomeig28u6iO8tZuFn+xCqvJwCnFKcQdfJVzCRnwS5IkSZIkSceJUHqp3tRMbW002FdtSUw9eRgTh7qI0akkO4ZxarOHvp5mGtw9lJTVMzgthrjkPTcllfbnu/tMRJIkSZIkSTqhCW87tS19dHqjT9Bj053kuGJx6KJpsDpDAmkuCzZrdPVhZ1UL9V1uPDKh9ZDIGX5JkiRJkiTp+BARQpHIzj1Du6rKeXFODXpt15x02O+jzxc9IOIO4A+Ev9Fmov+LZMAvSZIkSZIknRAigQA9gcA+XxfCR7cnhC8osMk8/oMmA35JkiRJkiTpuFDMDhKtJqy6brpDEJ8/mAun5DM4aV/FzxXMFhNmGewfEpnDL0mSJEmSJB0fSjyFxUmkpBhQgO6abaypaKJT6IiNtZEUZyPebsAg2mjYtIaFm5to90aOyMal/0vkDL8kSZIkSZJ0XChCxZpdyPlTAgS+rGZjk4/1y9azdW0ZerV/i3chiERChAIhXMPjKCr4Nu2xdGKQAb8kSZIkSZJ03KialdTCcfzElc6msgpWlrawtdlDZ0AgAIfNQEpqAvlDMxlVMIiMuIH215H2Rwb8kiRJkiRJ0nGl6Qw4kjIYE+uiaEx0p90dlXhURUHTVPQGHQadjv1tQisNTAb8kiRJkiRJ0vGn7Nhl/ngP5LtHLtqVJEmSJEmSpO8wGfBLkiRJkiRJ0neYDPglSZIkSZIk6TtMBvySJEmSJEmS9B0mA35JkiRJkiRJ+g6TAb8kSZIkSZIkfYedMGU5FUVBUY5cYVVVCBRFoMlirZIkSZIkScecqoIiQMhY7KAdrSt1QgT8mqZhsViOaJsCsNmOaJOSJEmSJEmSdNSoCkd0AnyHEyLghyP/5pSd/yNJkiRJkiRJ/7tkDr8kSZIkSZIkfYcd0gy/mD8f5YEHjtZYpANwt6xnZfU2wkmTOSUn9uh2FuygomQzzf5YCqYUkmQ8ut1JkiRJkiRJBybmzz/kJJZDCviVefNg3rxD7EI6UqzANABWHZP+8vq/WHxMupMkSZIkSZIO4HAy1g8u4J8+/TCaPgiBXurKNrFoo43TrshDV7uBdXPXY/3eJQxJ7D8m7KW9agOLVjZgOfkMLihMODpjOQG4m9exeVstSsosRqeb9nq9r2k1S8orCbtmckZ+3NEdTKCNzQs30OhLoHDmcJIPOMPfx/aSxZRtB+fYceQmGqCvnmXLq3Dbc5h0cireFUto8MSQMXEiqfajO3xJkiRJkqTvtEOJz8UxFhG9om7ZS+LOlGSRMvQkcfZ9H4qKdo8IiG5RPe8Z8dsxM8RrG8K7nRAWge5KMf+Fu8RV0y8U722OvhbpqRVfvHCbcLlcwuVyidTiU8QVTy4UXTtP9Iv6DW+LB87LEC6XS6QlnSwuvfxdUS6E8DauEa89d6/44VOLdx7vbVgtXnn2V+Lqp5eILm+9WPHS0+LXF/5SPPWnX4kzXC6R6hwpzr/iafFxyfviseuzom1Ov0Tc8kHFzh49dSXi7788a+eYxp17rXhxebQHz7Yl4vm/PiBufPSf4rk/XBsds3OsuOTav4vVnR5Rtfh5cdupicLhMIvEkReIn81ZKXr2uHYNq58Xdzx8sbjlw4r+a9kq1rz4oPhBf38ZCWeKm+75QtSIFrH6b/eLP1/3K7GgNrJbCx6x5fMnxKO/v0e8ua5HRJpXi6fv/f7O8Wacc5P43fxt0bZ7N4l3fvFr8asbXhLruiLiwMLC39stujt7hDcY6f/RdYqSV+4S99x3r3hvY7fw93aJsk8eEDecnyEGxV4sfvlEiWg4iJYlSZIkSZKkw3fMFu32Nqxgzl25pLhyOe+ulyl6dQ1r5n/AS3efRna8ed+PGhQVvT2LYdNOoWhKK/9avRXRu415r83hN6/beeaLNaxdu5yP/nIFzrKHufXtrUCAhtIPeOeVlzFe+xlr165lyX8fYtqIhdz/l8V0hYN43b10uwOI/m5EZNf3IkQIeKuYt3I+i4NTeXrtMt5/8Ye4an/Fw79/m6zrlrKm5COeOasI3T/nsrJT4N2+jNf+8i/mVl3Gu2vXsmbdlzx2djKb7r+DOSu6EeEA7s2f86+33mNNzk2sXVvC289eiFWdy0tLG8kYdxE/vPVWbvrBWfzikSd46JLh7K+qqKCV9XP+yhtv1zJpzgLWrl3L/A+uxtn0Po/83zo8hfFUG9fzzoJ19O04p2Uzn31SS0lVDoP0W3n2ydeZ1zKZVxasZe26pbxyRRyl7/+O3y+o+1pfEaWZ5U/9gktdLlwDfF182x9YVq9gsDlwxNox6fofNqkeAtXd2Jv1xNtsGGwx5M+4i0f+sYJlK28jv/YvXOhyMWj2z3l6WcNhf7YkSZIkSZKkfTsmZTmFu5HSVct4Vf875q2bTqLOgC0mDtNuvYt9nw6KitWeSmpCIT2VjdS2Cza0zcd2yaOcNcSFQRUk6iczbcU2npmzlq1nO3Cv66Jp/Tlc/FAByQYVkRTPj/LHcbkwYuhadxCjjpCT5eR7s6aSlWzAOWwMRWdcTIt6IVNHuEjUdGSlKsT3LKep/ccktW0gaOrm4p9fxLhkMxpJWKdPZ1XTh8xfuZnvnQFKKJ+pWbO48ZzhJBtVLMVjGVLWQlltKx59Cla7HavVjCMmFodZv//htTWwzBdL56wZ3HFKHkl6hUjSRE4tWcqXyz7FY7uKKXGtrFiwjqpzRjA8RqGproRyeweZk6fh6vscv8vN6WddyLQ8JzpFEH/yLBYt+JLqTyvYPtq16/KLJEZdcy/PXnI7gQGGYjBbsVn3ziirL/kXr7V2EzflJxSnRe8tNYOVGIOVmNgELvtNIef8n5/qlU9Ruu0tVg26hTEpspaqJEmSJEnSkXRMAn7FkszgomK+99H3mTI8SNawifzi6Xe5aOjBP2BQFBVN0SHCPty9bkItMH5cBgYVQEG12ElPjiG/p4Km+jH0tbSwOpjJldEDUFQ9ZoseM+DrOogORTJx5kTSUgwoKKiqDp3JgoYFvdbfpypQRYiIcNNb28zCJ//Nh898wi1afxPhIKG+PGZcegptZ8TAoFhiC9LJMEYP0DQdOk1DRCL7v+EZgLe7hY61b/HSqw/xzsP6/gUcEYJeD4NOvoKsQAKjx5pZv3gFpVUXUDzKx/aSCpLK4xnz/VTcWztZ8/rLvPfQv/nljhn5SBB/TzqnXZNHR89uAT8qequdOOvBJt572Pjh4/zhzU2kzLqNn80eRYy2x+V1l/PRI3/g8b/NpWbCRdx5548YniyDfUmSJEmSpCPt2Gy8pajEZU7ixkfXcOVvemlY+SEvTHFxc1I+J/3wt/zjF9OJOUATXl8bzX0b0Wf+iBjRCxEFnbbbDYOioCoKGmEiEUEkEiH0jQatRgP9g4pBBSISoWDcWfz1d08zK2f3k3QYTVbUjhLQFBS9ekQ2PxBCINLGMfuBX3P/laPYPRTXDGasNisBaxHq2m6Wl1ZyTlqEEgbROmUsE7I1mjZHyJh8Eb//zb3MHv61szGarViopqr/OxGlmeV/eZLHfjuH+QOMZcpld3D3z3/OhDQF0beZ9x/9I39coXH6rb/mzhkFWI26nSvK65Y+xh8f/TPvfT6Gi++8kRc2/JEkgxmb1Ype7gohSZIkSZJ0xB2znXYVVY/ZnoTZnkjCzOt4pOxyHvA0sfzDuXz/jCYen3sme9eliRKBVupWLqB0ro5L/joci60DkoKsamoB+qv2+Ly0dHjZqssiKdWCJcFMfrCWtnYBCQeO2j2eZlpb1kLCBYfx7ixY0xPRj1DpFUaczr1r5Hs6DqPZ/TDb43H0xhNpFuicTpwDHGMoGM0pjvl89d85vB5IoaNpOyPP/gFxqhl3gp3umBCgw+nc+2zRt+u/FZHEqGt/zQuX3zVwSo/JgsWqIPq28P4fH2FBYwb3PXY3U/NtWPqjeEEjSx55hGUNiVzw21Xc95wRs9WCxaKXu79JkiRJkiQdRcch1lLQ9CbsSUkkDRrGrGtu5l+vnR+t9z4A0VvH/JceZsaDn9Hyg4e5tMhAbHwOgx3jqP/H+yxpF0CApm2rWVj2BeYrRjDYEo9rmBNTzhc8+1U5AL6mdbz+wG1cctm7bDM7iAkZaZu/krIOgfA3UrV0CZ++6Tm8dyTMJKcXYgtF+M+fX2NlpwB81JS8yF13fZ/bPq46YBuH3KczjTGD+uhb/TLPfV4DgGhdxwv33cuVt7zC+m6BqqaSOX4QjryNfPV+I8GmYorzYlFQSM0YT3p7JyWv/o1FddGEooZVz/Dze6/iV29uoG/3vlDRW2zEJCWRNMBXjN2KXvVQ9tVrrCWecdfezKlDHDuD/WgbyYy/5WFu+O2dTBnsJCkpBpsM9iVJkiRJko664xtvKSp6s4XYWBM7Urxr1i/i+qkunE4nTqcTV/ZM7vuXg7+99SEvXTUGowZqTDanXXYNd55eyVmDk3E60xhx9TNsnvA75lw5DB0m0kadyw3XXk7SC1NwOp1kDb2WV1eO5ufPnUluXB6TzpjIzNhHObMgmZSxV/LY1kHM/vlFh/1WLJmT+P5Pr2Nmwhuclp+M05nB+Lveo2vcXfzm1MyDaMGEK6MQY085/3fqbK699VNq93fplGTGXHsjt89OZtPsMTidTlIG/4i5dRlcf89FFDoUQCW18FQySWFrWyuBc2YwMr5/8WzKBG655Q6mW9dxzshknE4no6//HH/eddx8zlCsh/j+RdMG3v90OY8+/hw3nFFEmsu582eYfsEd/GlJI3qrHYvdIlN3JEmSJEmSjiFFCHGo60WPEkE46Mfb3Yfva99X0elNWPcMFEWYgM9Lj7v/aE2PwWLDYdy1OjQS8uN19+INAmjoDRZsDiMaIMIBvJ4ePH5A1WEwmjDoBIGIDrtJI+z34w+AwWZGr4KIhPD7/QQxYDPrURCE/V4CvjCazY5Bi5b29Hvd9Hn7Vw/oDJgsVmwGDREJ4vMHCClGbKZoTrsIB/EFdn2PcBCf143bB0aTBYvNwO5rXSMhH95AEKGzYDNoQISQz4unz9ufaqNhMJqx2EzsWIeLCBPwevAEQG+xYDVouzeI1+vB7e1P1NEMmC0WLEYdiggT8PgJCQ2D1birvX2JBPF4PHh8wb1f05uwWCxfm/GXJEmSJEmSjo0TKOCXJEmSJEmSJOlIk1OukiRJkiRJkvQdJgN+SZIkSZIkSfoOO7yynPPmRb8kSZIkSZIkSTr2pk+Pfh2Eww/4H3zwsE6VJEmSJEmSJOkIOKoBfz8xfTrKtGnfpIloO0IQDA5Q3UU6IhRFQa7NliRJkqSjQ1Gipezk31rpSNE0DU3TBnxNzJ+PcoiZNt8o4FemTYMHHvgmTQAQCYcJeL3yH8pRIH8JSZIkSdLRpSgKiqIQiUSO91Ck7wiDwYBqMOyM43anPPDAIafWy0W7kiRJkiRJkvQdJgN+SZIkSZIk6Vuna9XfuPr+/8e/VzfgP96DOcF9o5Qead+Ebzslrz7Lw/f/k/X93ys+ZTZ3PfgEp2QdaNvab6nWCv7xXgkvLWr/2re12HQuvmgiP5yahvkIdeUuX83T76zg00A2N1w0josL43a+JprK+PMblegLh3HZadkkHER7wl3L+y8v5bWlTTSjoA0u4vaLx3J2fswRGrEkSZIkfXNCaWTJI3/kyb++xbI9XjMOPo+bf/4zrpuVj+WYjKWOL+95kCfnbGf4fb/khh9NZZBlx2u9rH75Xj7qGcGss65gYuaRigB26z/sx+MLEggfuVQqoXSz5K838uA/FlPWsne7tu7Z/OKj27lwyiDsR6zXo08G/EeB8G2n5F/P8NZn7Vz3YSkzshVEx2beeeld/t9vXiTusasZFfctCPrbqnj5/TLq7Dn8+JKhJA9wiKd6A3Pm1SGyhnP1sAgBn5Wps4bzowsG49ztmH9++AH3bh7F1eePp9h5BN57JITPF6Bn43qWpiZQ5BzN0MT+dkUYvy9IJBjhYFYuCKWNkn+vpMybyk33nsHojF6WzlnCqk82kWIZxZg00zcf79f6c7Ph7c+Z58/glBnDKHIZBzimmfl/mUdd2mimzcxjkONb8HmRJEmSDplQmlj2+OOsaExl4u23MS5179/3orGERx8poS9nEjfclkbY52HsuTdy860/ZXRK/1o93JT+53Ge+veTCG7j+lkFxyDojxDyuun1lPDqm++SXTyIH0zJwtQ/onDAi88fIBT5Nq0jFIT8Hgqv/A0PnX0Ghcl7/o3WY7IY0e+vBaWLhU/8mLkxP+HH555CXqLhaA74oMiA/yhQjKmM+8F9jLpcoDOZ0akgHNmMzrXRvGE1bZ1XQ9yB2zkehNJF6YfLmPNGGWscKZxx5jhuOC3ra8MV3kbmvV/Cix/XUjcoh0vOGc+PxzgxdFQACnq9HqvFiK3/eOvQUVyrCp5/p5KPF8fhuqCAJMBTuZbn3lnOexs8AGi5g/nxhRP4fnF8/1g6WPX6Yl78qJJSQBefyZWXTuTyk1IAUBIyOf/UID2+ZkrKm8lOdDFQaC7c2/jg1aW8urCRRkAVFk6fPY0rTx9MugncZRV82msia0IeY/NisKoOTvnxBUwTKjq9hnDX8u6cdbgTzHTVtbJgQwttwsrZV8xgirGaf3+2iRUNAl3hCH5+8RhOz3UA0LtxMb9/cz2Lq6IPGodOnsxPzy2m2GVh2DlnkrphMY88/XdW1Ri44IczuXRKFjt+ryjCyeTrLqRmy43cjQAAIABJREFU4Sc88uDHbGlO5prbp3POGBeOI/kDlyRJko6L+hV/4cnH/8yb89P43g9/yk/vPo9hibuCfaE0UvLoYzzx5zdYnXsGP7rlFm47exgxNFEB6AxGrHYHjp0TQnYmTDmTj79YRmtZFz2zwNywmId+9zgvvLccAJNnBj/6/e1cd/1onIDoLeWNB//AX1//ihrgtOvuYUZ8LaHYYsbPuooip4LYPp9fPvQ4L3+8GgDLqTfy4J3XcfnwpJ1j/d7NNxGuqKZn/mKqhmZSmLj3TUv32pf4v//0MP60c7nspEGYgO61c7jnP32cfPp5zJ4YYcHNv2RL7lhYvoIPFiygDDj/rqf5YVErzzz1PP9d1YB15NU88MD1XDg2fWfbLaue4/sPfULJmkasPedy+xt3cNkZecQCQqnmw2vu4vFPl1EBWHsu4K63b+eS03KwK1V8eNUd1Ew+Ez78iPcZxy2/uxgroBnN2OwOHI69J+UiSiXvXnoLTyXP5nd3zeakjOhfZtG5hMd/dC+Vk+/m1iv+xi3lz/OTi35O2cZ8bv3n77nqtALij1PsLwP+o0FR0RlM6Hb7ofrqylm2poUyx0xmn4ApPa0bV/HPdxbxwdYIw8aM5MoHbuShVBW9TkOvU1HwUbVoOS++vZqFrUYmzhjD3U+cSY5dQ6/TMGjKPmfTFVUjdkg203LqKW1oo7ElH2vvOp5/cwu+vJP55835JNLO6reWsfTT9SywTWBKjpdVry9iQ2cS1zw8iyFJCo2rF/OPsnW85zBxjg5QVBILi5jZXcmysnJWp8Ywaa9Hhh42LyilRnVx/b3fY/wgM32bl/P0e+t432bkslOdNJe34rDGUZAWh1UFUNAZ9Dv/cQgRIRjo4t3FYS68cjrP3Wym/D9f8cJ7/6F98qlc/bOpPKCr4a05pTRtbqEx3YGtYjGPvFZPxqmn8+o96cQozSx+bhEfvgecX0yxy0jCiCk8XDiJEM0seXYRd/3zPRqSC7j9monMKozHYNSTM/0MHp8cIdxTxZv/+JSr/tRJ7/AxPHjZKCZn2JAkSZK+PUTzCv70xBM89soC9OMu4IabP6L0hQx0BgNGgx5Vge3LnuTxx5/i34t9TJ59K7d8sYlRaXoMRiMG3b6XXgrFQ9mqz6lIDDF5bBpJSj2L/vYKFtMUXvtqDiNdCrULf8/jX/6D1z53cO1pZlY++hdW9Q7lFx8+ytRcwcb3/sDjT72KedbDjDkNxPb53Hvff3AXXMfclVPJtLpZ++bD/OnN5xFcx+Ujon0bDHnM+NkkXvrzJj74pBTnlcV7pdOKcACP308gtCtNRoSCeHwBAqEIgghBr4f37lvLmf/vLv7x3HO0f/Iz7vvLjTzU9BvuefRj/pTayCc3/Yr6Bauoy00jAQivfpEv1Nv45RNzGe4yUv7RrTzwycvEu67n3NF+Pr/mDr5MOo/ff/ksRSkmOpc/z90PvYTgKi6eFSHocVPxdh2TH3ySl4vTSDJ5WPLp/n+Oqsjm7DmP4L70Dt54JYn4a08n37mNd39yPzUjb+LGK6YzONWC4rqNNz/+KUFRyYeX38j3rttM74TbeOrRa5iWm7DfpwRHmgz4jyKhdFD25ov86bYnWD/2TK69+2GeHZOA8URbKt1ezadlnYRHncWbdw3CrmkY9Brabvcl3poK5jb6SL74Ej4alYim0zDoNNSDvHdRFAtxiRb8PV5aezsw17SixSYwdngmmWYDCi5GjUtjyZfNbKrrYJyllyV+C4Yh6QzJMGJVIHfiVO4fL1A1jUB5tF1VtTNs6lAaXllH2Ypq0p2FZHytZwuDT5tFrlCiNW1VsOSlURTfQk+XF7dPEIkIUD1s/ngur2/cxrpu0CXl8JMrJ3LBaCc77tsmjspmTK6LeLPCkKGJxNcbKBziIsdlxKTEkmkKUNXpw+3to3VzC0NGD2X88CxSzSoK6UyY4uKz+e1UtPYx2GXEoGmYNA1I55SbZjMlLOgqXcRH2xooT7AxLNmAqtNh1gHGAq68PZdLI4KaBXMpq25me4yVdJnqI0mS9K0glCZW/GsF9sg5vLf8OYbEGTAYDRi1XUGBaFrGq6usOGa/zqq/D8WhN2I0Gr7293jH5Nq8lx/hsTee+Npr+pMu4/bbbuH6ialoAk665wkmCA2tv42hRafgemMF7Vu76J3gZXtbEs6MEQzOTcZhh3FnfZ/vLaykvD8mry3/DPtJaUyfMpVhyQ5Uxc6k6efw9mfrqF7dQOuI2P6eVfR5p3P9VV/yYNkHfFHq4pLivWfGD0bhVRM5adJg0u1WUkefR6Iti8EjxzMkLxGHpiN9vJU14S663H4SAJ1vFqeMncCQ3ETsKowYcw4x/9hKc30fntitvJV6JjPPPoWR+UmYFbDOOIsLn72d+i2T6JiQHb2mo4ZSkJFKisUIiheAZU/fwqsP37ZXnOO46EH+dtclnDyoiEuf+QW11z7IW8kKOfV/49mC83nwqpkUpVqi52lGLFYjUMwlb/yH88IR2kv+wpy1leTEOciJP3Yhvwz4jyJFxDHkvJv58+nX0dewkrf+8SuunnMS9/zxBMvhj8/klPxW5rzzAbPfUBgxYQxXz57MaNeuMZoyszm1poUXX3+Ds54xc/KsCVxz0ShyrQfbSbRGsUAg8NDd6sEcTiIpxorS/7ot1orJH6K7w01zTx9utw+9qu78x6ZoGsb+PSgCu7Ws2TMZM7KK/7doM9q6eC7N3KNnfwOf/Gsp/1rYSBMgiBDxGzn90qE7jylfWknarKnc+puzcJk8bPpoAXMWrsdmH8dZKYCwkBhvxh59BICqqiiqhqYp0fEpoCiAiOZRdjT6+HTxZzz/zhc7xy8iISL+ZIZO8OKBnTcSQmlh8fPz+PuyRrYn5nDz1cXkOL/+zE/0VfPGs4t5e30HXYUjuP+yJFLtJ9BnSJIkSdovRSQzevYIvnriSc4ddzfmky7l1jvv5LZJabuOSR7LRcXzePyJixlze4hp37+bO27/GWNT9v59P+Wy27n71pt35vADoOkxGo0Y+u8CtPbVPPy7x3jh3WhKDyKM2jeVH42biejuYGOvA12sE7ut//j4ZAY5YukChNJHR0MPy1/4O3++73F23peIMOG+IVw+fhx9nthdfSs6CiZdyrT3fkdpIIvilLMP6zplpsYTb7egAKqqR1WM6DQdqgqgomgKIiLYsb2QmJCKM8Pe/4Qe1IQURpmXoLb30LStmu4lL3DHC/dzz847owghr48Jgzs4xRu99pmueGIsRvr/jAMw9tpHefycAXL49UYsBj2gYEidwbV3LeNH99/Di47Z/OGRC5iQHbvXTUJEreS9K2/isWWb6Bp7E0/8IYu0uGM5vy8D/qNMQdUbMeuNmPOnct7l9TR+8gkvl8xg1BnZx3twuygqKcVjuGvISH4mutg0dwX/vPNP3BmXxnnnT+S6mYOwKFYKpkzjoYmTCXkaWfDhCn59/Twas/P5/oUTuXZU4n67EIqX3g4PpmAi8TYzYSHoj5N3HwiKALHb18GOP31iEWduWcSiJeWs3i2TX7i38cEri1nSl8KNvz6DcRkmcG/jPy+vo2+3JKS8ccOYODab3DgjCgbGjB/E3Jdrqa3rojMlOrYBBryvd4uICKacPpNfnD6E7NhdJyko6A06dEDvhoX85t8bWF6t49wrZvCbKzNJNKsY9Rq6/lNq533EHz8op6wxiatuns6zN7uwaRomnXrQT1ckSZKkE4GCLmMit//hZX76cJj6Vc/w1OMnM+j8QZx1w53cdve5DLZrZE+6nSfG/pQ/RBpZ/sSf+e3oNNYNPocb7r6dm88asrPanaY3YrHZse9j8kc0LOahh/9AmWUGb8x/iZEuBVG/kIceXNt/gCACCEVh595OCqgo7FgGLIRg6IW3c+2ZVzMtZ/clwCp6gxGdcTvlu31XixvLxT85i/97cAMfZGdRfBhXSd0xgXawtOiE4s5TFAWNaBARiUTQRl7FHx88l3NGprJ76K7pTeiNNVTCgJtbaUYTVpsdu30/TyoUDb1RRzjoI7ioje7uEKHd/jh3LH6cH/xyDptKc7jx2Ud562+5xJmNmIz6nX/njxUZ8B8rqoZOr0PTwoSOYPmoI0VRNQxGDQNJjDnndIq/dxrh9mpe/3AtT3a4ufaSoSRrGkZNw2gaxKzL05h+cQR37UZeWbSMv3aN4Jph+27fW7mNBRUevPnxpDgt9CSY8fZ46ejzQnL0l4i314PXpGGPs+C0hzD7QvR2euiDA5bzVFUnk2bms+T1Uv5botHuNpAN0NNDWZcJZ1E6w/IcWFUQnV5qAj5CKCAsxCSYqG/10eILoGABFFRNRen/ZXfItQWElTiXkT6vj6AAq3mP2XrFzYa3/suX3lQuufYq7nca0et3rJXYcUwz8/78FbWuEfzsnpmk29XojYKmHNw9hyRJknTiUTQMRjMGIxRMvo3Hxt/E7yPNrPzLU8x9oJKeO29nXKoBk9mAibz/396dh1dR3X8cf8/MvTcJCUv2QALIvoOKCAgiIouCVFbFpYp1F5dqxbUWXIqKa6vWpbVi7c8KLlSqIlRQkH0VIRDWAIYAiRCyJ3eZ8/vjBiQsZRFDmn5ezzPPA3Pnnjn3QjKfmTnnO/R+4DnOu+dpgruX8tLznzFhYz6335N27P0ARXuz2Jd0Lmd27s+ZzWoTY0GBP59AWd4RC1wAULCP7JIi9vjAMjHEJkezPbuYliFDTMzh88YOOz5aDvFdRjB6yINMWPsxu0t3Efkfurvnh9UUFf20WazW4lz29iimBMKBPu8HVpYkcnZsHeo3bEzk6vUUXWThxMRw6Cdwf+IB1Wz6J7f9LpNed0/m3uIJPD/lPeon3cBFrb0sev56PosZzVPvzqVpXCS+yIhKx/mqVt1Gk9cIJm89U56/hf5X38mXmeEfB7N3HbM/ncmcZXW5uNUZmNLtzHvtjzx5019Zua86lauysD0eIqN8RKe24NobBjJ22I8lNvdv43g9REX5SGjZiTHXDeCW/1Bjf/e3C3nh7Vlsqt2Q/j1akmLVIrVxPCW5uSxZnUUu4fkOa5dnYQpr0Totllr1k+iaaAhtyCJja3g83c7l3zDuxan8dcFOSo/QbyetPaPOS6Z4x3ZWpO8LrzYGlxIKS/yUloev+H+yYAt7Nu0hKr+MkhJI7dicc0ty2Lp4Gxv3GqCEtcu3kx1Zi9QG9U64oJJFDE1aJbAzYy2zVmWxqzwc8r/7+BNufeVrZm8J0f6ySxkz6hzObhRDdJQX3yG/BCyTRK/bRnD1sFa0SIygVpQXr8K+iEiNYTk+IqNiqB3dlF6/eYYxEw4ZnoOF44skKiaG2k178cCLd/LomHNIOc72jTFY6fkUbS2m2AKzYx4Tv1rOyi3Z1CnYQ1FsE/rUX0/J6jmkby7BWEWs+vwdPlk8l20V+2/c8iIS0hcx+5PPWZMTziqZXz3C6Afu4405mUc4FoNlx9J1+A0Mys5g1qR5LNsWvshZJy6VqA3b2Lz6e3JKwOSvYPbkTWxdHTr5LxEI2dOYsWgpmTvKANiU/gk5vSNo2iqB2ObtuCz+G6ZM/YKlm8O5wGz5lNGDf82E91ex+yc8rcu1NvHxg6+Q0LMvQy5sT99fPcZ1W2fwxceL2ZYbRY873uPx6wfRvmEsMTFRhx3nq5qu8P8MrHotGHrTWOL/9hpPd2/ALy3AuLTtNYR7H3uJAc0cKDeEAgH8ZQGqbXlay8brPcY5oW3jDQ+swxAO7p99/Dkzpn1x4D+2XbcBwy4bxh0XNqKOx8ECYlqczc3D4fWpsxj64WdYGBp36MjoIefSu2k0FrXoelUPeG8+kx5+jYdtC6deGleM6MbIrilYm74/Yn8bdm/PLzL2krOpMLyqfjuu7LGLl6d9wVX/nIE34QyuHdWeEQMt3vliNm87Njdc2oHh1xo+/tsiHrxzNjmWwW7RjjtHdGFwq7pYJXkn/NXV6dCTh0KGCR9NZ8TfA1iWwW7VkbGXn0nvxrWxbesYZ9vhkyrnhPcsIiL/XSwcX8R//n1vhe/CwxGuqh9F7XYXc+WQZUx8eQidJhhqXTCae+8ZykNZf+YPE59ih+dhbhtzGx0mTuTBHs+xK9SGIfdfQZ/O/SiuaMNpdBFPPxrigcdf4qKOD2NbENlmGL9+6E6u7NmYSI5wLMbCE9eFy28ZzKLsreyo6LB9Rn/uuvZzHn1hFOc+4RLT8WrGXjWQdlt/2rNu7LOvpVf9dB6/8QUWf7uTqOKLufNvA+jWMg6bWIa8MxH3urGM6/F7rrUsfOWduO65x/jlpe1Jisg8aruLX7mDvz9+1xGHz1715Jt0zv4rb7QcwvhrL6JdSiS21Y4r3niErdeP41nLYuyN/WiRUH1itmXMcY+U/tH48fDYYzBuXPjPP1EoFKK0tJST6Ur1ZQgFAwT8QfYP4LEdD17f/tn2hlAgSMi18Pg8P9t47P3j0qrkuzUuwaBL4LAzGAuPx8HrHPIhXZdAKMT+Cl22bePxHFwdyOAGXQIht+I7tPB6HDyOVfFeg2Xb4b9z8HtCBEJgH9g2RCDoEjKAFW7DNi6BoIvlOHgcG9syBAMhgm7FEB7LxuexcWwLjCEYDIFt4zjhM3TjVuzDsfHY4Wk+oUAIY1VsY1Vss3+/4Q8YbvOEBieKiEh1Z1nhceSuWxVDdg2hgB/X2Dhe73/MD27QTyAQDB+HbA9enwc7GCAQdLG9PjweCzcQIBAMYbCwfbuY++A4Vvt60vfum+iUbIEJ4fcHfhyObHvwer0Vx3RDyO/HxcHxVs4yxg3i9wcwFduHD8cV/XHD7fg8NiEDju3gcSBU7se1HRxPRVsmRHm5Gz6ee8JDbUNBPyHj4PF4sEwAfxBsyxAKhcJV94yDN9KLx7EPzEUIlZfjD+1/GKeNx+erGF7jEiz3Y2wvHo9TMXfAEAqEy4ceLTp5fBHYboAAnoqqhj8++DNQ7sd1fOGs8RMO9z6fD5/Pd8T5BSeTw6vPqUeNY+F4fDieo41Ns3C83tN+BTcQDDFvxRa+Xrrx2BtLtXLFJWfTpknykX8ZiIhIDWXheI9xR6CC7fERcWgO8UXg+MJVeFZNfpxnVkfRf+jtXH92MgWrF/HZxmRiLz6L5KQDJfIq5vgdpS9HuTth2R4iIivHTNvxEeFUbungLZyIQ9qyHCIiD15j4XgO2sbyElHRnPeoRW8snIjIoww7tvFEHHqHwcLxRhJ1zCI6zuEh2nLwRh5r1uHpocAv1K0dRZPUQx+RIdVdrcjT/6huERH572SZGDoMv5Xrlj/Bixd35CHbwuNvydD7HuLKK88mWdeSahQF/v9xXo/Dma1S6diywenuipwgx7Z0dV9ERE6a4zSh35NvcOH4UHjorAmPPvB6HRWJqGEU+KViAql+tEVERP63WDheH07VPgNKTgOV5RQRERERqcEU+EVEREREajAFfhERERGRGkyBX0RERESkBlPgFxERERGpwRT4RURERERqMAV+EREREZFTxFj7+PrZwYz98+ds/MF/ursDKPCLiIiIiJwylqlHr3unMrbld9w+uAOpdS7luWnr2XMas78Cv4iIiIjIKWQ7HpJ6jWX63DVs2TuRBq/fRJ8GCbS49GlmbtpDoKr7U8X7ExERERGp+SwHj9dLhKcNo6bNZvnOnXzzG5f5KzexvYov9yvwi4iIiIj8TFx7I1Mu60PnlBR6PGfo1qkpDeN9VdoHT5XuTURERETkf8Ceb55h1Ni3SF/bgl9Peo2ZU1oSF+HgcWysKu6LAr+IiIiIyClirH3MeeZq/lX3Vv74z1W0SPBhOza2VdUx/0cK/CIiIiIip4hl6nHBfdPohY1lW1V+Nf9IFPhFRERERE4hy3aqRdDfT5N2RURERERqMAV+EREREZEaTIFfRERERKQGU+AXEREREanBFPhFRERERGqwalGlx7ZtIiIiTnc3aixjDNZprP0qIiJSkxljMMZg27qOKtVTtQj8lmXh9XpPdzdERERERGocnYqKiIiIiNRg1S7wm4JtzPrwRfqP+zd7ASpukx26iIiIiIjIsVWLwH9wfs/PyyR9/Yd4msZTnv4xD/eJwnGcSkub7hczJd2lpsd+U7KZmVPe449vLKbgwMqa/qlFRERE5FQ6TYHfYFyXUP42vnptAr3Pe4e1gKGAvMy1FE6N5Npz2gKQ2L47T87MxXVdXNcl5Obx2ROX8kXfsxj0+JfsPTj/mnC7+7d1DwvHlV8/+E5B+M7BIVsfvO7gOwwHtW8MGLO/zSO3caA/h75+tDb3v1xUwOa8H1jluoTYzfI3H+KpEWOYsSl0WP9FRERERI7kJ03aNXPmYI0ffyLvwOAnf/savpn0Kd9GJXLGORfzxQA/UePHQ6iY6IwNnJtThzM/+D1RuRvovmwrgfyJMC8KAAtoRjnP90tl+Z9uYu3mkfRsUgsoY++mb5n73gy+wwITTWrjLvQdeT6Noy0gSH52OotnfMqi70PYJp4mLS5gwFXtqVe4g9VrVrPBbcNlPRoTCQQLsliVvoYtpg2Dz0uicO0yMpZlwhlnsPvrr1mLIblJe3r0OIfS9bOYvjQLu04abbr1ZVC3RkQCpiSHVUvmMm3uWgDs5OZ0umAAg1vHQ2AfmctWszErSFyqYcuX88jAENu4A+ddNJCO0TtZOn8WOct30JhYpr/Wg94DO3Nn4vcsvLQWT61PpE3nC7hwUHPqYaEiPCIiIiI1n5kzhxONfZY5mcvE48fDY4+d8NtEREREROQUGDcunMmPw8ld4e/d+8S29xewfctavspOYOSFzYiCI9SFD1GUu5E1Sxfhb305vZpGUJS7gTXLlhBodTnnN42qvHn5PjZ9u5oF6+pxyZVp7Fu5hoUb6jHw2g4kAFDG3o3fkj4vk/hLBlFv1yYy1vjoeE37itd/FDzOK/zfLtxBnX5D6NooEkpzWbMkgzW7E+h/eRviCJL3/bekr8skos1g2kZsJCNzA6H6l9ClYbjvpiSHVYvXs3FfEn0Hp7Bv2XzWbg3ResAvaB4HBPLYsnQNW7IjaTuoC4llW1iSvpk9kW0ZcE4qhz+pIDxEqHDnMrbn7iW68QCa1DuxfxoRERER+S90Ann85AP/CYb+elkLKX3yF9T5fR5ndOzBY29/yaj2DpZlYdsWpjyHzGnv8+6ylox47jFIClCY/ikLX8+h9LL7Ob9vfKX2TH4mmya9xztlZ9Dh7nakT36LyT2HMvi3fSq2KKdk5UcsTnyXUO8raLPpS/5U1oyXxo86LPAHdixhxeT/47PgMAbcfwGRQCBrEcsnv8+/zTD63teenA9eZ+neVbR/YAK0sjF717L6lam8/11rOo8fThxl5M2fxDdTZ1N72N3Eh6byl/s/5c2Z6yoNt7HdRlw4fBiNbxtI0eQk5i6qQ9L4MRBnYUq2sOXVf/Dv5bHUfeA26u6bxbzJM9kQO5zet3YNB35jcI2LW7SZma9M5NHfTWJ9l2Hc8ruXef6Spif4DykiIiIiNV2VTdqtk9adW1/PJRDMY9bL1/BNlyhqpXZkwLiZ5IYMpryUXCvIxot70Snp2COTykvz2WN2EtGnPin7Vx5hkm54BqxVMdbpBEYvmRPc/lAWNOw5hD9+k0swGDyw+N0tzPjgDs6NO/FB98Z12bH8TR4YHk+9uqP5x/fD+TAYpGjhFIV9ERERETmiKq/SY1Gbxj1u4nV/kLKN0/lt2kpG9nqXRXmZ7N72Kb3OP4u4Y7RhTB7bv53Dd5PWcUHPTqRE1SHe1Mf/1U52VmR0Qwkl2bspX+6l2RkNSEmIonVgC7tzD9TACVcKCpmDGz4Q8YuKdrBr1/KT+4wmkph69SitV8qKnbsrVfpx3RAh98RPJAw5rPzLb3n3mdX0fz6PIrOAd1+7hCYn1UMRERER+V9xWuvwW7UbcsEtD/LV/CHUz1zH5vcsmtePrbyRMYRCAQKB8OIvymL5e89y0w3vsHbkI9x8YTzUjadFmxjOyZ/EtC93EwgEKNq+iYVz1jKvztW0PzOR+p1S8DSfxasz1xAIBCjctpi/jr2Fy4Z+yPZascSFIvlh9gK+2+XHX7iVjG/mM2Ny6KQ/W2L9TrR0Y1j916eYluEnEAiwY9Xf+O39l3DD64vIP75vCAuDCQUJheI566YJPPjBK/RrqpI8IiIiInJ8qsWDtyjMZ1tGPrNrjaZjux+7ZFkWe9av4InBjYiOjiY6OpqYuKZc96dV3PnvZfzrkT7EAhZ1aTbgOm6Y8As2XJpGdHQ0yU1G8/7qvrz0+RW0JoK0s4Zz9y030Pgv51W8fhNTN/bnhWkjaRXbgl6X9WBg8gv0axRDvQ5X8Yfv23L9U1fh2OFwbdk2tsc5aDy+hWXbOB77QGkky7JxHAfbAiu+Hdfc/gh3dA0wslMM0dHRtBz+DjubPsYfbu9OXcCyHRzHrlRa6cA6C2qlNOFMbyFr7rmQy0bdzZeZqrsvIiIiIifm5MpyioiIiIjIf4XqcYVfRERERER+Fgr8IiIiIiI1mAK/iIiIiEgNpsAvIiIiIlKDKfCLiIiIiNRgCvwiIiIiIjWYAr+IiIiISA1WDQO/wQ0FKQ+4nJIHBBiXUDCAP3i09gxuMEjAH8TVEwlEREREpIapdoHfFGxj9kcvMfj3s8lzQwTKSyktPcJSVo4/dOyEXrZzJX9/5TeMeHYO+460v7Jslkx6ifsHPceCPUr8IiIiIlKznN7AbwxuMEBZWRC3YtW+vVtIz5hKRLMEytd9wviBCdSNjSchIaHSktylP9dMyTit3d/PuEECgXKCukUgIiIiItWM53Ts1LhBAmV+AkU7WPDhRzwzJY2Xv76G1hSwL3M9RdOiuebd1uBuIaHtuYx/6EMe7hv/H9oLEQyUEwiF/27bDl5fBM6RTmeMIRQMUB4IAhZWIHDYUB7jBgn4/QRdAAvb8eDzebEtwLgEg0FCxsJAIXTMAAAFf0lEQVQmRMj42bF8ClOnzSLykhf5VZe6OI4Xr88T3l5ERERE5DSqsiv8xrgEyospKtnNhq/f5K7EROp3uYKX9nThg6+voQ1AeSkFuV7yal1LxzbH1zXjlrBtxT94aGAqSUlJJCUm0LX/CKZ8V87hI34MoT0ZTH3+RuISkkhJ6MAlw15gXk6AinMFXLeYzYve5r6LG5CUlERKfAcGDX+RuTv9uAZKsxbx5z/czy8eeJ6nHhxIn5F3sz7pBsaMuQvvtKtISejEkKteZn5WEcUlZaduLoKIiIiIyEmomsBvDPnfz+f1u5qRnNSMYY98Qp8lhRRsW8Fnj15EbMVm5ftyWV+YzvobzwqfAADGdfGXFVNcXHkpKS3DHypjx3fTePW1P7P9xgUUFRVRmL2Gp0d04NV7n2Zujlu5G2XZLPt0Ep/PLGXyygIKStJ5d+K57J75JisAKGP7kim8/PZHFNy1hKKiIvKzP+O28/fw+M0vMv8HU/FxdvKDgc4jP2LBtLcZ2NwiqmF3bnl+NvklC3n28lLeaJtM6lkDufn1+ew9jrkGIiIiIiI/hyoJ/KY4m/SVK/hn/Btk7N7N0tmfMOywK/h+8n7YQNbyVXRPTTmwdk/GMp4a2Ybk5ORKS4feQ/nDl5vJWbOT0g39uKNfawCsuml07NWBIR0Xsjh9b+VdlJaw05vC3v5j6NXKBiJIa9aVnoMuxwZM2Q9kryonKvtqfj0gNXxi4UukXdfGXNh8EcvWhduzs+qQlt2SVt1jOZRFHG2Hj+WtXTls+uRhBics5aOl+afw2xQREREROX5VEvitmFQ6nNONUUW30zYlmS69B/KPpQUUFZdQ6g9hAFO+j9x1WWz6thc9OsYdeG9C23MZ96/tFBUVVVo2L57Ofd2iyNlTSoanCYkJ+wfM+4iqXQ830c/SnTmV+lFems++nK2VOxdZi/pxiXQGKC1mR94Cnpt5Mz1SUkhJSSElpTHnDn6AFxYESN+zBwDTMIbIbokkHNyOCVcUKizOYsX/PcX1Kcm0GDqR6fvOY1S3eqf4GxUREREROT5VNoa/TmpXbvrjDgoKdzH9pWtY0q8BqW17MvTJf5NdGsQtLyHXlLNlwPl0TDze2a4WlgUWLubgUTMmvNjHNWvWYIypGMNv4dCKSy6exIqCQgoLf1zylnzKX4a2PGILbihA/ua5vPHgINKS+jFuejz3bCskb91M3rqtG3WO89OIiIiIiJxqVV6W0yKGRt1/xcsFRexLn8YjjdZw/aDJLNmbye7M6Zzf80wOHyhzFJG1SE6Mpo27kR2790+7LaMofw/u7ii6NUg+ZOdWuHJO0E+oYni/KS4kKyc7PIY/KpoGiRE0D2wie1ewYrKtIRQop6yktKJqz6HK2L70Xd56+218V3xMfnEGn70/hi5xKtEjIiIiIqffaa3Db8Wkcf6N9zFj9mCSM9excYqHFg2OO+5jRcSS3CGNOu3m8dr0FRQWFlKQtZFls9cwfeMFdGtXua3IuAa0TYghefZrzFhZQGHhXjZmLGLRl//CA1iRCaSemYwncQavTvqSHYWFFORm8PWbD3DPyFuZsflIk28jOaPbr7j393/jZg3dEREREZFqpno8abewgKzNJSysN7pSOU7L9uCLjMbnOdrVch/12w/m9tvH0O6DgaSlpdG4zTBemR3HhL+PpUeCBbaDzxdJlM+DFVGfzoN/xeAhSdzepyGNGnRnzLNb6Dj6CUZFR+BYETTsfDl3/fpmmn31S9qlpdGweTce/SKPS1+axKAWFlgO3v3tVc23IyIiIiJy0ixjjGpGioiIiIjUUNXjCr+IiIiIiPwsFPhFRERERGowBX4RERERkRpMgV9EREREpAZT4BcRERERqcH+H+vDF580bf4eAAAAAElFTkSuQmCC;" vertex="1" parent="1">
          <mxGeometry x="933" y="152" width="230" height="106.27" as="geometry" />
        </mxCell>
        <mxCell id="rvW21gwUeiw7CncaJtD2-10" value="Hyperlinks may be associated with bookmark attachments or file locations" style="text;html=1;strokeColor=none;fillColor=none;align=center;verticalAlign=middle;whiteSpace=wrap;rounded=0;" vertex="1" parent="1">
          <mxGeometry x="700" y="573.5" width="258" height="30" as="geometry" />
        </mxCell>
        <mxCell id="rvW21gwUeiw7CncaJtD2-12" value="may need this" style="text;html=1;strokeColor=none;fillColor=none;align=center;verticalAlign=middle;whiteSpace=wrap;rounded=0;" vertex="1" parent="1">
          <mxGeometry x="808" y="452" width="106" height="30" as="geometry" />
        </mxCell>
      </root>
    </mxGraphModel>
  </diagram>
  <diagram name="DoExportToPDFDOCS" id="mCU3J6RnH_PeahRmtCnF">
    <mxGraphModel dx="2284" dy="844" grid="1" gridSize="10" guides="1" tooltips="1" connect="1" arrows="1" fold="1" page="1" pageScale="1" pageWidth="850" pageHeight="1100" math="0" shadow="0">
      <root>
        <mxCell id="0" />
        <mxCell id="1" parent="0" />
        <mxCell id="2qH4LTcRQZ_-Pu2CGz5A-8" style="edgeStyle=orthogonalEdgeStyle;rounded=0;orthogonalLoop=1;jettySize=auto;html=1;fontColor=#000000;" parent="1" source="2qH4LTcRQZ_-Pu2CGz5A-1" target="2qH4LTcRQZ_-Pu2CGz5A-7" edge="1">
          <mxGeometry relative="1" as="geometry" />
        </mxCell>
        <mxCell id="2qH4LTcRQZ_-Pu2CGz5A-1" value="&lt;div style=&quot;font-family: Consolas, &amp;quot;Courier New&amp;quot;, monospace; font-size: 14px; line-height: 19px;&quot;&gt;OpenToPdfdocs&lt;/div&gt;" style="html=1;align=center;verticalAlign=top;rounded=1;absoluteArcSize=1;arcSize=10;dashed=0;whiteSpace=wrap;labelBackgroundColor=none;fontColor=#000000;" parent="1" vertex="1">
          <mxGeometry x="160" y="210" width="140" height="40" as="geometry" />
        </mxCell>
        <mxCell id="2qH4LTcRQZ_-Pu2CGz5A-9" style="edgeStyle=orthogonalEdgeStyle;rounded=0;orthogonalLoop=1;jettySize=auto;html=1;fontColor=#000000;" parent="1" source="2qH4LTcRQZ_-Pu2CGz5A-2" target="2qH4LTcRQZ_-Pu2CGz5A-7" edge="1">
          <mxGeometry relative="1" as="geometry" />
        </mxCell>
        <mxCell id="2qH4LTcRQZ_-Pu2CGz5A-2" value="&lt;div style=&quot;font-family: Consolas, &amp;quot;Courier New&amp;quot;, monospace; font-size: 14px; line-height: 19px;&quot;&gt;&lt;div style=&quot;line-height: 19px;&quot;&gt;ImportToPdfdocs&lt;/div&gt;&lt;/div&gt;" style="html=1;align=center;verticalAlign=top;rounded=1;absoluteArcSize=1;arcSize=10;dashed=0;whiteSpace=wrap;labelBackgroundColor=none;fontColor=#000000;" parent="1" vertex="1">
          <mxGeometry x="160" y="290" width="140" height="40" as="geometry" />
        </mxCell>
        <mxCell id="2qH4LTcRQZ_-Pu2CGz5A-10" style="edgeStyle=orthogonalEdgeStyle;rounded=0;orthogonalLoop=1;jettySize=auto;html=1;exitX=1;exitY=0.5;exitDx=0;exitDy=0;fontColor=#000000;" parent="1" source="2qH4LTcRQZ_-Pu2CGz5A-3" target="2qH4LTcRQZ_-Pu2CGz5A-7" edge="1">
          <mxGeometry relative="1" as="geometry" />
        </mxCell>
        <mxCell id="2qH4LTcRQZ_-Pu2CGz5A-3" value="&lt;div style=&quot;font-family: Consolas, &amp;quot;Courier New&amp;quot;, monospace; font-size: 14px; line-height: 19px;&quot;&gt;&lt;div style=&quot;line-height: 19px;&quot;&gt;EmailAsPdf&lt;/div&gt;&lt;/div&gt;" style="html=1;align=center;verticalAlign=top;rounded=1;absoluteArcSize=1;arcSize=10;dashed=0;whiteSpace=wrap;labelBackgroundColor=none;fontColor=#000000;" parent="1" vertex="1">
          <mxGeometry x="160" y="370" width="140" height="40" as="geometry" />
        </mxCell>
        <mxCell id="2qH4LTcRQZ_-Pu2CGz5A-11" style="edgeStyle=orthogonalEdgeStyle;rounded=0;orthogonalLoop=1;jettySize=auto;html=1;entryX=0.5;entryY=1;entryDx=0;entryDy=0;fontColor=#000000;" parent="1" source="2qH4LTcRQZ_-Pu2CGz5A-4" target="2qH4LTcRQZ_-Pu2CGz5A-7" edge="1">
          <mxGeometry relative="1" as="geometry" />
        </mxCell>
        <mxCell id="2qH4LTcRQZ_-Pu2CGz5A-4" value="&lt;div style=&quot;font-family: Consolas, &amp;quot;Courier New&amp;quot;, monospace; font-size: 14px; line-height: 19px;&quot;&gt;&lt;div style=&quot;line-height: 19px;&quot;&gt;SaveIntoAsPdf&lt;/div&gt;&lt;/div&gt;" style="html=1;align=center;verticalAlign=top;rounded=1;absoluteArcSize=1;arcSize=10;dashed=0;whiteSpace=wrap;labelBackgroundColor=none;fontColor=#000000;" parent="1" vertex="1">
          <mxGeometry x="160" y="450" width="140" height="40" as="geometry" />
        </mxCell>
        <mxCell id="2qH4LTcRQZ_-Pu2CGz5A-12" style="edgeStyle=orthogonalEdgeStyle;rounded=0;orthogonalLoop=1;jettySize=auto;html=1;entryX=0;entryY=0.5;entryDx=0;entryDy=0;fontColor=#000000;" parent="1" source="2qH4LTcRQZ_-Pu2CGz5A-5" target="2qH4LTcRQZ_-Pu2CGz5A-13" edge="1">
          <mxGeometry relative="1" as="geometry">
            <mxPoint x="480" y="380" as="targetPoint" />
          </mxGeometry>
        </mxCell>
        <mxCell id="2qH4LTcRQZ_-Pu2CGz5A-5" value="&lt;div style=&quot;font-family: Consolas, &amp;quot;Courier New&amp;quot;, monospace; font-size: 14px; line-height: 19px;&quot;&gt;&lt;div style=&quot;line-height: 19px;&quot;&gt;SaveAsPdf&lt;/div&gt;&lt;/div&gt;" style="html=1;align=center;verticalAlign=top;rounded=1;absoluteArcSize=1;arcSize=10;dashed=0;whiteSpace=wrap;labelBackgroundColor=none;fontColor=#000000;" parent="1" vertex="1">
          <mxGeometry x="-40" y="530" width="140" height="40" as="geometry" />
        </mxCell>
        <mxCell id="2qH4LTcRQZ_-Pu2CGz5A-7" value="&lt;div style=&quot;font-family: Consolas, &amp;quot;Courier New&amp;quot;, monospace; font-size: 14px; line-height: 19px;&quot;&gt;DoExportToPDFDOCS&lt;/div&gt;" style="html=1;align=center;verticalAlign=top;rounded=1;absoluteArcSize=1;arcSize=10;dashed=0;whiteSpace=wrap;labelBackgroundColor=none;fontColor=#000000;" parent="1" vertex="1">
          <mxGeometry x="355" y="370" width="140" height="40" as="geometry" />
        </mxCell>
        <mxCell id="2qH4LTcRQZ_-Pu2CGz5A-14" style="edgeStyle=orthogonalEdgeStyle;rounded=0;orthogonalLoop=1;jettySize=auto;html=1;entryX=0.5;entryY=1;entryDx=0;entryDy=0;" parent="1" source="2qH4LTcRQZ_-Pu2CGz5A-13" target="2qH4LTcRQZ_-Pu2CGz5A-7" edge="1">
          <mxGeometry relative="1" as="geometry" />
        </mxCell>
        <mxCell id="2qH4LTcRQZ_-Pu2CGz5A-13" value="&lt;div style=&quot;font-family: Consolas, &amp;quot;Courier New&amp;quot;, monospace; font-size: 14px; line-height: 19px;&quot;&gt;&lt;div style=&quot;line-height: 19px;&quot;&gt;&lt;div style=&quot;line-height: 19px;&quot;&gt;DoSaveAsPDF&lt;/div&gt;&lt;/div&gt;&lt;/div&gt;" style="html=1;align=center;verticalAlign=top;rounded=1;absoluteArcSize=1;arcSize=10;dashed=0;whiteSpace=wrap;labelBackgroundColor=none;fontColor=#000000;" parent="1" vertex="1">
          <mxGeometry x="160" y="530" width="140" height="40" as="geometry" />
        </mxCell>
        <mxCell id="2qH4LTcRQZ_-Pu2CGz5A-49" style="edgeStyle=orthogonalEdgeStyle;rounded=0;orthogonalLoop=1;jettySize=auto;html=1;entryX=0.5;entryY=1;entryDx=0;entryDy=0;" parent="1" source="2qH4LTcRQZ_-Pu2CGz5A-48" target="2qH4LTcRQZ_-Pu2CGz5A-7" edge="1">
          <mxGeometry relative="1" as="geometry" />
        </mxCell>
        <mxCell id="2qH4LTcRQZ_-Pu2CGz5A-48" value="&lt;div style=&quot;font-family: Consolas, &amp;quot;Courier New&amp;quot;, monospace; font-size: 14px; line-height: 19px;&quot;&gt;&lt;div style=&quot;line-height: 19px;&quot;&gt;&lt;div style=&quot;color: rgb(204, 204, 204); background-color: rgb(31, 31, 31); line-height: 19px;&quot;&gt;SaveIntoPDDMS&lt;/div&gt;&lt;/div&gt;&lt;/div&gt;" style="html=1;align=center;verticalAlign=top;rounded=1;absoluteArcSize=1;arcSize=10;dashed=0;whiteSpace=wrap;labelBackgroundColor=none;fontColor=#000000;" parent="1" vertex="1">
          <mxGeometry x="160" y="600" width="140" height="40" as="geometry" />
        </mxCell>
        <mxCell id="2qH4LTcRQZ_-Pu2CGz5A-53" style="edgeStyle=orthogonalEdgeStyle;rounded=0;orthogonalLoop=1;jettySize=auto;html=1;" parent="1" source="2qH4LTcRQZ_-Pu2CGz5A-51" target="2qH4LTcRQZ_-Pu2CGz5A-52" edge="1">
          <mxGeometry relative="1" as="geometry" />
        </mxCell>
        <mxCell id="2qH4LTcRQZ_-Pu2CGz5A-51" value="&lt;div style=&quot;font-family: Consolas, &amp;quot;Courier New&amp;quot;, monospace; font-size: 14px; line-height: 19px;&quot;&gt;&lt;div style=&quot;line-height: 19px;&quot;&gt;&lt;div style=&quot;color: rgb(204, 204, 204); background-color: rgb(31, 31, 31); line-height: 19px;&quot;&gt;&lt;div style=&quot;line-height: 19px;&quot;&gt;ShowSettings&lt;/div&gt;&lt;/div&gt;&lt;/div&gt;&lt;/div&gt;" style="html=1;align=center;verticalAlign=top;rounded=1;absoluteArcSize=1;arcSize=10;dashed=0;whiteSpace=wrap;labelBackgroundColor=none;fontColor=#000000;" parent="1" vertex="1">
          <mxGeometry x="-30" y="700" width="140" height="40" as="geometry" />
        </mxCell>
        <mxCell id="2qH4LTcRQZ_-Pu2CGz5A-52" value="&lt;div style=&quot;font-family: Consolas, &amp;quot;Courier New&amp;quot;, monospace; font-size: 14px; line-height: 19px;&quot;&gt;&lt;div style=&quot;line-height: 19px;&quot;&gt;&lt;div style=&quot;color: rgb(204, 204, 204); background-color: rgb(31, 31, 31); line-height: 19px;&quot;&gt;&lt;div style=&quot;line-height: 19px;&quot;&gt;&lt;div style=&quot;line-height: 19px;&quot;&gt;DoSettings&lt;/div&gt;&lt;/div&gt;&lt;/div&gt;&lt;/div&gt;&lt;/div&gt;" style="html=1;align=center;verticalAlign=top;rounded=1;absoluteArcSize=1;arcSize=10;dashed=0;whiteSpace=wrap;labelBackgroundColor=none;fontColor=#000000;" parent="1" vertex="1">
          <mxGeometry x="160" y="700" width="140" height="40" as="geometry" />
        </mxCell>
        <mxCell id="2qH4LTcRQZ_-Pu2CGz5A-68" value="DoExportToPDFDOCS" style="swimlane;" parent="1" vertex="1">
          <mxGeometry x="520" y="10" width="590" height="850" as="geometry" />
        </mxCell>
        <mxCell id="2qH4LTcRQZ_-Pu2CGz5A-15" value="&lt;div style=&quot;font-family: Consolas, &amp;quot;Courier New&amp;quot;, monospace; font-size: 14px; line-height: 19px;&quot;&gt;&lt;div style=&quot;line-height: 19px;&quot;&gt;LaunchPDFCMDEXEWithProgressBar&lt;/div&gt;&lt;/div&gt;" style="html=1;align=center;verticalAlign=top;rounded=1;absoluteArcSize=1;arcSize=10;dashed=0;whiteSpace=wrap;labelBackgroundColor=#FFFFFF;fontColor=#000000;" parent="2qH4LTcRQZ_-Pu2CGz5A-68" vertex="1">
          <mxGeometry x="70" y="495" width="260" height="40" as="geometry" />
        </mxCell>
        <mxCell id="2qH4LTcRQZ_-Pu2CGz5A-111" style="edgeStyle=orthogonalEdgeStyle;rounded=0;orthogonalLoop=1;jettySize=auto;html=1;" parent="2qH4LTcRQZ_-Pu2CGz5A-68" source="2qH4LTcRQZ_-Pu2CGz5A-54" target="2qH4LTcRQZ_-Pu2CGz5A-105" edge="1">
          <mxGeometry relative="1" as="geometry" />
        </mxCell>
        <mxCell id="2qH4LTcRQZ_-Pu2CGz5A-54" value="" style="ellipse;fillColor=strokeColor;html=1;" parent="2qH4LTcRQZ_-Pu2CGz5A-68" vertex="1">
          <mxGeometry x="185" y="30" width="30" height="30" as="geometry" />
        </mxCell>
        <mxCell id="2qH4LTcRQZ_-Pu2CGz5A-55" value="" style="ellipse;html=1;shape=endState;fillColor=strokeColor;" parent="2qH4LTcRQZ_-Pu2CGz5A-68" vertex="1">
          <mxGeometry x="185" y="815" width="30" height="30" as="geometry" />
        </mxCell>
        <mxCell id="2qH4LTcRQZ_-Pu2CGz5A-58" value="exportToPD" style="rhombus;labelBackgroundColor=#FFFFFF;fontColor=#000000;" parent="2qH4LTcRQZ_-Pu2CGz5A-68" vertex="1">
          <mxGeometry x="135" y="595" width="130" height="80" as="geometry" />
        </mxCell>
        <mxCell id="2qH4LTcRQZ_-Pu2CGz5A-63" style="edgeStyle=orthogonalEdgeStyle;rounded=0;orthogonalLoop=1;jettySize=auto;html=1;" parent="2qH4LTcRQZ_-Pu2CGz5A-68" source="2qH4LTcRQZ_-Pu2CGz5A-15" target="2qH4LTcRQZ_-Pu2CGz5A-58" edge="1">
          <mxGeometry relative="1" as="geometry" />
        </mxCell>
        <mxCell id="2qH4LTcRQZ_-Pu2CGz5A-65" style="edgeStyle=orthogonalEdgeStyle;rounded=0;orthogonalLoop=1;jettySize=auto;html=1;" parent="2qH4LTcRQZ_-Pu2CGz5A-68" source="2qH4LTcRQZ_-Pu2CGz5A-59" target="2qH4LTcRQZ_-Pu2CGz5A-55" edge="1">
          <mxGeometry relative="1" as="geometry" />
        </mxCell>
        <mxCell id="2qH4LTcRQZ_-Pu2CGz5A-114" style="edgeStyle=orthogonalEdgeStyle;rounded=0;orthogonalLoop=1;jettySize=auto;html=1;entryX=0.5;entryY=1;entryDx=0;entryDy=0;dashed=1;" parent="2qH4LTcRQZ_-Pu2CGz5A-68" source="2qH4LTcRQZ_-Pu2CGz5A-59" target="2qH4LTcRQZ_-Pu2CGz5A-108" edge="1">
          <mxGeometry relative="1" as="geometry" />
        </mxCell>
        <mxCell id="2qH4LTcRQZ_-Pu2CGz5A-115" style="edgeStyle=orthogonalEdgeStyle;rounded=0;orthogonalLoop=1;jettySize=auto;html=1;entryX=0.5;entryY=1;entryDx=0;entryDy=0;dashed=1;" parent="2qH4LTcRQZ_-Pu2CGz5A-68" source="2qH4LTcRQZ_-Pu2CGz5A-59" target="2qH4LTcRQZ_-Pu2CGz5A-107" edge="1">
          <mxGeometry relative="1" as="geometry" />
        </mxCell>
        <mxCell id="2qH4LTcRQZ_-Pu2CGz5A-59" value="&lt;div style=&quot;font-family: Consolas, &amp;quot;Courier New&amp;quot;, monospace; font-size: 14px; line-height: 19px;&quot;&gt;&lt;div style=&quot;line-height: 19px;&quot;&gt;&lt;div style=&quot;line-height: 19px;&quot;&gt;LaunchPDFDocsWithParams&lt;/div&gt;&lt;/div&gt;&lt;/div&gt;" style="html=1;align=center;verticalAlign=top;rounded=1;absoluteArcSize=1;arcSize=10;dashed=0;whiteSpace=wrap;labelBackgroundColor=#FFFFFF;fontColor=#000000;" parent="2qH4LTcRQZ_-Pu2CGz5A-68" vertex="1">
          <mxGeometry x="70" y="725" width="260" height="40" as="geometry" />
        </mxCell>
        <mxCell id="2qH4LTcRQZ_-Pu2CGz5A-64" style="edgeStyle=orthogonalEdgeStyle;rounded=0;orthogonalLoop=1;jettySize=auto;html=1;" parent="2qH4LTcRQZ_-Pu2CGz5A-68" source="2qH4LTcRQZ_-Pu2CGz5A-58" target="2qH4LTcRQZ_-Pu2CGz5A-59" edge="1">
          <mxGeometry relative="1" as="geometry" />
        </mxCell>
        <mxCell id="2qH4LTcRQZ_-Pu2CGz5A-97" style="edgeStyle=orthogonalEdgeStyle;rounded=0;orthogonalLoop=1;jettySize=auto;html=1;" parent="2qH4LTcRQZ_-Pu2CGz5A-68" source="2qH4LTcRQZ_-Pu2CGz5A-95" target="2qH4LTcRQZ_-Pu2CGz5A-15" edge="1">
          <mxGeometry relative="1" as="geometry" />
        </mxCell>
        <mxCell id="2qH4LTcRQZ_-Pu2CGz5A-95" value="&lt;div style=&quot;font-family: Consolas, &amp;quot;Courier New&amp;quot;, monospace; font-size: 14px; line-height: 19px;&quot;&gt;&lt;div style=&quot;line-height: 19px;&quot;&gt;ConvertToPDF&lt;br&gt;&lt;/div&gt;&lt;/div&gt;" style="html=1;align=center;verticalAlign=top;rounded=1;absoluteArcSize=1;arcSize=10;dashed=0;whiteSpace=wrap;labelBackgroundColor=#FFFFFF;fontColor=#000000;" parent="2qH4LTcRQZ_-Pu2CGz5A-68" vertex="1">
          <mxGeometry x="70" y="410" width="260" height="40" as="geometry" />
        </mxCell>
        <mxCell id="2qH4LTcRQZ_-Pu2CGz5A-109" style="edgeStyle=orthogonalEdgeStyle;rounded=0;orthogonalLoop=1;jettySize=auto;html=1;entryX=0.5;entryY=0;entryDx=0;entryDy=0;dashed=1;exitX=1;exitY=0.5;exitDx=0;exitDy=0;" parent="2qH4LTcRQZ_-Pu2CGz5A-68" source="2qH4LTcRQZ_-Pu2CGz5A-105" target="2qH4LTcRQZ_-Pu2CGz5A-107" edge="1">
          <mxGeometry relative="1" as="geometry">
            <mxPoint x="52" y="340" as="targetPoint" />
          </mxGeometry>
        </mxCell>
        <mxCell id="2qH4LTcRQZ_-Pu2CGz5A-112" style="edgeStyle=orthogonalEdgeStyle;rounded=0;orthogonalLoop=1;jettySize=auto;html=1;" parent="2qH4LTcRQZ_-Pu2CGz5A-68" source="2qH4LTcRQZ_-Pu2CGz5A-105" target="2qH4LTcRQZ_-Pu2CGz5A-106" edge="1">
          <mxGeometry relative="1" as="geometry" />
        </mxCell>
        <mxCell id="2qH4LTcRQZ_-Pu2CGz5A-105" value="&lt;div style=&quot;font-family: Consolas, &amp;quot;Courier New&amp;quot;, monospace; font-size: 14px; line-height: 19px;&quot;&gt;&lt;div style=&quot;line-height: 19px;&quot;&gt;&lt;div style=&quot;color: rgb(204, 204, 204); background-color: rgb(31, 31, 31); line-height: 19px;&quot;&gt;GenerateHyperlinks&lt;/div&gt;&lt;/div&gt;&lt;/div&gt;" style="html=1;align=center;verticalAlign=top;rounded=1;absoluteArcSize=1;arcSize=10;dashed=0;whiteSpace=wrap;labelBackgroundColor=#FFFFFF;fontColor=#000000;" parent="2qH4LTcRQZ_-Pu2CGz5A-68" vertex="1">
          <mxGeometry x="70" y="140" width="260" height="40" as="geometry" />
        </mxCell>
        <mxCell id="2qH4LTcRQZ_-Pu2CGz5A-110" style="edgeStyle=orthogonalEdgeStyle;rounded=0;orthogonalLoop=1;jettySize=auto;html=1;dashed=1;" parent="2qH4LTcRQZ_-Pu2CGz5A-68" source="2qH4LTcRQZ_-Pu2CGz5A-106" target="2qH4LTcRQZ_-Pu2CGz5A-108" edge="1">
          <mxGeometry relative="1" as="geometry">
            <Array as="points">
              <mxPoint x="440" y="230" />
            </Array>
          </mxGeometry>
        </mxCell>
        <mxCell id="2qH4LTcRQZ_-Pu2CGz5A-113" style="edgeStyle=orthogonalEdgeStyle;rounded=0;orthogonalLoop=1;jettySize=auto;html=1;" parent="2qH4LTcRQZ_-Pu2CGz5A-68" source="2qH4LTcRQZ_-Pu2CGz5A-106" target="2qH4LTcRQZ_-Pu2CGz5A-95" edge="1">
          <mxGeometry relative="1" as="geometry" />
        </mxCell>
        <mxCell id="2qH4LTcRQZ_-Pu2CGz5A-106" value="&lt;div style=&quot;font-family: Consolas, &amp;quot;Courier New&amp;quot;, monospace; font-size: 14px; line-height: 19px;&quot;&gt;&lt;div style=&quot;line-height: 19px;&quot;&gt;&lt;div style=&quot;color: rgb(204, 204, 204); background-color: rgb(31, 31, 31); line-height: 19px;&quot;&gt;&lt;div style=&quot;line-height: 19px;&quot;&gt;GenerateBookmarksFromStyles&lt;/div&gt;&lt;/div&gt;&lt;/div&gt;&lt;/div&gt;" style="html=1;align=center;verticalAlign=top;rounded=1;absoluteArcSize=1;arcSize=10;dashed=0;whiteSpace=wrap;labelBackgroundColor=#FFFFFF;fontColor=#000000;" parent="2qH4LTcRQZ_-Pu2CGz5A-68" vertex="1">
          <mxGeometry x="70" y="210" width="260" height="40" as="geometry" />
        </mxCell>
        <mxCell id="2qH4LTcRQZ_-Pu2CGz5A-108" value="Bookmarks File" style="html=1;whiteSpace=wrap;" parent="2qH4LTcRQZ_-Pu2CGz5A-68" vertex="1">
          <mxGeometry x="390" y="260" width="110" height="30" as="geometry" />
        </mxCell>
        <mxCell id="2qH4LTcRQZ_-Pu2CGz5A-107" value="Hyperlinks File" style="html=1;whiteSpace=wrap;" parent="2qH4LTcRQZ_-Pu2CGz5A-68" vertex="1">
          <mxGeometry x="460" y="190" width="110" height="30" as="geometry" />
        </mxCell>
        <mxCell id="2qH4LTcRQZ_-Pu2CGz5A-70" value="ConvertToPDF" style="swimlane;" parent="1" vertex="1">
          <mxGeometry x="1190" y="115" width="480" height="710" as="geometry">
            <mxRectangle x="1020" y="120" width="120" height="30" as="alternateBounds" />
          </mxGeometry>
        </mxCell>
        <mxCell id="2qH4LTcRQZ_-Pu2CGz5A-71" value="" style="ellipse;fillColor=strokeColor;html=1;" parent="2qH4LTcRQZ_-Pu2CGz5A-70" vertex="1">
          <mxGeometry x="235" y="30" width="30" height="30" as="geometry" />
        </mxCell>
        <mxCell id="2qH4LTcRQZ_-Pu2CGz5A-72" value="" style="ellipse;html=1;shape=endState;fillColor=strokeColor;" parent="2qH4LTcRQZ_-Pu2CGz5A-70" vertex="1">
          <mxGeometry x="235" y="670" width="30" height="30" as="geometry" />
        </mxCell>
        <mxCell id="2qH4LTcRQZ_-Pu2CGz5A-73" value="&lt;div style=&quot;color: rgb(204, 204, 204); background-color: rgb(31, 31, 31); font-family: Consolas, &amp;quot;Courier New&amp;quot;, monospace; font-size: 14px; line-height: 19px;&quot;&gt;WordExportToPDF&lt;/div&gt;" style="html=1;align=center;verticalAlign=top;rounded=1;absoluteArcSize=1;arcSize=10;dashed=0;whiteSpace=wrap;" parent="2qH4LTcRQZ_-Pu2CGz5A-70" vertex="1">
          <mxGeometry x="80" y="390" width="140" height="40" as="geometry" />
        </mxCell>
        <mxCell id="2qH4LTcRQZ_-Pu2CGz5A-74" value="&lt;div style=&quot;font-family: Consolas, &amp;quot;Courier New&amp;quot;, monospace; font-size: 14px; line-height: 19px;&quot;&gt;&lt;div style=&quot;line-height: 19px;&quot;&gt;GeneratePostScript&lt;/div&gt;&lt;/div&gt;" style="html=1;align=center;verticalAlign=top;rounded=1;absoluteArcSize=1;arcSize=10;dashed=0;whiteSpace=wrap;labelBackgroundColor=default;fontColor=#000000;" parent="2qH4LTcRQZ_-Pu2CGz5A-70" vertex="1">
          <mxGeometry x="270" y="390" width="140" height="40" as="geometry" />
        </mxCell>
        <mxCell id="2qH4LTcRQZ_-Pu2CGz5A-76" style="edgeStyle=orthogonalEdgeStyle;rounded=0;orthogonalLoop=1;jettySize=auto;html=1;" parent="2qH4LTcRQZ_-Pu2CGz5A-70" source="2qH4LTcRQZ_-Pu2CGz5A-75" target="2qH4LTcRQZ_-Pu2CGz5A-73" edge="1">
          <mxGeometry relative="1" as="geometry" />
        </mxCell>
        <mxCell id="2qH4LTcRQZ_-Pu2CGz5A-77" style="edgeStyle=orthogonalEdgeStyle;rounded=0;orthogonalLoop=1;jettySize=auto;html=1;" parent="2qH4LTcRQZ_-Pu2CGz5A-70" source="2qH4LTcRQZ_-Pu2CGz5A-75" target="2qH4LTcRQZ_-Pu2CGz5A-74" edge="1">
          <mxGeometry relative="1" as="geometry" />
        </mxCell>
        <mxCell id="2qH4LTcRQZ_-Pu2CGz5A-75" value="PrintToFileSetting" style="rhombus;" parent="2qH4LTcRQZ_-Pu2CGz5A-70" vertex="1">
          <mxGeometry x="177.5" y="250" width="145" height="60" as="geometry" />
        </mxCell>
        <mxCell id="2qH4LTcRQZ_-Pu2CGz5A-78" value="&lt;div style=&quot;font-family: Consolas, &amp;quot;Courier New&amp;quot;, monospace; font-size: 14px; line-height: 19px;&quot;&gt;&lt;div style=&quot;line-height: 19px;&quot;&gt;GetPDFDocsPrintSetting&lt;/div&gt;&lt;/div&gt;" style="html=1;align=center;verticalAlign=top;rounded=1;absoluteArcSize=1;arcSize=10;dashed=0;whiteSpace=wrap;labelBackgroundColor=default;fontColor=#000000;" parent="2qH4LTcRQZ_-Pu2CGz5A-70" vertex="1">
          <mxGeometry x="135" y="90" width="230" height="40" as="geometry" />
        </mxCell>
        <mxCell id="2qH4LTcRQZ_-Pu2CGz5A-83" style="edgeStyle=orthogonalEdgeStyle;rounded=0;orthogonalLoop=1;jettySize=auto;html=1;" parent="2qH4LTcRQZ_-Pu2CGz5A-70" source="2qH4LTcRQZ_-Pu2CGz5A-71" target="2qH4LTcRQZ_-Pu2CGz5A-78" edge="1">
          <mxGeometry relative="1" as="geometry" />
        </mxCell>
        <mxCell id="2qH4LTcRQZ_-Pu2CGz5A-86" style="edgeStyle=orthogonalEdgeStyle;rounded=0;orthogonalLoop=1;jettySize=auto;html=1;" parent="2qH4LTcRQZ_-Pu2CGz5A-70" source="2qH4LTcRQZ_-Pu2CGz5A-85" target="2qH4LTcRQZ_-Pu2CGz5A-75" edge="1">
          <mxGeometry relative="1" as="geometry" />
        </mxCell>
        <mxCell id="2qH4LTcRQZ_-Pu2CGz5A-85" value="&lt;div style=&quot;font-family: Consolas, &amp;quot;Courier New&amp;quot;, monospace; font-size: 14px; line-height: 19px;&quot;&gt;&lt;div style=&quot;line-height: 19px;&quot;&gt;&lt;div style=&quot;line-height: 19px;&quot;&gt;from originalFileName get outputFileName&lt;/div&gt;&lt;/div&gt;&lt;/div&gt;" style="html=1;align=center;verticalAlign=top;rounded=1;absoluteArcSize=1;arcSize=10;dashed=0;whiteSpace=wrap;labelBackgroundColor=default;fontColor=#000000;" parent="2qH4LTcRQZ_-Pu2CGz5A-70" vertex="1">
          <mxGeometry x="122.5" y="160" width="255" height="50" as="geometry" />
        </mxCell>
        <mxCell id="2qH4LTcRQZ_-Pu2CGz5A-84" style="edgeStyle=orthogonalEdgeStyle;rounded=0;orthogonalLoop=1;jettySize=auto;html=1;" parent="2qH4LTcRQZ_-Pu2CGz5A-70" source="2qH4LTcRQZ_-Pu2CGz5A-78" target="2qH4LTcRQZ_-Pu2CGz5A-85" edge="1">
          <mxGeometry relative="1" as="geometry" />
        </mxCell>
        <mxCell id="2qH4LTcRQZ_-Pu2CGz5A-90" value="bSuccess" style="rhombus;" parent="2qH4LTcRQZ_-Pu2CGz5A-70" vertex="1">
          <mxGeometry x="177.5" y="480" width="145" height="60" as="geometry" />
        </mxCell>
        <mxCell id="2qH4LTcRQZ_-Pu2CGz5A-87" style="edgeStyle=orthogonalEdgeStyle;rounded=0;orthogonalLoop=1;jettySize=auto;html=1;" parent="2qH4LTcRQZ_-Pu2CGz5A-70" source="2qH4LTcRQZ_-Pu2CGz5A-73" target="2qH4LTcRQZ_-Pu2CGz5A-90" edge="1">
          <mxGeometry relative="1" as="geometry" />
        </mxCell>
        <mxCell id="2qH4LTcRQZ_-Pu2CGz5A-88" style="edgeStyle=orthogonalEdgeStyle;rounded=0;orthogonalLoop=1;jettySize=auto;html=1;" parent="2qH4LTcRQZ_-Pu2CGz5A-70" source="2qH4LTcRQZ_-Pu2CGz5A-74" target="2qH4LTcRQZ_-Pu2CGz5A-90" edge="1">
          <mxGeometry relative="1" as="geometry" />
        </mxCell>
        <mxCell id="2qH4LTcRQZ_-Pu2CGz5A-93" style="edgeStyle=orthogonalEdgeStyle;rounded=0;orthogonalLoop=1;jettySize=auto;html=1;" parent="2qH4LTcRQZ_-Pu2CGz5A-70" source="2qH4LTcRQZ_-Pu2CGz5A-91" target="2qH4LTcRQZ_-Pu2CGz5A-72" edge="1">
          <mxGeometry relative="1" as="geometry" />
        </mxCell>
        <mxCell id="2qH4LTcRQZ_-Pu2CGz5A-91" value="&lt;div style=&quot;font-family: Consolas, &amp;quot;Courier New&amp;quot;, monospace; font-size: 14px; line-height: 19px;&quot;&gt;&lt;div style=&quot;line-height: 19px;&quot;&gt;Restore back the original filename&lt;/div&gt;&lt;/div&gt;" style="html=1;align=center;verticalAlign=top;rounded=1;absoluteArcSize=1;arcSize=10;dashed=0;whiteSpace=wrap;labelBackgroundColor=default;fontColor=#000000;" parent="2qH4LTcRQZ_-Pu2CGz5A-70" vertex="1">
          <mxGeometry x="145" y="580" width="210" height="50" as="geometry" />
        </mxCell>
        <mxCell id="2qH4LTcRQZ_-Pu2CGz5A-92" style="edgeStyle=orthogonalEdgeStyle;rounded=0;orthogonalLoop=1;jettySize=auto;html=1;entryX=0.5;entryY=0;entryDx=0;entryDy=0;" parent="2qH4LTcRQZ_-Pu2CGz5A-70" source="2qH4LTcRQZ_-Pu2CGz5A-90" target="2qH4LTcRQZ_-Pu2CGz5A-91" edge="1">
          <mxGeometry relative="1" as="geometry" />
        </mxCell>
        <mxCell id="2qH4LTcRQZ_-Pu2CGz5A-104" style="rounded=0;orthogonalLoop=1;jettySize=auto;html=1;entryX=0.5;entryY=0;entryDx=0;entryDy=0;dashed=1;" parent="2qH4LTcRQZ_-Pu2CGz5A-70" source="2qH4LTcRQZ_-Pu2CGz5A-98" target="2qH4LTcRQZ_-Pu2CGz5A-103" edge="1">
          <mxGeometry relative="1" as="geometry" />
        </mxCell>
        <mxCell id="2qH4LTcRQZ_-Pu2CGz5A-98" value="&lt;div style=&quot;font-family: Consolas, &amp;quot;Courier New&amp;quot;, monospace; font-size: 14px; line-height: 19px;&quot;&gt;WordExportToPDF&lt;/div&gt;" style="html=1;align=center;verticalAlign=top;rounded=1;absoluteArcSize=1;arcSize=10;dashed=0;whiteSpace=wrap;labelBackgroundColor=default;fontColor=#000000;" parent="2qH4LTcRQZ_-Pu2CGz5A-70" vertex="1">
          <mxGeometry x="80" y="390" width="140" height="40" as="geometry" />
        </mxCell>
        <mxCell id="2qH4LTcRQZ_-Pu2CGz5A-103" value="&lt;div style=&quot;font-family: Consolas, &amp;quot;Courier New&amp;quot;, monospace; font-size: 14px; line-height: 19px;&quot;&gt;&lt;div style=&quot;line-height: 19px;&quot;&gt;&lt;div style=&quot;line-height: 19px;&quot;&gt;&lt;div style=&quot;line-height: 19px;&quot;&gt;&lt;div style=&quot;line-height: 19px;&quot;&gt;ActiveDocument&lt;/div&gt;&lt;div style=&quot;line-height: 19px;&quot;&gt;ExportAsFixedFormat&lt;br&gt;&lt;/div&gt;&lt;/div&gt;&lt;/div&gt;&lt;/div&gt;&lt;/div&gt;" style="html=1;align=center;verticalAlign=top;rounded=1;absoluteArcSize=1;arcSize=10;dashed=0;whiteSpace=wrap;labelBackgroundColor=default;fontColor=default;" parent="2qH4LTcRQZ_-Pu2CGz5A-70" vertex="1">
          <mxGeometry x="10" y="480" width="160" height="50" as="geometry" />
        </mxCell>
        <mxCell id="2qH4LTcRQZ_-Pu2CGz5A-101" value="&lt;div style=&quot;font-family: Consolas, &amp;quot;Courier New&amp;quot;, monospace; font-size: 14px; line-height: 19px;&quot;&gt;&lt;div style=&quot;line-height: 19px;&quot;&gt;&lt;div style=&quot;line-height: 19px;&quot;&gt;&lt;div style=&quot;line-height: 19px;&quot;&gt;&lt;div style=&quot;line-height: 19px;&quot;&gt;ActiveDocument&lt;/div&gt;&lt;div style=&quot;line-height: 19px;&quot;&gt;PrintOut&lt;/div&gt;&lt;/div&gt;&lt;/div&gt;&lt;/div&gt;&lt;/div&gt;" style="html=1;align=center;verticalAlign=top;rounded=1;absoluteArcSize=1;arcSize=10;dashed=0;whiteSpace=wrap;labelBackgroundColor=default;fontColor=default;" parent="2qH4LTcRQZ_-Pu2CGz5A-70" vertex="1">
          <mxGeometry x="350" y="470" width="120" height="50" as="geometry" />
        </mxCell>
        <mxCell id="2qH4LTcRQZ_-Pu2CGz5A-102" style="rounded=0;orthogonalLoop=1;jettySize=auto;html=1;dashed=1;" parent="2qH4LTcRQZ_-Pu2CGz5A-70" source="2qH4LTcRQZ_-Pu2CGz5A-74" target="2qH4LTcRQZ_-Pu2CGz5A-101" edge="1">
          <mxGeometry relative="1" as="geometry" />
        </mxCell>
        <mxCell id="2qH4LTcRQZ_-Pu2CGz5A-100" value="&lt;div style=&quot;font-family: Consolas, &amp;quot;Courier New&amp;quot;, monospace; font-size: 14px; line-height: 19px;&quot;&gt;&lt;div style=&quot;line-height: 19px;&quot;&gt;&lt;div style=&quot;line-height: 19px;&quot;&gt;&lt;div style=&quot;line-height: 19px;&quot;&gt;ActiveDocument.ExportAsFixedFormat&lt;/div&gt;&lt;/div&gt;&lt;/div&gt;&lt;/div&gt;" style="html=1;align=center;verticalAlign=top;rounded=1;absoluteArcSize=1;arcSize=10;dashed=0;whiteSpace=wrap;labelBackgroundColor=default;fontColor=default;" parent="1" vertex="1">
          <mxGeometry x="1520" y="350" width="270" height="40" as="geometry" />
        </mxCell>
      </root>
    </mxGraphModel>
  </diagram>
  <diagram id="NmA-0tSiL-LNkWl_tvJo" name="DoExportToBinder">
    <mxGraphModel dx="2284" dy="844" grid="1" gridSize="10" guides="1" tooltips="1" connect="1" arrows="1" fold="1" page="1" pageScale="1" pageWidth="850" pageHeight="1100" math="0" shadow="0">
      <root>
        <mxCell id="0" />
        <mxCell id="1" parent="0" />
        <mxCell id="mM8yicU3a5Vq084fnMHZ-9" style="edgeStyle=orthogonalEdgeStyle;rounded=0;orthogonalLoop=1;jettySize=auto;html=1;" parent="1" source="mM8yicU3a5Vq084fnMHZ-1" target="mM8yicU3a5Vq084fnMHZ-6" edge="1">
          <mxGeometry relative="1" as="geometry" />
        </mxCell>
        <mxCell id="mM8yicU3a5Vq084fnMHZ-1" value="&lt;div style=&quot;color: rgb(204, 204, 204); background-color: rgb(31, 31, 31); font-family: Consolas, &amp;quot;Courier New&amp;quot;, monospace; font-size: 14px; line-height: 19px;&quot;&gt;DoExportToBinder&lt;/div&gt;" style="html=1;align=center;verticalAlign=top;rounded=1;absoluteArcSize=1;arcSize=10;dashed=0;whiteSpace=wrap;" parent="1" vertex="1">
          <mxGeometry x="-320" y="330" width="140" height="40" as="geometry" />
        </mxCell>
        <mxCell id="mM8yicU3a5Vq084fnMHZ-20" style="edgeStyle=orthogonalEdgeStyle;rounded=0;orthogonalLoop=1;jettySize=auto;html=1;entryX=0.5;entryY=0;entryDx=0;entryDy=0;" parent="1" source="mM8yicU3a5Vq084fnMHZ-2" target="mM8yicU3a5Vq084fnMHZ-13" edge="1">
          <mxGeometry relative="1" as="geometry" />
        </mxCell>
        <mxCell id="mM8yicU3a5Vq084fnMHZ-2" value="" style="ellipse;fillColor=strokeColor;html=1;" parent="1" vertex="1">
          <mxGeometry x="410.25" y="420" width="30" height="30" as="geometry" />
        </mxCell>
        <mxCell id="mM8yicU3a5Vq084fnMHZ-5" value="" style="ellipse;html=1;shape=endState;fillColor=strokeColor;" parent="1" vertex="1">
          <mxGeometry x="410.25" y="880" width="30" height="30" as="geometry" />
        </mxCell>
        <mxCell id="mM8yicU3a5Vq084fnMHZ-12" style="edgeStyle=orthogonalEdgeStyle;rounded=0;orthogonalLoop=1;jettySize=auto;html=1;" parent="1" source="mM8yicU3a5Vq084fnMHZ-6" target="mM8yicU3a5Vq084fnMHZ-11" edge="1">
          <mxGeometry relative="1" as="geometry" />
        </mxCell>
        <mxCell id="mM8yicU3a5Vq084fnMHZ-6" value="&lt;div style=&quot;color: rgb(204, 204, 204); background-color: rgb(31, 31, 31); font-family: Consolas, &amp;quot;Courier New&amp;quot;, monospace; font-size: 14px; line-height: 19px;&quot;&gt;GenerateBinderHyperlinks&lt;/div&gt;" style="whiteSpace=wrap;html=1;verticalAlign=top;rounded=1;arcSize=10;dashed=0;" parent="1" vertex="1">
          <mxGeometry x="-100" y="330" width="210" height="40" as="geometry" />
        </mxCell>
        <mxCell id="mM8yicU3a5Vq084fnMHZ-11" value="&lt;div style=&quot;color: rgb(204, 204, 204); background-color: rgb(31, 31, 31); font-family: Consolas, &amp;quot;Courier New&amp;quot;, monospace; font-size: 14px; line-height: 19px;&quot;&gt;BPHyperlinks&lt;/div&gt;&lt;div style=&quot;color: rgb(204, 204, 204); background-color: rgb(31, 31, 31); font-family: Consolas, &amp;quot;Courier New&amp;quot;, monospace; font-size: 14px; line-height: 19px;&quot;&gt;GetBinderLinks&lt;/div&gt;" style="html=1;align=center;verticalAlign=top;rounded=1;absoluteArcSize=1;arcSize=10;dashed=0;whiteSpace=wrap;" parent="1" vertex="1">
          <mxGeometry x="-65" y="460" width="140" height="50" as="geometry" />
        </mxCell>
        <mxCell id="mM8yicU3a5Vq084fnMHZ-18" style="edgeStyle=orthogonalEdgeStyle;rounded=0;orthogonalLoop=1;jettySize=auto;html=1;labelBackgroundColor=default;fontColor=default;" parent="1" source="mM8yicU3a5Vq084fnMHZ-13" target="mM8yicU3a5Vq084fnMHZ-14" edge="1">
          <mxGeometry relative="1" as="geometry" />
        </mxCell>
        <mxCell id="mM8yicU3a5Vq084fnMHZ-13" value="&lt;div style=&quot;font-family: Consolas, &amp;quot;Courier New&amp;quot;, monospace; font-size: 14px; line-height: 19px;&quot;&gt;&lt;div style=&quot;line-height: 19px;&quot;&gt;ForEach Hyperlink In ActiveDocument.hyperLinks&lt;/div&gt;&lt;/div&gt;" style="html=1;align=center;verticalAlign=top;rounded=1;absoluteArcSize=1;arcSize=10;dashed=0;whiteSpace=wrap;labelBackgroundColor=default;fontColor=default;" parent="1" vertex="1">
          <mxGeometry x="307.75" y="510" width="235" height="50" as="geometry" />
        </mxCell>
        <mxCell id="mM8yicU3a5Vq084fnMHZ-16" value="" style="edgeStyle=orthogonalEdgeStyle;rounded=0;orthogonalLoop=1;jettySize=auto;html=1;labelBackgroundColor=default;fontColor=default;" parent="1" source="mM8yicU3a5Vq084fnMHZ-14" target="mM8yicU3a5Vq084fnMHZ-15" edge="1">
          <mxGeometry relative="1" as="geometry" />
        </mxCell>
        <mxCell id="mM8yicU3a5Vq084fnMHZ-14" value="&lt;div style=&quot;font-family: Consolas, &amp;quot;Courier New&amp;quot;, monospace; font-size: 14px; line-height: 19px;&quot;&gt;&lt;div style=&quot;line-height: 19px;&quot;&gt;Get Range, LinkType, Address, SubAddress of Hyperlink&lt;/div&gt;&lt;/div&gt;" style="html=1;align=center;verticalAlign=top;rounded=1;absoluteArcSize=1;arcSize=10;dashed=0;whiteSpace=wrap;labelBackgroundColor=default;fontColor=default;" parent="1" vertex="1">
          <mxGeometry x="307.5" y="600" width="235" height="50" as="geometry" />
        </mxCell>
        <mxCell id="mM8yicU3a5Vq084fnMHZ-19" style="edgeStyle=orthogonalEdgeStyle;rounded=0;orthogonalLoop=1;jettySize=auto;html=1;" parent="1" source="mM8yicU3a5Vq084fnMHZ-15" target="mM8yicU3a5Vq084fnMHZ-5" edge="1">
          <mxGeometry relative="1" as="geometry" />
        </mxCell>
        <mxCell id="mM8yicU3a5Vq084fnMHZ-15" value="&lt;span style=&quot;font-family: Consolas, &amp;quot;Courier New&amp;quot;, monospace; font-size: 14px;&quot;&gt;Add BPLink to BPLinkCollection&lt;/span&gt;&lt;br&gt;" style="whiteSpace=wrap;html=1;verticalAlign=top;rounded=1;arcSize=10;dashed=0;labelBackgroundColor=default;fontColor=default;" parent="1" vertex="1">
          <mxGeometry x="334" y="690" width="182.5" height="50" as="geometry" />
        </mxCell>
        <mxCell id="mM8yicU3a5Vq084fnMHZ-21" value="&lt;span style=&quot;font-family: Consolas, &amp;quot;Courier New&amp;quot;, monospace; font-size: 14px;&quot;&gt;Write BPLinkCollection to File&lt;/span&gt;" style="whiteSpace=wrap;html=1;verticalAlign=top;rounded=1;arcSize=10;dashed=0;labelBackgroundColor=default;fontColor=default;" parent="1" vertex="1">
          <mxGeometry x="334" y="790" width="182.5" height="50" as="geometry" />
        </mxCell>
      </root>
    </mxGraphModel>
  </diagram>
  <diagram id="8CaJ2tWu8z2kXkUJ0lMq" name="BPHyperlinks">
    <mxGraphModel dx="5981" dy="2217" grid="1" gridSize="10" guides="1" tooltips="1" connect="1" arrows="1" fold="1" page="1" pageScale="1" pageWidth="850" pageHeight="1100" math="0" shadow="0">
      <root>
        <mxCell id="0" />
        <mxCell id="1" parent="0" />
        <mxCell id="C9G2EM-J3EJXVnwbl9LZ-12" value="BPHyperlinks&lt;br&gt;" style="swimlane;fontStyle=1;align=center;verticalAlign=top;childLayout=stackLayout;horizontal=1;startSize=26;horizontalStack=0;resizeParent=1;resizeParentMax=0;resizeLast=0;collapsible=1;marginBottom=0;whiteSpace=wrap;html=1;points=[[0,0,0,0,0],[0,0.25,0,0,0],[0,0.5,0,0,0],[0,0.75,0,0,0],[0,1,0,0,0],[0.25,0,0,0,0],[0.25,1,0,0,0],[0.5,0,0,0,0],[0.5,1,0,0,0],[0.75,0,0,0,0],[0.75,1,0,0,0],[1,0,0,0,0],[1,0.25,0,0,0],[1,0.5,0,0,0],[1,0.75,0,0,0],[1,1,0,0,0]];labelBackgroundColor=none;fontColor=default;" parent="1" vertex="1">
          <mxGeometry x="-110" y="130" width="240" height="294" as="geometry" />
        </mxCell>
        <mxCell id="C9G2EM-J3EJXVnwbl9LZ-13" value="+ field: type" style="text;strokeColor=none;fillColor=none;align=left;verticalAlign=top;spacingLeft=4;spacingRight=4;overflow=hidden;rotatable=0;points=[[0,0.5],[1,0.5]];portConstraint=eastwest;whiteSpace=wrap;html=1;labelBackgroundColor=none;fontColor=default;" parent="C9G2EM-J3EJXVnwbl9LZ-12" vertex="1">
          <mxGeometry y="26" width="240" height="26" as="geometry" />
        </mxCell>
        <mxCell id="C9G2EM-J3EJXVnwbl9LZ-23" value="+ field: type" style="text;strokeColor=none;fillColor=none;align=left;verticalAlign=top;spacingLeft=4;spacingRight=4;overflow=hidden;rotatable=0;points=[[0,0.5],[1,0.5]];portConstraint=eastwest;whiteSpace=wrap;html=1;labelBackgroundColor=none;fontColor=default;" parent="C9G2EM-J3EJXVnwbl9LZ-12" vertex="1">
          <mxGeometry y="52" width="240" height="26" as="geometry" />
        </mxCell>
        <mxCell id="C9G2EM-J3EJXVnwbl9LZ-14" value="" style="line;strokeWidth=1;fillColor=none;align=left;verticalAlign=middle;spacingTop=-1;spacingLeft=3;spacingRight=3;rotatable=0;labelPosition=right;points=[];portConstraint=eastwest;strokeColor=inherit;labelBackgroundColor=none;fontColor=default;" parent="C9G2EM-J3EJXVnwbl9LZ-12" vertex="1">
          <mxGeometry y="78" width="240" height="8" as="geometry" />
        </mxCell>
        <object label="&lt;div style=&quot;font-family: Consolas, &amp;quot;Courier New&amp;quot;, monospace; font-size: 14px; line-height: 19px;&quot;&gt;OutputWebLinks&lt;/div&gt;&lt;div style=&quot;font-family: Consolas, &amp;quot;Courier New&amp;quot;, monospace; font-size: 14px; line-height: 19px;&quot;&gt;&lt;br&gt;&lt;/div&gt;" OutputWebLinks="" id="C9G2EM-J3EJXVnwbl9LZ-15">
          <mxCell style="text;strokeColor=none;fillColor=none;align=left;verticalAlign=top;spacingLeft=4;spacingRight=4;overflow=hidden;rotatable=0;points=[[0,0.5],[1,0.5]];portConstraint=eastwest;whiteSpace=wrap;html=1;labelBackgroundColor=none;fontColor=default;" parent="C9G2EM-J3EJXVnwbl9LZ-12" vertex="1">
            <mxGeometry y="86" width="240" height="26" as="geometry" />
          </mxCell>
        </object>
        <object label="&lt;div style=&quot;font-family: Consolas, &amp;quot;Courier New&amp;quot;, monospace; font-size: 14px; line-height: 19px;&quot;&gt;&lt;div style=&quot;line-height: 19px;&quot;&gt;OutputReferenceLinks&lt;/div&gt;&lt;/div&gt;" OutputWebLinks="" id="C9G2EM-J3EJXVnwbl9LZ-25">
          <mxCell style="text;strokeColor=none;fillColor=none;align=left;verticalAlign=top;spacingLeft=4;spacingRight=4;overflow=hidden;rotatable=0;points=[[0,0.5],[1,0.5]];portConstraint=eastwest;whiteSpace=wrap;html=1;labelBackgroundColor=none;fontColor=default;" parent="C9G2EM-J3EJXVnwbl9LZ-12" vertex="1">
            <mxGeometry y="112" width="240" height="26" as="geometry" />
          </mxCell>
        </object>
        <object label="&lt;div style=&quot;font-family: Consolas, &amp;quot;Courier New&amp;quot;, monospace; font-size: 14px; line-height: 19px;&quot;&gt;&lt;div style=&quot;line-height: 19px;&quot;&gt;GetWebLinks&lt;/div&gt;&lt;/div&gt;" OutputWebLinks="" id="C9G2EM-J3EJXVnwbl9LZ-24">
          <mxCell style="text;strokeColor=none;fillColor=none;align=left;verticalAlign=top;spacingLeft=4;spacingRight=4;overflow=hidden;rotatable=0;points=[[0,0.5],[1,0.5]];portConstraint=eastwest;whiteSpace=wrap;html=1;labelBackgroundColor=none;fontColor=default;" parent="C9G2EM-J3EJXVnwbl9LZ-12" vertex="1">
            <mxGeometry y="138" width="240" height="26" as="geometry" />
          </mxCell>
        </object>
        <object label="&lt;div style=&quot;font-family: Consolas, &amp;quot;Courier New&amp;quot;, monospace; font-size: 14px; line-height: 19px;&quot;&gt;&lt;div style=&quot;line-height: 19px;&quot;&gt;GetEndNotes&lt;/div&gt;&lt;/div&gt;" OutputWebLinks="" id="C9G2EM-J3EJXVnwbl9LZ-26">
          <mxCell style="text;strokeColor=none;fillColor=none;align=left;verticalAlign=top;spacingLeft=4;spacingRight=4;overflow=hidden;rotatable=0;points=[[0,0.5],[1,0.5]];portConstraint=eastwest;whiteSpace=wrap;html=1;labelBackgroundColor=none;fontColor=default;" parent="C9G2EM-J3EJXVnwbl9LZ-12" vertex="1">
            <mxGeometry y="164" width="240" height="26" as="geometry" />
          </mxCell>
        </object>
        <object label="&lt;div style=&quot;font-family: Consolas, &amp;quot;Courier New&amp;quot;, monospace; font-size: 14px; line-height: 19px;&quot;&gt;&lt;div style=&quot;line-height: 19px;&quot;&gt;&lt;div style=&quot;line-height: 19px;&quot;&gt;GetFootNotes&lt;/div&gt;&lt;/div&gt;&lt;/div&gt;" OutputWebLinks="" id="C9G2EM-J3EJXVnwbl9LZ-27">
          <mxCell style="text;strokeColor=none;fillColor=none;align=left;verticalAlign=top;spacingLeft=4;spacingRight=4;overflow=hidden;rotatable=0;points=[[0,0.5],[1,0.5]];portConstraint=eastwest;whiteSpace=wrap;html=1;labelBackgroundColor=none;fontColor=default;" parent="C9G2EM-J3EJXVnwbl9LZ-12" vertex="1">
            <mxGeometry y="190" width="240" height="26" as="geometry" />
          </mxCell>
        </object>
        <object label="&lt;div style=&quot;font-family: Consolas, &amp;quot;Courier New&amp;quot;, monospace; font-size: 14px; line-height: 19px;&quot;&gt;&lt;div style=&quot;line-height: 19px;&quot;&gt;&lt;div style=&quot;line-height: 19px;&quot;&gt;GetShapeHyperlinks&lt;/div&gt;&lt;/div&gt;&lt;/div&gt;" OutputWebLinks="" id="C9G2EM-J3EJXVnwbl9LZ-28">
          <mxCell style="text;strokeColor=none;fillColor=none;align=left;verticalAlign=top;spacingLeft=4;spacingRight=4;overflow=hidden;rotatable=0;points=[[0,0.5],[1,0.5]];portConstraint=eastwest;whiteSpace=wrap;html=1;labelBackgroundColor=none;fontColor=default;" parent="C9G2EM-J3EJXVnwbl9LZ-12" vertex="1">
            <mxGeometry y="216" width="240" height="26" as="geometry" />
          </mxCell>
        </object>
        <object label="&lt;div style=&quot;font-family: Consolas, &amp;quot;Courier New&amp;quot;, monospace; font-size: 14px; line-height: 19px;&quot;&gt;&lt;div style=&quot;line-height: 19px;&quot;&gt;&lt;div style=&quot;line-height: 19px;&quot;&gt;GetReferenceLinks&lt;/div&gt;&lt;/div&gt;&lt;/div&gt;" OutputWebLinks="" id="C9G2EM-J3EJXVnwbl9LZ-29">
          <mxCell style="text;strokeColor=none;fillColor=none;align=left;verticalAlign=top;spacingLeft=4;spacingRight=4;overflow=hidden;rotatable=0;points=[[0,0.5],[1,0.5]];portConstraint=eastwest;whiteSpace=wrap;html=1;labelBackgroundColor=none;fontColor=default;" parent="C9G2EM-J3EJXVnwbl9LZ-12" vertex="1">
            <mxGeometry y="242" width="240" height="26" as="geometry" />
          </mxCell>
        </object>
        <object label="&lt;div style=&quot;font-family: Consolas, &amp;quot;Courier New&amp;quot;, monospace; font-size: 14px; line-height: 19px;&quot;&gt;&lt;div style=&quot;line-height: 19px;&quot;&gt;&lt;div style=&quot;line-height: 19px;&quot;&gt;&lt;div style=&quot;line-height: 19px;&quot;&gt;GetBinderLinks&lt;/div&gt;&lt;/div&gt;&lt;/div&gt;&lt;/div&gt;" OutputWebLinks="" id="C9G2EM-J3EJXVnwbl9LZ-30">
          <mxCell style="text;strokeColor=none;fillColor=none;align=left;verticalAlign=top;spacingLeft=4;spacingRight=4;overflow=hidden;rotatable=0;points=[[0,0.5],[1,0.5]];portConstraint=eastwest;whiteSpace=wrap;html=1;labelBackgroundColor=none;fontColor=default;" parent="C9G2EM-J3EJXVnwbl9LZ-12" vertex="1">
            <mxGeometry y="268" width="240" height="26" as="geometry" />
          </mxCell>
        </object>
        <mxCell id="C9G2EM-J3EJXVnwbl9LZ-45" style="edgeStyle=orthogonalEdgeStyle;rounded=0;orthogonalLoop=1;jettySize=auto;html=1;entryX=0;entryY=0.5;entryDx=0;entryDy=0;" parent="1" source="C9G2EM-J3EJXVnwbl9LZ-31" target="C9G2EM-J3EJXVnwbl9LZ-33" edge="1">
          <mxGeometry relative="1" as="geometry" />
        </mxCell>
        <mxCell id="C9G2EM-J3EJXVnwbl9LZ-31" value="&lt;div style=&quot;font-family: Consolas, &amp;quot;Courier New&amp;quot;, monospace; font-size: 14px; line-height: 19px;&quot;&gt;GenerateBinderHyperlinks&lt;/div&gt;" style="html=1;align=center;verticalAlign=top;rounded=1;absoluteArcSize=1;arcSize=10;dashed=0;whiteSpace=wrap;labelBackgroundColor=none;fontColor=default;" parent="1" vertex="1">
          <mxGeometry x="90" y="780" width="210" height="40" as="geometry" />
        </mxCell>
        <mxCell id="C9G2EM-J3EJXVnwbl9LZ-40" style="edgeStyle=orthogonalEdgeStyle;rounded=0;orthogonalLoop=1;jettySize=auto;html=1;exitX=1;exitY=0.5;exitDx=0;exitDy=0;entryX=0;entryY=0.5;entryDx=0;entryDy=0;" parent="1" source="C9G2EM-J3EJXVnwbl9LZ-32" target="C9G2EM-J3EJXVnwbl9LZ-37" edge="1">
          <mxGeometry relative="1" as="geometry">
            <mxPoint x="120" y="740" as="targetPoint" />
          </mxGeometry>
        </mxCell>
        <mxCell id="C9G2EM-J3EJXVnwbl9LZ-32" value="OutputWebLinks" style="html=1;align=center;verticalAlign=top;rounded=1;absoluteArcSize=1;arcSize=10;dashed=0;whiteSpace=wrap;" parent="1" vertex="1">
          <mxGeometry x="160" y="560" width="140" height="40" as="geometry" />
        </mxCell>
        <mxCell id="C9G2EM-J3EJXVnwbl9LZ-33" value="GetBinderLinks" style="html=1;align=center;verticalAlign=top;rounded=1;absoluteArcSize=1;arcSize=10;dashed=0;whiteSpace=wrap;" parent="1" vertex="1">
          <mxGeometry x="330" y="780" width="140" height="40" as="geometry" />
        </mxCell>
        <mxCell id="C9G2EM-J3EJXVnwbl9LZ-34" value="GetFootNotes" style="html=1;align=center;verticalAlign=top;rounded=1;absoluteArcSize=1;arcSize=10;dashed=0;whiteSpace=wrap;" parent="1" vertex="1">
          <mxGeometry x="530" y="560" width="140" height="40" as="geometry" />
        </mxCell>
        <mxCell id="C9G2EM-J3EJXVnwbl9LZ-35" value="GetReferenceLinks" style="html=1;align=center;verticalAlign=top;rounded=1;absoluteArcSize=1;arcSize=10;dashed=0;whiteSpace=wrap;" parent="1" vertex="1">
          <mxGeometry x="330" y="690" width="140" height="40" as="geometry" />
        </mxCell>
        <mxCell id="C9G2EM-J3EJXVnwbl9LZ-44" style="edgeStyle=orthogonalEdgeStyle;rounded=0;orthogonalLoop=1;jettySize=auto;html=1;" parent="1" source="C9G2EM-J3EJXVnwbl9LZ-36" target="C9G2EM-J3EJXVnwbl9LZ-35" edge="1">
          <mxGeometry relative="1" as="geometry" />
        </mxCell>
        <mxCell id="C9G2EM-J3EJXVnwbl9LZ-36" value="OutputWebLinks" style="html=1;align=center;verticalAlign=top;rounded=1;absoluteArcSize=1;arcSize=10;dashed=0;whiteSpace=wrap;" parent="1" vertex="1">
          <mxGeometry x="160" y="690" width="140" height="40" as="geometry" />
        </mxCell>
        <mxCell id="C9G2EM-J3EJXVnwbl9LZ-41" style="edgeStyle=orthogonalEdgeStyle;rounded=0;orthogonalLoop=1;jettySize=auto;html=1;entryX=0;entryY=0.5;entryDx=0;entryDy=0;" parent="1" source="C9G2EM-J3EJXVnwbl9LZ-37" target="C9G2EM-J3EJXVnwbl9LZ-39" edge="1">
          <mxGeometry relative="1" as="geometry" />
        </mxCell>
        <mxCell id="C9G2EM-J3EJXVnwbl9LZ-42" style="edgeStyle=orthogonalEdgeStyle;rounded=0;orthogonalLoop=1;jettySize=auto;html=1;entryX=0;entryY=0.5;entryDx=0;entryDy=0;" parent="1" source="C9G2EM-J3EJXVnwbl9LZ-37" target="C9G2EM-J3EJXVnwbl9LZ-34" edge="1">
          <mxGeometry relative="1" as="geometry" />
        </mxCell>
        <mxCell id="C9G2EM-J3EJXVnwbl9LZ-43" style="edgeStyle=orthogonalEdgeStyle;rounded=0;orthogonalLoop=1;jettySize=auto;html=1;entryX=0;entryY=0.5;entryDx=0;entryDy=0;" parent="1" source="C9G2EM-J3EJXVnwbl9LZ-37" target="C9G2EM-J3EJXVnwbl9LZ-38" edge="1">
          <mxGeometry relative="1" as="geometry" />
        </mxCell>
        <mxCell id="C9G2EM-J3EJXVnwbl9LZ-37" value="GetWebLinks" style="html=1;align=center;verticalAlign=top;rounded=1;absoluteArcSize=1;arcSize=10;dashed=0;whiteSpace=wrap;" parent="1" vertex="1">
          <mxGeometry x="330" y="560" width="140" height="40" as="geometry" />
        </mxCell>
        <mxCell id="C9G2EM-J3EJXVnwbl9LZ-38" value="GetShapeHyperlinks" style="html=1;align=center;verticalAlign=top;rounded=1;absoluteArcSize=1;arcSize=10;dashed=0;whiteSpace=wrap;" parent="1" vertex="1">
          <mxGeometry x="530" y="620" width="140" height="40" as="geometry" />
        </mxCell>
        <mxCell id="C9G2EM-J3EJXVnwbl9LZ-39" value="GetEndNotes" style="html=1;align=center;verticalAlign=top;rounded=1;absoluteArcSize=1;arcSize=10;dashed=0;whiteSpace=wrap;" parent="1" vertex="1">
          <mxGeometry x="530" y="500" width="140" height="40" as="geometry" />
        </mxCell>
      </root>
    </mxGraphModel>
  </diagram>
</mxfile>
